<svg width="32" height="32" viewBox="0 0 32 32" fill="none" xmlns="http://www.w3.org/2000/svg">
<rect width="32" height="32" rx="16" fill="#DF4D6F"/>
<path fill-rule="evenodd" clip-rule="evenodd" d="M24.6665 13.9043H6.8425C6.4285 13.9043 6.0925 13.5683 6.0925 13.1543C6.0925 12.7403 6.4285 12.4043 6.8425 12.4043H24.6665C25.0805 12.4043 25.4165 12.7403 25.4165 13.1543C25.4165 13.5683 25.0805 13.9043 24.6665 13.9043Z" fill="white"/>
<path fill-rule="evenodd" clip-rule="evenodd" d="M20.2012 17.8096C19.7872 17.8096 19.4472 17.4736 19.4472 17.0596C19.4472 16.6456 19.7782 16.3096 20.1922 16.3096H20.2012C20.6152 16.3096 20.9512 16.6456 20.9512 17.0596C20.9512 17.4736 20.6152 17.8096 20.2012 17.8096Z" fill="white"/>
<path fill-rule="evenodd" clip-rule="evenodd" d="M15.7637 17.8096C15.3497 17.8096 15.0097 17.4736 15.0097 17.0596C15.0097 16.6456 15.3407 16.3096 15.7547 16.3096H15.7637C16.1777 16.3096 16.5137 16.6456 16.5137 17.0596C16.5137 17.4736 16.1777 17.8096 15.7637 17.8096Z" fill="white"/>
<path fill-rule="evenodd" clip-rule="evenodd" d="M11.3169 17.8096C10.9029 17.8096 10.5619 17.4736 10.5619 17.0596C10.5619 16.6456 10.8939 16.3096 11.3079 16.3096H11.3169C11.7309 16.3096 12.0669 16.6456 12.0669 17.0596C12.0669 17.4736 11.7309 17.8096 11.3169 17.8096Z" fill="white"/>
<path fill-rule="evenodd" clip-rule="evenodd" d="M20.2012 21.6963C19.7872 21.6963 19.4472 21.3603 19.4472 20.9463C19.4472 20.5323 19.7782 20.1963 20.1922 20.1963H20.2012C20.6152 20.1963 20.9512 20.5323 20.9512 20.9463C20.9512 21.3603 20.6152 21.6963 20.2012 21.6963Z" fill="white"/>
<path fill-rule="evenodd" clip-rule="evenodd" d="M15.7637 21.6963C15.3497 21.6963 15.0097 21.3603 15.0097 20.9463C15.0097 20.5323 15.3407 20.1963 15.7547 20.1963H15.7637C16.1777 20.1963 16.5137 20.5323 16.5137 20.9463C16.5137 21.3603 16.1777 21.6963 15.7637 21.6963Z" fill="white"/>
<path fill-rule="evenodd" clip-rule="evenodd" d="M11.3169 21.6963C10.9029 21.6963 10.5619 21.3603 10.5619 20.9463C10.5619 20.5323 10.8939 20.1963 11.3079 20.1963H11.3169C11.7309 20.1963 12.0669 20.5323 12.0669 20.9463C12.0669 21.3603 11.7309 21.6963 11.3169 21.6963Z" fill="white"/>
<path fill-rule="evenodd" clip-rule="evenodd" d="M19.7935 9.791C19.3795 9.791 19.0435 9.455 19.0435 9.041V5.75C19.0435 5.336 19.3795 5 19.7935 5C20.2075 5 20.5435 5.336 20.5435 5.75V9.041C20.5435 9.455 20.2075 9.791 19.7935 9.791Z" fill="white"/>
<path fill-rule="evenodd" clip-rule="evenodd" d="M11.7153 9.791C11.3013 9.791 10.9653 9.455 10.9653 9.041V5.75C10.9653 5.336 11.3013 5 11.7153 5C12.1293 5 12.4653 5.336 12.4653 5.75V9.041C12.4653 9.455 12.1293 9.791 11.7153 9.791Z" fill="white"/>
<mask id="mask0_7259_47238" style="mask-type:alpha" maskUnits="userSpaceOnUse" x="6" y="6" width="20" height="21">
<path fill-rule="evenodd" clip-rule="evenodd" d="M6 6.5791H25.5V26.5H6V6.5791Z" fill="white"/>
</mask>
<g mask="url(#mask0_7259_47238)">
<path fill-rule="evenodd" clip-rule="evenodd" d="M11.521 8.0791C8.928 8.0791 7.5 9.4621 7.5 11.9731V21.0221C7.5 23.5881 8.928 25.0001 11.521 25.0001H19.979C22.572 25.0001 24 23.6141 24 21.0981V11.9731C24.004 10.7381 23.672 9.7781 23.013 9.1181C22.335 8.4381 21.29 8.0791 19.988 8.0791H11.521ZM19.979 26.5001H11.521C8.116 26.5001 6 24.4011 6 21.0221V11.9731C6 8.6451 8.116 6.5791 11.521 6.5791H19.988C21.697 6.5791 23.11 7.0911 24.075 8.0581C25.012 8.9991 25.505 10.3521 25.5 11.9751V21.0981C25.5 24.4301 23.384 26.5001 19.979 26.5001Z" fill="white"/>
</g>
</svg>
