<svg width="28" height="28" viewBox="0 0 28 28" fill="none" xmlns="http://www.w3.org/2000/svg">
<circle cx="14" cy="14" r="14" fill="#F3F5F9"/>
<path fill-rule="evenodd" clip-rule="evenodd" d="M11.1942 4.69126C11.3523 4.45158 11.6185 4.30762 11.9035 4.30762H17.0189C17.304 4.30762 17.5702 4.45158 17.7283 4.69126L19.1803 6.89223H22.1343C22.8127 6.89223 23.4632 7.16454 23.9429 7.64925C24.4225 8.13396 24.692 8.79137 24.692 9.47685V18.9538C24.692 19.6393 24.4225 20.2967 23.9429 20.7814C23.4632 21.2661 22.8127 21.5384 22.1343 21.5384H6.78816C6.10982 21.5384 5.45926 21.2661 4.9796 20.7814C4.49994 20.2967 4.23047 19.6393 4.23047 18.9538V9.47685C4.23047 8.79137 4.49994 8.13396 4.9796 7.64925C5.45926 7.16454 6.10982 6.89223 6.78816 6.89223H9.74214L11.1942 4.69126ZM12.3598 6.03069L10.9078 8.23167C10.7497 8.47135 10.4835 8.61531 10.1984 8.61531H6.78816C6.56205 8.61531 6.34519 8.70608 6.18531 8.86765C6.02542 9.02922 5.9356 9.24835 5.9356 9.47685V18.9538C5.9356 19.1823 6.02542 19.4014 6.18531 19.563C6.34519 19.7245 6.56205 19.8153 6.78816 19.8153H22.1343C22.3604 19.8153 22.5773 19.7245 22.7372 19.563C22.8971 19.4014 22.9869 19.1823 22.9869 18.9538V9.47685C22.9869 9.24835 22.8971 9.02922 22.7372 8.86765C22.5773 8.70608 22.3604 8.61531 22.1343 8.61531H18.7241C18.439 8.61531 18.1728 8.47135 18.0147 8.23167L16.5627 6.03069H12.3598Z" fill="#333333"/>
<path fill-rule="evenodd" clip-rule="evenodd" d="M14.5 11.6C13.0088 11.6 11.8 12.6745 11.8 14C11.8 15.3255 13.0088 16.4 14.5 16.4C15.9912 16.4 17.2 15.3255 17.2 14C17.2 12.6745 15.9912 11.6 14.5 11.6ZM10 14C10 11.7909 12.0147 10 14.5 10C16.9853 10 19 11.7909 19 14C19 16.2091 16.9853 18 14.5 18C12.0147 18 10 16.2091 10 14Z" fill="#333333"/>
</svg>
