<svg width="20" height="20" viewBox="0 0 20 20" fill="none" xmlns="http://www.w3.org/2000/svg">
<path d="M1.7165 12.2309C1.7445 12.3366 1.79316 12.4357 1.85967 12.5225C1.92618 12.6093 2.00922 12.6821 2.104 12.7367L3.69567 13.6567V15.4892C3.69567 15.7102 3.78347 15.9222 3.93975 16.0784C4.09603 16.2347 4.30799 16.3225 4.529 16.3225H6.3615L7.2815 17.9142C7.35509 18.0405 7.46039 18.1453 7.58696 18.2184C7.71354 18.2915 7.85701 18.3303 8.00317 18.3309C8.14974 18.331 8.29374 18.2925 8.42067 18.2192L10.0107 17.2992L11.6023 18.2192C11.7938 18.3295 12.0212 18.3593 12.2346 18.3021C12.448 18.2449 12.63 18.1054 12.7407 17.9142L13.6598 16.3234H15.4923C15.7134 16.3234 15.9253 16.2356 16.0816 16.0793C16.2379 15.923 16.3257 15.711 16.3257 15.49V13.6575L17.9173 12.7375C18.1086 12.6269 18.2481 12.4448 18.3051 12.2313C18.3621 12.0179 18.3321 11.7905 18.2215 11.5992L17.3015 10.0084L18.2215 8.41835C18.3321 8.22706 18.3621 7.99968 18.3051 7.78621C18.2481 7.57275 18.1086 7.39067 17.9173 7.28002L16.3257 6.36002V4.52669C16.3257 4.30567 16.2379 4.09371 16.0816 3.93743C15.9253 3.78115 15.7134 3.69335 15.4923 3.69335H13.6598L12.7407 2.10252C12.6299 1.91138 12.4481 1.77178 12.2348 1.71419C12.1291 1.68553 12.0188 1.67815 11.9102 1.69245C11.8017 1.70676 11.697 1.74247 11.6023 1.79752L10.0107 2.71752L8.41984 1.79752C8.32517 1.74255 8.22059 1.70681 8.11208 1.69235C8.00357 1.67789 7.89327 1.68499 7.78752 1.71325C7.68176 1.74151 7.58262 1.79037 7.49579 1.85702C7.40895 1.92368 7.33613 2.00683 7.2815 2.10169L6.3615 3.69335H4.529C4.30799 3.69335 4.09603 3.78115 3.93975 3.93743C3.78347 4.09371 3.69567 4.30567 3.69567 4.52669V6.35919L2.104 7.27919C2.00903 7.33382 1.92579 7.40667 1.85906 7.49357C1.79233 7.58047 1.74343 7.6797 1.71516 7.78555C1.6869 7.89141 1.67983 8.00181 1.69436 8.1104C1.70889 8.219 1.74474 8.32365 1.79984 8.41835L2.71984 10.0084L1.79984 11.5984C1.74496 11.6931 1.70934 11.7977 1.69504 11.9063C1.68074 12.0148 1.68803 12.1251 1.7165 12.2309ZM4.40317 9.59085L3.65984 8.30502L4.9465 7.56085C5.07303 7.48761 5.17806 7.38237 5.25105 7.2557C5.32404 7.12903 5.36242 6.98538 5.36234 6.83919V5.36002H6.84234C7.13984 5.36002 7.41567 5.20169 7.564 4.94335L8.30734 3.65752L9.594 4.40085C9.72063 4.47416 9.86436 4.51276 10.0107 4.51276C10.157 4.51276 10.3007 4.47416 10.4273 4.40085L11.7148 3.65752L12.4573 4.94335C12.5305 5.07003 12.6357 5.17523 12.7623 5.24837C12.889 5.32151 13.0327 5.36002 13.179 5.36002H14.659V6.84002C14.6589 6.98622 14.6973 7.12986 14.7703 7.25653C14.8433 7.3832 14.9483 7.48844 15.0748 7.56169L16.3615 8.30585L15.6173 9.59169C15.544 9.71847 15.5055 9.86233 15.5055 10.0088C15.5055 10.1552 15.544 10.2991 15.6173 10.4259L16.3615 11.7117L15.0748 12.4559C14.9483 12.5291 14.8433 12.6343 14.7703 12.761C14.6973 12.8877 14.6589 13.0313 14.659 13.1775V14.6575H13.179C13.0327 14.6574 12.8889 14.6958 12.7622 14.7689C12.6355 14.8421 12.5303 14.9474 12.4573 15.0742L11.7148 16.36L10.4273 15.6159C10.3006 15.5426 10.1567 15.504 10.0103 15.504C9.86381 15.504 9.71995 15.5426 9.59317 15.6159L8.30734 16.36L7.564 15.0742C7.49074 14.9476 7.38551 14.8425 7.25886 14.7694C7.13221 14.6963 6.98858 14.6577 6.84234 14.6575H5.36234V13.1775C5.36242 13.0313 5.32404 12.8877 5.25105 12.761C5.17806 12.6343 5.07303 12.5291 4.9465 12.4559L3.65984 11.7117L4.404 10.4259C4.47733 10.2989 4.51586 10.1549 4.51571 10.0082C4.51557 9.86164 4.47675 9.71766 4.40317 9.59085Z" fill="#3DC459"/>
<path fill-rule="evenodd" clip-rule="evenodd" d="M13.4939 8.08929C13.1684 7.76386 12.6408 7.76386 12.3154 8.08929L9.36907 11.0356L7.6013 9.26781C7.27586 8.94237 6.74823 8.94237 6.42279 9.26781C6.09735 9.59324 6.09735 10.1209 6.42279 10.4463L8.77981 12.8033C8.83066 12.8542 8.88645 12.8971 8.94563 12.9321C9.2652 13.1208 9.68374 13.0779 9.95832 12.8033C9.95832 12.8033 9.95833 12.8033 9.95833 12.8033L13.4939 9.2678C13.8193 8.94237 13.8193 8.41473 13.4939 8.08929Z" fill="#3DC459"/>
</svg>
