<svg width="80" height="80" viewBox="0 0 80 80" fill="none" xmlns="http://www.w3.org/2000/svg">
<path d="M43.75 37.2V42.8H49.375V48.4H38.125V31.6H55C55 28.52 52.4687 26 49.375 26H38.125C35.0312 26 32.5 28.52 32.5 31.6V48.4C32.5 51.48 35.0312 54 38.125 54H49.375C52.4687 54 55 51.48 55 48.4V37.2H43.75ZM26.875 26H21.25V40H15.625V26H10V45.6H21.25V54H26.875V45.6H29.6875V40H26.875V26Z" fill="#333333"/>
<path d="M69.3333 37.3333H75V42.6667H69.3333V48H63.6667V42.6667H58V37.3333H63.6667V32H69.3333V37.3333Z" fill="#FF6B00"/>
</svg>
