<svg width="54" height="47" viewBox="0 0 54 47" fill="none" xmlns="http://www.w3.org/2000/svg">
<path d="M37.6293 11.0233L28.7447 11.0233L28.7447 2.22733H25.2553L25.2553 11.0233L16.3707 11.0233V14.4779H25.2553V23.2739H28.7447V14.4779H37.6293V11.0233Z" fill="#888888"/>
<path d="M10.4131 40.082C9.72646 40.082 9.12646 39.9353 8.61313 39.642C8.10646 39.342 7.71646 38.9186 7.44313 38.372C7.16979 37.8253 7.03313 37.1786 7.03313 36.432C7.03313 35.692 7.16979 35.0486 7.44313 34.502C7.71646 33.9553 8.10646 33.5353 8.61313 33.242C9.12646 32.9486 9.72646 32.802 10.4131 32.802C10.8998 32.802 11.3498 32.8786 11.7631 33.032C12.1831 33.1786 12.5365 33.3953 12.8231 33.682L12.4631 34.442C12.1298 34.1686 11.7998 33.972 11.4731 33.852C11.1531 33.7253 10.8031 33.662 10.4231 33.662C9.68313 33.662 9.10979 33.902 8.70313 34.382C8.30313 34.862 8.10313 35.5453 8.10313 36.432C8.10313 37.3253 8.30313 38.0153 8.70313 38.502C9.10979 38.982 9.68313 39.222 10.4231 39.222C10.8031 39.222 11.1531 39.162 11.4731 39.042C11.7998 38.9153 12.1298 38.7153 12.4631 38.442L12.8231 39.202C12.5365 39.4886 12.1831 39.7086 11.7631 39.862C11.3498 40.0086 10.8998 40.082 10.4131 40.082ZM16.7091 34.842C17.9157 34.842 18.5191 35.5153 18.5191 36.862V40.002H17.5091V36.922C17.5091 36.482 17.4224 36.162 17.2491 35.962C17.0824 35.762 16.8124 35.662 16.4391 35.662C16.0124 35.662 15.6691 35.7953 15.4091 36.062C15.1557 36.3286 15.0291 36.6853 15.0291 37.132V40.002H14.0291V32.642H15.0291V35.742C15.1957 35.4486 15.4257 35.2253 15.7191 35.072C16.0124 34.9186 16.3424 34.842 16.7091 34.842ZM22.1268 40.072C21.6335 40.072 21.2001 39.9653 20.8268 39.752C20.4535 39.5386 20.1635 39.2353 19.9568 38.842C19.7568 38.4486 19.6568 37.9886 19.6568 37.462C19.6568 36.9353 19.7568 36.4753 19.9568 36.082C20.1635 35.682 20.4535 35.3753 20.8268 35.162C21.2001 34.9486 21.6335 34.842 22.1268 34.842C22.6135 34.842 23.0435 34.9486 23.4168 35.162C23.7901 35.3753 24.0768 35.682 24.2768 36.082C24.4835 36.4753 24.5868 36.9353 24.5868 37.462C24.5868 37.9886 24.4835 38.4486 24.2768 38.842C24.0768 39.2353 23.7901 39.5386 23.4168 39.752C23.0435 39.9653 22.6135 40.072 22.1268 40.072ZM22.1168 39.272C22.5835 39.272 22.9401 39.1186 23.1868 38.812C23.4335 38.5053 23.5568 38.0553 23.5568 37.462C23.5568 36.882 23.4301 36.4353 23.1768 36.122C22.9301 35.8086 22.5801 35.652 22.1268 35.652C21.6668 35.652 21.3101 35.8086 21.0568 36.122C20.8035 36.4353 20.6768 36.882 20.6768 37.462C20.6768 38.0553 20.8001 38.5053 21.0468 38.812C21.3001 39.1186 21.6568 39.272 22.1168 39.272ZM22.6568 40.872V41.892H21.5868V40.872H22.6568ZM28.4473 34.842C29.654 34.842 30.2573 35.5153 30.2573 36.862V40.002H29.2473V36.922C29.2473 36.482 29.1607 36.162 28.9873 35.962C28.8207 35.762 28.5507 35.662 28.1773 35.662C27.7507 35.662 27.4073 35.7953 27.1473 36.062C26.894 36.3286 26.7673 36.6853 26.7673 37.132V40.002H25.7673V36.382C25.7673 35.8553 25.7407 35.382 25.6873 34.962H26.6273L26.7173 35.832C26.8773 35.512 27.1073 35.2686 27.4073 35.102C27.714 34.9286 28.0607 34.842 28.4473 34.842ZM36.4911 33.452C35.9378 33.452 35.6611 33.7686 35.6611 34.402V34.962H36.8411V35.742H35.6611V40.002H34.6511V35.742H33.6811V34.962H34.6511V34.322C34.6511 33.762 34.7911 33.3353 35.0711 33.042C35.3578 32.7486 35.7578 32.602 36.2711 32.602C36.5378 32.602 36.7811 32.6353 37.0011 32.702V33.532C36.8211 33.4786 36.6511 33.452 36.4911 33.452ZM37.867 34.962H38.867V40.002H37.867V34.962ZM38.947 32.762V33.822H37.777V32.762H38.947ZM40.3474 32.642H41.3474V40.002H40.3474V32.642ZM47.1279 37.502H43.5279C43.5612 38.682 44.0979 39.272 45.1379 39.272C45.7179 39.272 46.2479 39.082 46.7279 38.702L47.0379 39.422C46.8112 39.622 46.5212 39.782 46.1679 39.902C45.8212 40.0153 45.4712 40.072 45.1179 40.072C44.3112 40.072 43.6779 39.842 43.2179 39.382C42.7579 38.9153 42.5279 38.2786 42.5279 37.472C42.5279 36.9586 42.6279 36.502 42.8279 36.102C43.0346 35.702 43.3212 35.392 43.6879 35.172C44.0546 34.952 44.4712 34.842 44.9379 34.842C45.6179 34.842 46.1512 35.062 46.5379 35.502C46.9312 35.942 47.1279 36.552 47.1279 37.332V37.502ZM44.9579 35.592C44.5779 35.592 44.2679 35.7053 44.0279 35.932C43.7879 36.1586 43.6346 36.482 43.5679 36.902H46.2379C46.1979 36.4753 46.0679 36.152 45.8479 35.932C45.6279 35.7053 45.3312 35.592 44.9579 35.592Z" fill="#888888"/>
</svg>
