<svg width="80" height="80" viewBox="0 0 80 80" fill="none" xmlns="http://www.w3.org/2000/svg">
<g clip-path="url(#clip0)">
<path d="M38.5527 27.6776C40.8399 28.9909 42.7379 30.8775 44.0559 33.1526C45.3739 35.4277 46.0715 38.0061 46.0678 40.6327V57.7236H37.1135C36.6693 58.9739 35.8469 60.0579 34.7566 60.8236C33.6699 61.5894 32.3666 62 31.0339 62C29.7012 62 28.4016 61.5894 27.3112 60.8236C26.2208 60.0579 25.3985 58.9739 24.9543 57.7236H16V40.6327C16 38.0061 16.6939 35.4277 18.0119 33.1526C19.3299 30.8775 21.2316 28.9909 23.5151 27.6776C23.1627 27.0487 22.891 26.3754 22.7111 25.6763H16V21.4035H22.7148C23.192 19.5687 24.2677 17.9447 25.7729 16.7868C27.2782 15.6289 29.1285 15 31.0339 15C32.9393 15 34.7896 15.6289 36.2948 16.7868C37.8001 17.9447 38.8757 19.5687 39.3567 21.4035H46.0678V25.6763H39.353C39.1731 26.3828 38.8978 27.0561 38.5527 27.6776ZM35.4321 30.8849C34.1471 31.6507 32.6419 32.0872 31.0339 32.0872C29.4846 32.0909 27.9684 31.6729 26.6357 30.8849C24.745 31.7284 23.1406 33.0971 22.0172 34.8284C20.8901 36.5597 20.2917 38.5758 20.2954 40.6364V53.4545H24.5908V44.9091C24.5908 43.2074 25.27 41.5797 26.4778 40.3774C27.6857 39.1751 29.3231 38.5019 31.0339 38.5019C32.7447 38.5019 34.3821 39.1788 35.59 40.3774C36.7978 41.5797 37.477 43.2111 37.477 44.9091V53.4545H41.7724V40.6327C41.7724 38.5721 41.174 36.556 40.0506 34.8247C38.9235 33.0971 37.3191 31.7284 35.4321 30.8849ZM31.0339 42.7672C30.4648 42.7672 29.9178 42.9928 29.514 43.3924C29.1101 43.7919 28.8862 44.3357 28.8862 44.9017V55.5854C28.8862 56.1514 29.1138 56.6952 29.514 57.0947C29.9178 57.4942 30.4612 57.7199 31.0339 57.7199C31.6029 57.7199 32.15 57.4942 32.5538 57.0947C32.9576 56.6952 33.1816 56.1514 33.1816 55.5854V44.9054C33.1816 44.3394 32.954 43.7956 32.5538 43.3961C32.15 42.9928 31.6029 42.7672 31.0339 42.7672ZM31.0339 27.8145C32.172 27.8145 33.266 27.3632 34.07 26.5641C34.8741 25.7614 35.3293 24.6775 35.3293 23.5418C35.3293 22.4098 34.8777 21.3222 34.07 20.5194C33.266 19.7166 32.172 19.269 31.0339 19.269C29.8958 19.269 28.8018 19.7203 27.9977 20.5194C27.1937 21.3222 26.7385 22.4061 26.7385 23.5418C26.7385 24.6738 27.1901 25.7614 27.9977 26.5641C28.8018 27.3632 29.8958 27.8145 31.0339 27.8145Z" fill="#333333"/>
<path d="M57.8489 36.2527L67.1189 38.3021C67.6329 38.4168 68.0037 38.8718 68.0037 39.3971V50.6024C68.0037 52.8552 66.8729 54.9565 64.9895 56.2031L57.8489 60.9383L50.7119 56.2031C48.8286 54.9528 47.6978 52.8516 47.6978 50.6024V39.3934C47.6978 38.8681 48.065 38.4131 48.5826 38.2984L57.8489 36.2527ZM57.8489 38.5499L49.952 40.296V50.6024C49.952 52.1043 50.7046 53.5026 51.9602 54.3387L57.8489 58.2452L63.7376 54.3387C64.9932 53.5063 65.7458 52.1043 65.7458 50.6061V40.296L57.8489 38.5499ZM62.8712 44.3542L64.4682 45.9412L57.2872 53.0809L52.4999 48.3236L54.0932 46.7366L57.2835 49.9106L62.8712 44.3542Z" fill="#FF6B00"/>
</g>
<defs>
<clipPath id="clip0">
<rect width="52" height="47" fill="white" transform="translate(16 15)"/>
</clipPath>
</defs>
</svg>
