<svg width="80" height="80" viewBox="0 0 80 80" fill="none" xmlns="http://www.w3.org/2000/svg">
<g clip-path="url(#clip0)">
<path d="M25.3867 40.6649C24.7968 41.2634 24.4677 42.0715 24.4677 42.9169C24.4677 43.7624 24.7968 44.5705 25.3867 45.169C25.9766 45.7676 26.7746 46.1005 27.6066 46.1005C28.4385 46.1005 29.2365 45.7638 29.8264 45.169C30.4164 44.5742 30.7454 43.7624 30.7454 42.9169C30.7454 42.0715 30.4126 41.2634 29.8264 40.6649C29.2365 40.0663 28.4385 39.7334 27.6066 39.7334C26.7746 39.7296 25.9766 40.0663 25.3867 40.6649Z" fill="#333333"/>
<path d="M42.9262 48.2254H22.3727V37.6085H55.8634V39.3443H60.0498V33.3587L54.8537 21.0658C54.5323 20.3027 53.9953 19.6517 53.3108 19.1953C52.6263 18.7389 51.8246 18.4958 51.0077 18.492H27.2284C26.4078 18.492 25.606 18.7352 24.9215 19.1916C24.2371 19.648 23.7001 20.2989 23.3748 21.0658L18.1863 33.3587V54.5963C18.1863 55.1612 18.4057 55.6999 18.799 56.0964C19.1923 56.493 19.7255 56.7174 20.2776 56.7174H22.3727C22.9286 56.7174 23.4618 56.493 23.8513 56.0964C24.2446 55.6962 24.464 55.1575 24.464 54.5963V52.4714H42.9224V48.2254H42.9262ZM27.2284 22.7418H51.0115L55.4966 33.3587H22.7433L27.2284 22.7418Z" fill="#333333"/>
<path d="M55.1033 40.4591L64.1378 42.4942C64.6408 42.6065 65 43.0591 65 43.5829V54.7235C65 56.9606 63.8958 59.0518 62.0616 60.2901L55.1033 64.9963L48.145 60.2901C46.3108 59.0481 45.2066 56.9606 45.2066 54.7235V43.5866C45.2066 43.0629 45.5659 42.6102 46.0688 42.498L55.1033 40.4591ZM55.1033 42.7449L47.4075 44.4807V54.7273C47.4075 56.2199 48.1412 57.6116 49.3665 58.4383L55.1033 62.3215L60.8401 58.4383C62.0654 57.6116 62.7991 56.2199 62.7991 54.7273V44.4807L55.1033 42.7449ZM60.0006 48.5172L61.5549 50.0959L54.5587 57.1963L49.8921 52.4602L51.4464 50.8815L54.555 54.0352L60.0006 48.5172Z" fill="#FF6B00"/>
</g>
<defs>
<clipPath id="clip0">
<rect width="51" height="55" fill="white" transform="translate(14 10)"/>
</clipPath>
</defs>
</svg>
