<svg width="327" height="180" viewBox="0 0 327 180" fill="none" xmlns="http://www.w3.org/2000/svg">
<mask id="mask0" style="mask-type:alpha" maskUnits="userSpaceOnUse" x="0" y="0" width="327" height="180">
<g style="mix-blend-mode:multiply" opacity="0.1">
<rect width="327" height="180" rx="4" fill="white"/>
</g>
</mask>
<g mask="url(#mask0)">
<path d="M190.714 117.038L198.351 104.646L212.132 99.9457L213.659 85.4712L224.028 75.2636L219.098 61.5624L224.028 47.8609L213.66 37.6533L212.133 23.1791L198.351 18.479L190.715 6.0867L176.27 7.83074L164 0L151.73 7.8314L137.285 6.08735L129.649 18.4793L115.867 23.1794L114.34 37.6537L103.972 47.8612L108.901 61.5627L103.972 75.2643L114.34 85.4715L115.867 99.946L129.648 104.646L137.285 117.038L151.73 115.294L164 123.125L176.27 115.294L190.714 117.038ZM121.784 61.5627C121.784 38.2848 140.722 19.3466 164 19.3466C187.278 19.3466 206.216 38.2848 206.216 61.5627C206.216 84.8407 187.278 103.779 164 103.779C140.722 103.779 121.784 84.8407 121.784 61.5627Z" fill="#888888"/>
<path d="M164 29.1381C146.121 29.1381 131.576 43.6837 131.576 61.5629C131.576 79.442 146.121 93.9877 164 93.9877C181.88 93.9877 196.425 79.442 196.425 61.5629C196.425 43.6837 181.88 29.1381 164 29.1381Z" fill="#888888"/>
<path d="M149.419 125.435L132.236 127.51L123.158 112.778L120.072 111.725L106.76 153.334L130.725 152.016L149.475 167L160.509 132.513L149.419 125.435Z" fill="#888888"/>
<path d="M204.842 112.778L195.763 127.51L178.581 125.435L167.491 132.513L178.524 167L197.275 152.016L221.24 153.334L207.928 111.725L204.842 112.778Z" fill="#888888"/>
</g>
</svg>
