<svg width="34" height="35" viewBox="0 0 34 35" fill="none" xmlns="http://www.w3.org/2000/svg">
<mask id="mask0_192_8684" style="mask-type:alpha" maskUnits="userSpaceOnUse" x="9" y="10" width="16" height="16">
<path fill-rule="evenodd" clip-rule="evenodd" d="M9.50049 10.3408H24.8752V25.7154H9.50049V10.3408Z" fill="white"/>
</mask>
<g mask="url(#mask0_192_8684)">
<path fill-rule="evenodd" clip-rule="evenodd" d="M11.2698 12.6362C11.2713 12.6362 11.2338 12.6752 11.1866 12.7217C11.0051 12.898 10.6293 13.2647 10.6256 14.032C10.6196 15.1052 11.3253 17.098 14.7236 20.4955C18.1061 23.8765 20.0958 24.5905 21.1713 24.5905H21.1871C21.9543 24.5867 22.3203 24.2102 22.4973 24.0295C22.5513 23.974 22.5948 23.9335 22.6256 23.908C23.3726 23.1565 23.7551 22.597 23.7513 22.2385C23.7461 21.8725 23.2908 21.4397 22.6616 20.8412C22.4613 20.6507 22.2438 20.4437 22.0143 20.2142C21.4196 19.621 21.1248 19.7222 20.4768 19.9502C19.5806 20.2645 18.3506 20.692 16.4396 18.7802C14.5256 16.8677 14.9538 15.6392 15.2673 14.743C15.4938 14.095 15.5973 13.7995 15.0018 13.204C14.7686 12.9715 14.5593 12.751 14.3666 12.5485C13.7718 11.923 13.3428 11.4707 12.9791 11.4655H12.9731C12.6138 11.4655 12.0558 11.8495 11.2661 12.6392C11.2683 12.637 11.2691 12.6362 11.2698 12.6362ZM21.1721 25.7154C19.3031 25.7154 16.8663 24.2274 13.9286 21.2912C10.9796 18.3429 9.4893 15.8987 9.50055 14.0259C9.5073 12.7884 10.1561 12.1547 10.3998 11.9169C10.4126 11.9012 10.4561 11.8584 10.4711 11.8434C11.5466 10.7672 12.2718 10.3322 12.9933 10.3404C13.8311 10.3517 14.4273 10.9787 15.1818 11.7729C15.3686 11.9694 15.5711 12.1832 15.7968 12.4082C16.8918 13.5032 16.5798 14.3964 16.3293 15.1134C16.0563 15.8957 15.8201 16.5707 17.2346 17.9852C18.6506 19.3997 19.3256 19.1634 20.1048 18.8882C20.8226 18.6377 21.7136 18.3242 22.8101 19.4192C23.0321 19.6412 23.2428 19.8414 23.4371 20.0267C24.2351 20.7849 24.8651 21.3842 24.8756 22.2242C24.8846 22.9404 24.4496 23.6702 23.3756 24.7449L22.9001 24.4224L23.3021 24.8154C23.0643 25.0592 22.4313 25.7087 21.1931 25.7154H21.1721Z" fill="#DF4D6F"/>
</g>
<rect x="0.5" y="1.34082" width="33" height="33" rx="5.5" stroke="#F2B8C5"/>
</svg>
