<svg width="80" height="80" viewBox="0 0 80 80" fill="none" xmlns="http://www.w3.org/2000/svg">
<path d="M48.6667 23.068C49.8781 23.068 50.8571 23.9833 50.8571 25.1109V27.1538H61.8095V39.419H57.3867L63.4019 54.8393C63.7867 55.7623 64 56.7664 64 57.8129C64 62.3274 60.0762 65.9884 55.2381 65.9884C51.1581 65.9884 47.7257 63.3855 46.7543 59.8558H37.44C36.4686 63.3817 33.0362 65.9884 28.9524 65.9884C24.6933 65.9884 21.1429 63.15 20.3543 59.3924C18.9562 58.7204 18 57.3534 18 55.7777V35.3332C18 34.2055 18.979 33.2903 20.1905 33.2903H35.5238C36.7352 33.2903 37.7143 34.2055 37.7143 35.3332V45.5555C37.7143 46.6831 38.6933 47.5984 39.9048 47.5984H44.2857C45.4971 47.5984 46.4762 46.6831 46.4762 45.5555V27.1577H39.9048V23.068H48.6667ZM28.9524 53.731C26.5333 53.731 24.5714 55.5615 24.5714 57.8206C24.5714 60.0798 26.5333 61.9103 28.9524 61.9103C31.3714 61.9103 33.3333 60.0798 33.3333 57.8206C33.3333 55.5615 31.3714 53.731 28.9524 53.731ZM55.2381 53.731C52.819 53.731 50.8571 55.5615 50.8571 57.8206C50.8571 60.0798 52.819 61.9103 55.2381 61.9103C57.6571 61.9103 59.619 60.0798 59.619 57.8206C59.619 57.3302 59.5276 56.859 59.3562 56.4227L59.3219 56.3338C58.6819 54.8084 57.0933 53.731 55.2381 53.731ZM52.7238 39.4229H50.8571V45.5555C50.8571 48.9423 47.9162 51.688 44.2857 51.688H39.9048C36.2743 51.688 33.3333 48.9423 33.3333 45.5555H22.381V52.4141C23.9848 50.7149 26.3352 49.6451 28.9524 49.6451C33.0362 49.6451 36.4648 52.2519 37.44 55.7777H46.7543C47.7257 52.248 51.1581 49.6413 55.2419 49.6413C55.76 49.6413 56.2705 49.6838 56.7619 49.7649L52.7238 39.4229ZM33.3333 37.3761H22.381V41.4658H33.3333V37.3761ZM57.4286 31.2435H50.8571V35.3332H57.4286V31.2435Z" fill="#333333"/>
<path d="M27.3867 31.7378C22.2019 31.7378 18 27.3199 18 21.8708C18 16.4179 22.2019 12 27.3867 12C32.5714 12 36.7733 16.4179 36.7733 21.8708C36.7771 27.3199 32.5714 31.7378 27.3867 31.7378ZM26.4495 20.8822H22.6933V22.8556H26.4495V26.8024H28.3276V22.8556H32.0838V20.8822H28.3276V16.9354H26.4495V20.8822Z" fill="#FF6B00"/>
</svg>
