<svg width="22" height="22" viewBox="0 0 22 22" fill="none" xmlns="http://www.w3.org/2000/svg">
<mask id="mask0_4468_1677" style="mask-type:alpha" maskUnits="userSpaceOnUse" x="0" y="0" width="22" height="22">
<path fill-rule="evenodd" clip-rule="evenodd" d="M0.5 0.000488281H21.993V21.4943H0.5V0.000488281Z" fill="white"/>
</mask>
<g mask="url(#mask0_4468_1677)">
<path fill-rule="evenodd" clip-rule="evenodd" d="M5.60841 18.6755C6.18841 18.6755 6.73541 18.8955 7.31441 19.1285C10.8614 20.7685 15.0564 20.0225 17.7894 17.2905C21.3954 13.6825 21.3954 7.81349 17.7894 4.20749C16.0434 2.46149 13.7214 1.50049 11.2494 1.50049C8.77641 1.50049 6.45341 2.46249 4.70841 4.20849C1.97441 6.94049 1.23041 11.1355 2.85541 14.6485C3.08941 15.2275 3.31541 15.7915 3.31541 16.3775C3.31541 16.9625 3.11441 17.5515 2.93741 18.0715C2.79141 18.4995 2.57041 19.1455 2.71241 19.2875C2.85141 19.4315 3.50141 19.2045 3.93041 19.0575C4.44541 18.8815 5.02941 18.6795 5.60841 18.6755ZM11.2244 21.4945C9.69641 21.4945 8.15841 21.1715 6.71941 20.5055C6.29541 20.3355 5.89841 20.1755 5.61341 20.1755C5.28541 20.1775 4.84441 20.3295 4.41841 20.4765C3.54441 20.7765 2.45641 21.1505 1.65141 20.3485C0.849407 19.5455 1.21941 18.4605 1.51741 17.5875C1.66441 17.1575 1.81541 16.7135 1.81541 16.3775C1.81541 16.1015 1.68241 15.7495 1.47841 15.2425C-0.394593 11.1975 0.471407 6.32249 3.64841 3.14749C5.67641 1.11849 8.37541 0.000488281 11.2484 0.000488281C14.1214 0.000488281 16.8214 1.11749 18.8494 3.14649C23.0414 7.33849 23.0414 14.1585 18.8494 18.3505C16.7944 20.4065 14.0274 21.4945 11.2244 21.4945Z" fill="#130F26"/>
</g>
<path fill-rule="evenodd" clip-rule="evenodd" d="M15.1963 12.1631C14.6443 12.1631 14.1923 11.7161 14.1923 11.1631C14.1923 10.6101 14.6353 10.1631 15.1873 10.1631H15.1963C15.7483 10.1631 16.1963 10.6101 16.1963 11.1631C16.1963 11.7161 15.7483 12.1631 15.1963 12.1631Z" fill="#130F26"/>
<path fill-rule="evenodd" clip-rule="evenodd" d="M11.1875 12.1631C10.6355 12.1631 10.1835 11.7161 10.1835 11.1631C10.1835 10.6101 10.6255 10.1631 11.1785 10.1631H11.1875C11.7395 10.1631 12.1875 10.6101 12.1875 11.1631C12.1875 11.7161 11.7395 12.1631 11.1875 12.1631Z" fill="#130F26"/>
<path fill-rule="evenodd" clip-rule="evenodd" d="M7.17829 12.1631C6.62629 12.1631 6.17429 11.7161 6.17429 11.1631C6.17429 10.6101 6.61729 10.1631 7.16929 10.1631H7.17829C7.73029 10.1631 8.17829 10.6101 8.17829 11.1631C8.17829 11.7161 7.73029 12.1631 7.17829 12.1631Z" fill="#130F26"/>
</svg>
