<svg width="14" height="15" viewBox="0 0 14 15" fill="none" xmlns="http://www.w3.org/2000/svg">
<path d="M7 0.5C3.14008 0.5 0 3.64008 0 7.5C0 11.3599 3.14008 14.5 7 14.5C10.8599 14.5 14 11.3599 14 7.5C14 3.64008 10.8599 0.5 7 0.5ZM10.3291 11.1208C10.2153 11.2345 10.066 11.2917 9.91667 11.2917C9.76733 11.2917 9.618 11.2345 9.50425 11.1208L6.58758 8.20408C6.47792 8.095 6.41667 7.94683 6.41667 7.79167V4C6.41667 3.67742 6.678 3.41667 7 3.41667C7.322 3.41667 7.58333 3.67742 7.58333 4V7.55017L10.3291 10.2959C10.5572 10.524 10.5572 10.8927 10.3291 11.1208Z" fill="#019748"/>
</svg>
