<svg width="80" height="80" viewBox="0 0 80 80" fill="none" xmlns="http://www.w3.org/2000/svg">
<path d="M64.6889 36.1522C64.4906 35.9489 64.2205 35.8338 63.9368 35.8338H60.7506L55.4755 23.2936C55.1473 22.5145 54.6038 21.8506 53.9098 21.3831C53.2158 20.9156 52.4021 20.6684 51.5714 20.6684H27.4286C26.5979 20.6684 25.7808 20.9156 25.0868 21.3831C24.3928 21.8506 23.8458 22.5145 23.5176 23.2936L18.2494 35.8338H15.0632C14.7829 35.8338 14.5128 35.9489 14.3111 36.1522C14.1128 36.3554 14 36.6298 14 36.9177V38.4793C14 38.9637 14.1573 39.4312 14.4513 39.8106C14.7419 40.19 15.1521 40.461 15.6102 40.5795L18.2528 41.2502V57.4996C18.2528 58.0754 18.4751 58.6242 18.8751 59.0307C19.275 59.4372 19.8152 59.6641 20.3793 59.6641H22.5057C23.0698 59.6641 23.6099 59.4372 24.0099 59.0307C24.4099 58.6242 24.6321 58.0721 24.6321 57.4996V55.3316H44.0845V50.9992H22.4989V40.1663H56.4977V41.8091C57.7661 41.7346 59.1985 41.5686 60.7472 41.2502C61.6976 41.0537 62.5796 40.8234 63.3898 40.5795C63.8479 40.461 64.2581 40.19 64.5487 39.8106C64.8393 39.4312 65 38.9603 65 38.4793V36.9177C65 36.6298 64.8872 36.3554 64.6889 36.1522ZM55.4721 33.8996C55.4345 34.2518 55.3149 34.5872 55.12 34.8819C54.9251 35.1766 54.6619 35.4137 54.3576 35.5797C54.0499 35.7457 53.7081 35.8338 53.3628 35.8338H25.6372C25.2885 35.8338 24.9501 35.7457 24.6424 35.5797C24.3347 35.4137 24.0749 35.1732 23.88 34.8819C23.6851 34.5906 23.5655 34.2518 23.5279 33.8996C23.4903 33.5473 23.5381 33.1916 23.6681 32.863L26.7517 25.0009H52.2517L55.3354 32.863C55.4619 33.1916 55.5097 33.5473 55.4721 33.8996Z" fill="#333333"/>
<path d="M24.6253 42.3342V46.6667C24.6253 47.2425 24.8475 47.7913 25.2475 48.1978C25.6475 48.6043 26.1876 48.8312 26.7517 48.8312H33.6472C33.8318 48.8312 34.013 48.7838 34.1703 48.6923C34.331 48.6009 34.4643 48.4654 34.56 48.3062C34.6557 48.147 34.707 47.964 34.7104 47.7743C34.7139 47.588 34.6728 47.4017 34.5839 47.2357C32.8678 43.9703 29.5482 42.3342 24.6253 42.3342Z" fill="#333333"/>
<path d="M54.1935 60.8531C49.5407 60.8531 45.7699 56.9779 45.7699 52.1983C45.7699 47.4153 49.5407 43.5401 54.1935 43.5401C58.8464 43.5401 62.6172 47.4153 62.6172 52.1983C62.6172 56.9779 58.8464 60.8531 54.1935 60.8531ZM53.3525 51.3311H49.9817V53.0621H53.3525V56.524H55.0379V53.0621H58.4088V51.3311H55.0379V47.8692H53.3525V51.3311Z" fill="#FF6B00"/>
</svg>
