<svg width="21" height="20" viewBox="0 0 21 20" fill="none" xmlns="http://www.w3.org/2000/svg">
<path fill-rule="evenodd" clip-rule="evenodd" d="M13.0337 3.37608C13.8753 3.71108 14.1328 4.87775 14.477 5.25275C14.8212 5.62775 15.3137 5.75525 15.5862 5.75525C17.0345 5.75525 18.2087 6.92942 18.2087 8.37692V13.2061C18.2087 15.1477 16.6337 16.7227 14.692 16.7227H6.30866C4.36616 16.7227 2.79199 15.1477 2.79199 13.2061V8.37692C2.79199 6.92942 3.96616 5.75525 5.41449 5.75525C5.68616 5.75525 6.17866 5.62775 6.52366 5.25275C6.86783 4.87775 7.12449 3.71108 7.96616 3.37608C8.80866 3.04108 12.192 3.04108 13.0337 3.37608Z" stroke="#DF4D6F" stroke-linecap="round" stroke-linejoin="round"/>
<path d="M15.0799 7.91667H15.0874" stroke="#DF4D6F" stroke-linecap="round" stroke-linejoin="round"/>
<path fill-rule="evenodd" clip-rule="evenodd" d="M13.1494 10.94C13.1494 9.47667 11.9636 8.29083 10.5002 8.29083C9.03691 8.29083 7.85107 9.47667 7.85107 10.94C7.85107 12.4033 9.03691 13.5892 10.5002 13.5892C11.9636 13.5892 13.1494 12.4033 13.1494 10.94Z" stroke="#DF4D6F" stroke-linecap="round" stroke-linejoin="round"/>
</svg>
