<svg width="14" height="14" viewBox="0 0 14 14" fill="none" xmlns="http://www.w3.org/2000/svg">
<path fill-rule="evenodd" clip-rule="evenodd" d="M6.41699 11.6667C6.41699 11.3445 6.67816 11.0834 7.00032 11.0834H12.2503C12.5725 11.0834 12.8337 11.3445 12.8337 11.6667C12.8337 11.9889 12.5725 12.25 12.2503 12.25H7.00032C6.67816 12.25 6.41699 11.9889 6.41699 11.6667Z" fill="#888888"/>
<path fill-rule="evenodd" clip-rule="evenodd" d="M10.5003 2.26243C10.3269 2.26243 10.1605 2.33135 10.0378 2.45401L2.8604 9.63143L2.55205 10.8648L3.78544 10.5565L10.9629 3.37906C11.0236 3.31832 11.0718 3.24621 11.1046 3.16685C11.1375 3.08749 11.1544 3.00243 11.1544 2.91653C11.1544 2.83064 11.1375 2.74558 11.1046 2.66622C11.0718 2.58686 11.0236 2.51475 10.9629 2.45401C10.9021 2.39327 10.83 2.34509 10.7507 2.31222C10.6713 2.27935 10.5862 2.26243 10.5003 2.26243ZM9.21286 1.62906C9.55432 1.28759 10.0174 1.09576 10.5003 1.09576C10.7394 1.09576 10.9762 1.14286 11.1971 1.23436C11.418 1.32586 11.6187 1.45998 11.7878 1.62906C11.9569 1.79813 12.091 1.99885 12.1825 2.21976C12.274 2.44066 12.3211 2.67743 12.3211 2.91653C12.3211 3.15564 12.274 3.39241 12.1825 3.61331C12.091 3.83422 11.9569 4.03494 11.7878 4.20401L4.49615 11.4957C4.42139 11.5704 4.32772 11.6235 4.22515 11.6491L1.89182 12.2325C1.69303 12.2821 1.48275 12.2239 1.33786 12.079C1.19297 11.9341 1.13473 11.7238 1.18442 11.5251L1.76775 9.19172C1.7934 9.08915 1.84643 8.99548 1.92119 8.92072L9.21286 1.62906Z" fill="#888888"/>
</svg>
