<svg width="28" height="28" viewBox="0 0 28 28" fill="none" xmlns="http://www.w3.org/2000/svg">
<path fill-rule="evenodd" clip-rule="evenodd" d="M18.8 7.2002H9.2C7.43269 7.2002 6 8.63288 6 10.4002V17.6002C6 19.3675 7.43269 20.8002 9.2 20.8002H18.8C20.5673 20.8002 22 19.3675 22 17.6002V10.4002C22 8.63288 20.5673 7.2002 18.8 7.2002ZM9.20046 8.47168H18.8005C19.6531 8.47331 20.4024 9.03698 20.6405 9.85568L14.6085 14.3277C14.4431 14.4893 14.219 14.5764 13.9879 14.5689C13.7568 14.5613 13.5389 14.4598 13.3845 14.2877L7.37646 9.86368C7.60987 9.04746 8.35159 8.48141 9.20046 8.47168ZM7.27148 17.6C7.27148 18.6648 8.13468 19.528 9.19948 19.528H18.7995C19.8612 19.5236 20.7195 18.6617 20.7195 17.6V11.176L15.2795 15.176C14.9318 15.4997 14.4745 15.6798 13.9995 15.68C13.5057 15.6722 13.0324 15.4812 12.6715 15.144L7.27148 11.144V17.6Z" fill="#FF5D8F"/>
<rect x="1.6" y="1.6" width="24.8" height="24.8" rx="12.4" stroke="#FF5D8F" stroke-width="1.2"/>
</svg>
