<svg width="20" height="20" viewBox="0 0 20 20" fill="none" xmlns="http://www.w3.org/2000/svg">
<path d="M14.8658 5.02155C13.9079 5.02155 13.0466 4.48928 12.6183 3.63254L12.5116 3.41912C12.3832 3.16223 12.1207 3 11.8335 3H7.79041C7.50325 3 7.24075 3.16223 7.11233 3.41907L7.00564 3.63244C6.57728 4.48928 5.71604 5.02155 4.75808 5.02155C4.33942 5.02155 4 5.36097 4 5.77963V10.1056C4 11.8064 4.53667 13.4268 5.55194 14.7914C6.56722 16.1559 7.96502 17.1355 9.59414 17.6243C9.6652 17.6456 9.73858 17.6562 9.81196 17.6562C9.88534 17.6562 9.95873 17.6456 10.0298 17.6243C11.6589 17.1355 13.0567 16.1559 14.072 14.7914C15.0873 13.4268 15.6239 11.8064 15.6239 10.1056V5.77963C15.6239 5.36097 15.2845 5.02155 14.8658 5.02155ZM14.1078 10.1056C14.1078 12.8476 12.3909 15.2295 9.81196 16.1025C7.23302 15.2295 5.51616 12.8476 5.51616 10.1056V6.46706C6.66344 6.2505 7.66088 5.54726 8.25158 4.51611H11.3723C11.963 5.54721 12.9605 6.2505 14.1078 6.46706V10.1056Z" fill="#888888"/>
<path d="M11.4201 8.36316L9.09722 10.686L8.20379 9.7926C7.90778 9.49654 7.42777 9.49654 7.13171 9.7926C6.83565 10.0887 6.83565 10.5686 7.13171 10.8647L8.56115 12.2941C8.70918 12.4422 8.9032 12.5162 9.09716 12.5162C9.29113 12.5162 9.4852 12.4422 9.63318 12.2941L12.4921 9.43524C12.7881 9.13918 12.7881 8.65921 12.4921 8.36316C12.1961 8.0671 11.7161 8.0671 11.4201 8.36316Z" fill="#888888"/>
</svg>
