<svg width="80" height="80" viewBox="0 0 80 80" fill="none" xmlns="http://www.w3.org/2000/svg">
<path d="M15 20.3696C15 19.0593 16.069 18 17.3297 18H59.6666C60.9531 18 61.9963 19.0556 61.9963 20.3696V53.5253C61.9963 54.8319 60.9273 55.8949 59.6666 55.8949H17.3297C17.0238 55.8949 16.7178 55.8322 16.434 55.7141C16.1501 55.596 15.8921 55.4188 15.6746 55.201C15.4571 54.9796 15.2875 54.7212 15.1696 54.4333C15.0553 54.1417 15 53.8354 15 53.5253V20.3696ZM19.7 22.7355V51.1558H57.3V22.7355H19.7ZM22.0518 58.2608H54.9518V62.9963H22.0518V58.2608Z" fill="#333333"/>
<path d="M38.9976 40.1973V42.5854C37.1103 42.5854 35.3003 43.342 33.9696 44.6855C32.6351 46.029 31.8868 47.8524 31.8868 49.7532H29.5165C29.5165 47.2175 30.5155 44.7889 32.296 42.9951C34.0728 41.2013 36.4836 40.1973 38.9976 40.1973ZM38.9976 39.0015C35.0681 39.0015 31.8868 35.794 31.8868 31.8337C31.8868 27.8733 35.0681 24.6658 38.9976 24.6658C42.9272 24.6658 46.1122 27.8733 46.1122 31.8337C46.1122 35.794 42.9272 39.0015 38.9976 39.0015ZM38.9976 36.6134C41.6186 36.6134 43.7382 34.4764 43.7382 31.8337C43.7382 29.1946 41.6149 27.0539 38.9976 27.0539C36.3767 27.0539 34.2571 29.1909 34.2571 31.8337C34.2571 34.4727 36.3804 36.6134 38.9976 36.6134ZM49.6694 43.7813H50.8564V49.7532H41.3716V43.7813H42.5586V42.5854C42.5586 41.6331 42.9346 40.7252 43.6018 40.0497C44.269 39.378 45.1722 39.0015 46.1158 39.0015C47.0595 39.0015 47.9627 39.378 48.6299 40.0497C49.2971 40.7215 49.6694 41.6331 49.6694 42.5854V43.7813ZM47.2954 43.7813V42.5854C47.2954 42.268 47.1701 41.9653 46.9489 41.7402C46.7278 41.515 46.4255 41.3895 46.1122 41.3895C45.7988 41.3895 45.4965 41.515 45.2754 41.7402C45.0542 41.9653 44.9289 42.268 44.9289 42.5854V43.7813H47.2954Z" fill="#FF6B00"/>
</svg>
