<svg width="80" height="80" viewBox="0 0 80 80" fill="none" xmlns="http://www.w3.org/2000/svg">
<g clip-path="url(#clip0)">
<path d="M38.3892 45.5912H22.6176C22.034 45.5912 21.4695 45.3685 21.0576 44.9683C20.6457 44.5719 20.413 44.032 20.413 43.4656V30.7347H55.7094V34.144H60.1224V24.3655C60.1224 22.6778 59.4244 21.0581 58.1848 19.8613C56.9413 18.672 55.2593 18 53.5048 18H22.6176C20.8631 18 19.1772 18.672 17.9376 19.8651C16.698 21.0581 16 22.6778 16 24.3655V43.4694C16 45.1571 16.698 46.7767 17.9376 47.9736C19.1772 49.1666 20.8631 49.8387 22.6176 49.8387H38.3892V45.5912ZM20.413 24.3655C20.413 23.8029 20.6457 23.263 21.0576 22.8628C21.4695 22.4664 22.034 22.2399 22.6176 22.2399H53.5048C54.0883 22.2399 54.649 22.4626 55.0648 22.8628C55.4805 23.263 55.7094 23.7991 55.7094 24.3655V26.4873H20.413V24.3655Z" fill="#333333"/>
<path d="M27.0306 34.9784C26.447 34.9784 25.8825 35.2011 25.4706 35.6013C25.0587 36.0015 24.826 36.5414 24.826 37.104C24.826 37.6665 25.0587 38.2064 25.4706 38.6066C25.8825 39.003 26.447 39.2296 27.0306 39.2296H33.6482C34.2317 39.2296 34.7962 39.0068 35.2082 38.6066C35.6201 38.2102 35.8528 37.6665 35.8528 37.104C35.8528 36.5414 35.6201 36.0015 35.2082 35.6013C34.7924 35.2049 34.2317 34.9784 33.6482 34.9784H27.0306Z" fill="#333333"/>
<path d="M46.2769 45.293V44.0282C46.2769 42.0159 47.1084 40.0866 48.5883 38.6632C50.0682 37.2399 52.0745 36.4395 54.1646 36.4395C56.2586 36.4395 58.2649 37.2399 59.7409 38.6632C61.2208 40.0866 62.0523 42.0159 62.0523 44.0282V45.293H64.6803C65.0274 45.293 65.363 45.4251 65.611 45.663C65.8589 45.9008 65.9962 46.2217 65.9962 46.5578V61.7352C65.9962 62.0712 65.8589 62.3921 65.611 62.63C65.363 62.8679 65.0312 63 64.6803 63H43.6489C43.298 63 42.9662 62.8679 42.7183 62.63C42.4704 62.3921 42.3331 62.0712 42.3331 61.7352V46.5578C42.3331 46.2217 42.4704 45.9008 42.7183 45.663C42.9662 45.4251 43.298 45.293 43.6489 45.293H46.2769ZM63.372 47.8226H44.9648V60.4704H63.372V47.8226ZM52.8525 55.0715C52.3529 54.7921 51.96 54.3617 51.7388 53.8482C51.5176 53.3348 51.4794 52.7647 51.6282 52.2248C51.7769 51.6849 52.1088 51.2129 52.5665 50.8731C53.0242 50.5334 53.5887 50.3521 54.1684 50.3521C54.7482 50.3521 55.3089 50.5371 55.7704 50.8731C56.2319 51.2092 56.5599 51.6887 56.7087 52.2248C56.8574 52.7609 56.8193 53.331 56.5981 53.8482C56.3768 54.3617 55.984 54.7921 55.4843 55.0715V57.9409H52.8564V55.0715H52.8525ZM48.9087 45.293H59.4282V44.0282C59.4282 42.6879 58.8751 41.4005 57.8873 40.449C56.8994 39.4976 55.5644 38.9653 54.1684 38.9653C52.7724 38.9653 51.4375 39.4976 50.4496 40.449C49.4656 41.3967 48.9087 42.6841 48.9087 44.0282V45.293Z" fill="#FF6B00"/>
</g>
<defs>
<clipPath id="clip0">
<rect width="50" height="45" fill="white" transform="translate(16 18)"/>
</clipPath>
</defs>
</svg>
