<svg width="80" height="80" viewBox="0 0 80 80" fill="none" xmlns="http://www.w3.org/2000/svg">
<g clip-path="url(#clip0)">
<path d="M22.6354 34.8035C24.8507 32.6304 27.8186 31.3635 30.9462 31.2483C34.0738 31.1331 37.1304 32.1851 39.5019 34.1892C41.8698 32.1889 44.9229 31.1369 48.0505 31.2521C51.1746 31.3635 54.1425 32.6304 56.3577 34.7958C58.573 36.9612 59.8688 39.8675 59.993 42.9313C60.1173 45.9951 59.0523 48.9936 57.0181 51.3241L42.2 65.9058C41.5184 66.5738 40.606 66.9654 39.6439 67C38.6818 67.0346 37.7411 66.7121 37.0097 66.0978L36.8003 65.9096L21.9858 51.3202C19.9516 48.9936 18.8901 45.9989 19.0108 42.9352C19.1279 39.8752 20.4237 36.9689 22.6354 34.8035ZM25.3335 37.4488C23.7715 38.9807 22.8733 41.0424 22.82 43.2039C22.7668 45.3693 23.5691 47.4694 25.053 49.0704L25.3299 49.3583L39.4984 63.2567L49.6161 53.3282L42.8709 46.7131L40.8474 48.698C40.3149 49.2201 39.6865 49.6348 38.9907 49.915C38.2949 50.1992 37.5529 50.3412 36.8003 50.345C35.2809 50.345 33.8253 49.7538 32.7532 48.7018C31.6775 47.6498 31.0775 46.2216 31.074 44.732C31.0704 43.2423 31.6775 41.8141 32.7496 40.7621L36.7612 36.8268C35.1637 35.579 33.1685 34.9263 31.1272 34.9916C29.0859 35.0569 27.1369 35.8324 25.6246 37.18L25.3335 37.4488ZM41.5255 42.7432C41.884 42.3938 42.3704 42.1942 42.8745 42.1942C43.3786 42.1942 43.865 42.39 44.2235 42.7432L52.3177 50.6829L53.6668 49.3622C55.2537 47.8073 56.1554 45.7033 56.1838 43.5034C56.2122 41.3035 55.3602 39.1803 53.8123 37.5908C52.2645 35.9975 50.1415 35.0646 47.9014 34.9878C45.6613 34.911 43.478 35.6981 41.8166 37.18L41.5255 37.4526L35.4548 43.4074C35.1246 43.7299 34.9258 44.1637 34.8974 44.6206C34.869 45.0775 35.0146 45.5305 35.3057 45.8914L35.4548 46.0527C35.785 46.3752 36.2252 46.571 36.6938 46.5979C37.1624 46.6247 37.6204 46.4827 37.9896 46.1986L38.1564 46.0527L41.5255 42.7432Z" fill="#333333"/>
<path d="M39.4982 30.3844C44.3018 30.3844 48.1959 26.4928 48.1959 21.6922C48.1959 16.8916 44.3018 13 39.4982 13C34.6946 13 30.8005 16.8916 30.8005 21.6922C30.8005 26.4928 34.6946 30.3844 39.4982 30.3844Z" fill="#FF6B00"/>
</g>
<defs>
<clipPath id="clip0">
<rect width="41" height="54" fill="white" transform="translate(19 13)"/>
</clipPath>
</defs>
</svg>
