<svg width="80" height="80" viewBox="0 0 80 80" fill="none" xmlns="http://www.w3.org/2000/svg">
<g clip-path="url(#clip0)">
<path d="M25.5 20.5989V57.4011H52.5V20.5989H25.5ZM23.2518 16H54.7518C55.3482 16 55.92 16.2437 56.3435 16.6739C56.7671 17.104 57.0035 17.6919 57.0035 18.3013V59.7023C57.0035 60.3117 56.7671 60.896 56.3435 61.3297C55.92 61.7598 55.3482 62.0036 54.7518 62.0036H23.2518C22.6553 62.0036 22.0835 61.7598 21.66 61.3297C21.2365 60.8996 21 60.3117 21 59.7023V18.3013C21 17.6919 21.2365 17.1076 21.66 16.6739C22.08 16.2437 22.6518 16 23.2518 16ZM39 50.5009C39.5965 50.5009 40.1682 50.7446 40.5918 51.1748C41.0153 51.6049 41.2518 52.1928 41.2518 52.8022C41.2518 53.4115 41.0153 53.9958 40.5918 54.4295C40.1682 54.8597 39.5965 55.1034 39 55.1034C38.4035 55.1034 37.8318 54.8597 37.4082 54.4295C36.9882 53.9994 36.7482 53.4115 36.7482 52.8022C36.7482 52.1928 36.9847 51.6085 37.4082 51.1748C37.8318 50.7446 38.4035 50.5009 39 50.5009Z" fill="#333333"/>
<path d="M47.7494 29.0118H44.0012V27.8504C44.0012 26.6173 43.4753 25.4344 42.5365 24.5634C41.5976 23.6924 40.3271 23.2013 39 23.2013C37.6729 23.2013 36.4024 23.6924 35.4635 24.5634C34.5247 25.4344 33.9988 26.6173 33.9988 27.8504V29.0118H30.2506C29.9188 29.0118 29.6012 29.1336 29.3682 29.3523C29.1353 29.571 29.0012 29.8649 29.0012 30.1731V42.9519C29.0012 43.8767 29.3965 44.7621 30.0988 45.4145C30.8012 46.0669 31.7541 46.4361 32.7494 46.4361H45.2506C46.2459 46.4361 47.1988 46.0704 47.9012 45.4145C48.6035 44.7621 48.9988 43.8731 48.9988 42.9519V30.1731C48.9988 29.8649 48.8682 29.571 48.6318 29.3523C48.3988 29.1336 48.0812 29.0118 47.7494 29.0118ZM36.5012 27.8504C36.5012 27.2339 36.7659 26.6424 37.2318 26.2087C37.7012 25.7714 38.3365 25.5276 39 25.5276C39.6635 25.5276 40.2988 25.7714 40.7682 26.2087C41.2376 26.646 41.4988 27.2339 41.4988 27.8504V29.0118H36.5012V27.8504ZM46.5 42.9519C46.5 43.2602 46.3694 43.5541 46.1329 43.7728C45.9 43.9914 45.5788 44.1133 45.2471 44.1133H32.7494C32.4176 44.1133 32.1 43.9914 31.8671 43.7728C31.6341 43.5541 31.5 43.2602 31.5 42.9519V31.3345H33.9988V32.4959C33.9988 32.8042 34.1294 33.0981 34.3659 33.3168C34.5988 33.5354 34.9165 33.6573 35.2482 33.6573C35.58 33.6573 35.8976 33.5354 36.1306 33.3168C36.3635 33.0981 36.4976 32.8042 36.4976 32.4959V31.3345H41.4988V32.4959C41.4988 32.8042 41.6294 33.0981 41.8659 33.3168C42.0988 33.5354 42.42 33.6573 42.7482 33.6573C43.0765 33.6573 43.3976 33.5354 43.6306 33.3168C43.8635 33.0981 43.9976 32.8042 43.9976 32.4959V31.3345H46.4965V42.9519H46.5Z" fill="#FF6B00"/>
</g>
<defs>
<clipPath id="clip0">
<rect width="36" height="46" fill="white" transform="translate(21 16)"/>
</clipPath>
</defs>
</svg>
