<svg width="24" height="24" viewBox="0 0 24 24" fill="none" xmlns="http://www.w3.org/2000/svg">
<mask id="mask0" mask-type="alpha" maskUnits="userSpaceOnUse" x="1" y="1" width="22" height="22">
<rect x="1" y="1" width="22" height="22" rx="2.5" fill="#C4C4C4"/>
</mask>
<g mask="url(#mask0)">
<path d="M22.12 1H1.88C1.39325 1 1 1.39325 1 1.88V22.12C1 22.6067 1.39325 23 1.88 23H22.12C22.6067 23 23 22.6067 23 22.12V1.88C23 1.39325 22.6067 1 22.12 1ZM16.5925 17.104C15.476 18.1325 13.9525 18.7375 12.1348 18.7375C9.503 18.7375 7.226 17.2277 6.11775 15.0277C5.64555 14.0883 5.39974 13.0514 5.4 12C5.4 10.911 5.66125 9.8825 6.11775 8.97225C7.226 6.7695 9.503 5.25975 12.1348 5.25975C13.9497 5.25975 15.4732 5.928 16.642 7.01425L14.7115 8.9475C14.013 8.27925 13.1248 7.941 12.1375 7.941C10.383 7.941 8.898 9.12625 8.36725 10.7185C8.2325 11.1228 8.1555 11.5545 8.1555 12C8.1555 12.4455 8.2325 12.8772 8.36725 13.2815C8.898 14.8737 10.383 16.059 12.1348 16.059C13.0423 16.059 13.8122 15.8198 14.4145 15.4155C15.1295 14.937 15.6025 14.2247 15.7593 13.3805H12.1348V10.7735H18.479C18.5588 11.2162 18.6 11.6755 18.6 12.1512C18.6 14.2055 17.8657 15.9298 16.5925 17.104Z" fill="#DB4A39"/>
</g>
</svg>
