<svg width="32" height="32" viewBox="0 0 32 32" fill="none" xmlns="http://www.w3.org/2000/svg">
<path d="M0 16C0 7.16344 7.16344 0 16 0C24.8366 0 32 7.16344 32 16C32 24.8366 24.8366 32 16 32C7.16344 32 0 24.8366 0 16Z" fill="#FF5D8F"/>
<path d="M13.1572 24.7714V21.7047C13.1572 20.9246 13.7931 20.2908 14.581 20.2856H17.4671C18.2587 20.2856 18.9005 20.9209 18.9005 21.7047V21.7047V24.7809C18.9003 25.4432 19.4343 25.9845 20.103 26H22.0271C23.9451 26 25.5 24.4607 25.5 22.5618V22.5618V13.8378C25.4898 13.0908 25.1355 12.3893 24.538 11.933L17.9577 6.6853C16.8049 5.77157 15.1662 5.77157 14.0134 6.6853L7.46203 11.9426C6.86226 12.397 6.50739 13.0997 6.5 13.8474V22.5618C6.5 24.4607 8.05488 26 9.97291 26H11.897C12.5824 26 13.138 25.4499 13.138 24.7714V24.7714" stroke="white" stroke-width="1.5" stroke-linecap="round" stroke-linejoin="round"/>
</svg>
