<svg width="24" height="24" viewBox="0 0 24 24" fill="none" xmlns="http://www.w3.org/2000/svg">
<rect width="24" height="24" rx="8" fill="#019748" fill-opacity="0.1"/>
<path d="M13.9908 8.48834C13.9908 9.58782 13.0995 10.4791 12.0001 10.4791C10.9006 10.4791 10.0093 9.58782 10.0093 8.48834C10.0093 7.38886 10.9006 6.49756 12.0001 6.49756C13.0995 6.49756 13.9908 7.38886 13.9908 8.48834Z" fill="#019748"/>
<path fill-rule="evenodd" clip-rule="evenodd" d="M12.0001 6.99539C11.1755 6.99539 10.507 7.66387 10.507 8.48848C10.507 9.31309 11.1755 9.98157 12.0001 9.98157C12.8247 9.98157 13.4932 9.31309 13.4932 8.48848C13.4932 7.66387 12.8247 6.99539 12.0001 6.99539ZM9.5116 8.48848C9.5116 7.11413 10.6257 6 12.0001 6C13.3744 6 14.4886 7.11413 14.4886 8.48848C14.4886 9.86283 13.3744 10.977 12.0001 10.977C10.6257 10.977 9.5116 9.86283 9.5116 8.48848Z" fill="#019748"/>
<path d="M7.355 14.8315V15.7878C7.355 16.7041 8.09775 17.4468 9.01398 17.4468H14.9863C15.9026 17.4468 16.6453 16.7041 16.6453 15.7878V14.9054C16.6453 14.153 16.1918 13.4734 15.4784 13.2342C14.4588 12.8922 13.1656 12.4699 12.0002 12.4699C10.8588 12.4699 9.33639 12.875 8.43346 13.2129C7.76409 13.4634 7.355 14.1168 7.355 14.8315Z" fill="#019748"/>
<path fill-rule="evenodd" clip-rule="evenodd" d="M12.0002 12.9676C10.9438 12.9676 9.4853 13.3506 8.60791 13.679C8.15272 13.8494 7.85269 14.3025 7.85269 14.8315V15.7878C7.85269 16.4292 8.37262 16.9491 9.01398 16.9491H14.9863C15.6277 16.9491 16.1476 16.4292 16.1476 15.7878V14.9054C16.1476 14.3503 15.8154 13.8721 15.3202 13.7061C14.2863 13.3593 13.0706 12.9676 12.0002 12.9676ZM8.25901 12.7468C9.18749 12.3993 10.7738 11.9722 12.0002 11.9722C13.2606 11.9722 14.6314 12.4252 15.6367 12.7623C16.5681 13.0747 17.143 13.9558 17.143 14.9054V15.7878C17.143 16.9789 16.1774 17.9445 14.9863 17.9445H9.01398C7.82288 17.9445 6.8573 16.9789 6.8573 15.7878V14.8315C6.8573 13.9312 7.37547 13.0775 8.25901 12.7468Z" fill="#019748"/>
</svg>
