<svg width="28" height="28" viewBox="0 0 28 28" fill="none" xmlns="http://www.w3.org/2000/svg">
<mask id="mask0_1396_32362" style="mask-type:alpha" maskUnits="userSpaceOnUse" x="7" y="7" width="14" height="14">
<path fill-rule="evenodd" clip-rule="evenodd" d="M7 7H21V20.9999H7V7Z" fill="white"/>
</mask>
<g mask="url(#mask0_1396_32362)">
<path fill-rule="evenodd" clip-rule="evenodd" d="M8.61079 9.09018C8.61216 9.09018 8.57801 9.12569 8.53498 9.16803C8.36971 9.32853 8.02756 9.66248 8.02414 10.3611C8.01868 11.3384 8.66133 13.153 11.7557 16.2467C14.8358 19.3254 16.6476 19.9756 17.627 19.9756H17.6413C18.34 19.9722 18.6732 19.6293 18.8344 19.4647C18.8836 19.4142 18.9232 19.3773 18.9512 19.3541C19.6314 18.6698 19.9797 18.1603 19.9763 17.8339C19.9715 17.5006 19.557 17.1065 18.984 16.5616C18.8016 16.3881 18.6036 16.1996 18.3946 15.9906C17.853 15.4504 17.5846 15.5426 16.9946 15.7502C16.1785 16.0364 15.0584 16.4256 13.3183 14.6848C11.5754 12.9433 11.9654 11.8247 12.2509 11.0086C12.4571 10.4185 12.5514 10.1494 12.0091 9.60717C11.7967 9.39545 11.6062 9.19467 11.4307 9.01028C10.8891 8.4407 10.4984 8.02889 10.1672 8.02411H10.1617C9.83462 8.02411 9.32651 8.37377 8.60737 9.09291C8.60942 9.09086 8.61011 9.09018 8.61079 9.09018V9.09018ZM17.628 20.9999C15.9261 20.9999 13.7072 19.6449 11.0321 16.9712C8.34682 14.2866 6.98981 12.0609 7.00006 10.3556C7.0062 9.22874 7.59695 8.65165 7.8189 8.43516C7.83051 8.42082 7.87012 8.38189 7.88378 8.36823C8.86312 7.38821 9.52352 6.9921 10.1805 6.99962C10.9434 7.00986 11.4863 7.5808 12.1733 8.30403C12.3434 8.48296 12.5278 8.6776 12.7333 8.88248C13.7304 9.87958 13.4463 10.693 13.2182 11.3459C12.9696 12.0582 12.7545 12.6728 14.0425 13.9608C15.3319 15.2489 15.9466 15.0337 16.6562 14.7831C17.3097 14.555 18.1211 14.2695 19.1195 15.2666C19.3217 15.4688 19.5136 15.6511 19.6905 15.8198C20.4171 16.5102 20.9908 17.0559 21.0003 17.8208C21.0085 18.473 20.6124 19.1375 19.6345 20.1162L19.2015 19.8225L19.5675 20.1804C19.351 20.4023 18.7746 20.9938 17.6471 20.9999H17.628Z" fill="#FF5D8F"/>
</g>
<rect x="1.6" y="1.6" width="24.8" height="24.7999" rx="12.4" stroke="#FF5D8F" stroke-width="1.2"/>
</svg>
