<svg width="18" height="19" viewBox="0 0 18 19" fill="none" xmlns="http://www.w3.org/2000/svg">
<mask id="mask0_192_8891" style="mask-type:alpha" maskUnits="userSpaceOnUse" x="1" y="2" width="16" height="16">
<path fill-rule="evenodd" clip-rule="evenodd" d="M1.50049 2.34082H16.4702V17.3032H1.50049V2.34082Z" fill="white"/>
</mask>
<g mask="url(#mask0_192_8891)">
<path fill-rule="evenodd" clip-rule="evenodd" d="M5.73799 3.46582C3.84724 3.46582 2.62549 4.76107 2.62549 6.76507V12.8791C2.62549 14.8838 3.84724 16.1783 5.73799 16.1783H12.2255C14.1207 16.1783 15.3455 14.8838 15.3455 12.8791V6.76507C15.3455 4.76107 14.1207 3.46582 12.2255 3.46582H5.73799ZM12.2255 17.3033H5.73799C3.20299 17.3033 1.50049 15.5251 1.50049 12.8791V6.76507C1.50049 4.11907 3.20299 2.34082 5.73799 2.34082H12.2255C14.7642 2.34082 16.4705 4.11907 16.4705 6.76507V12.8791C16.4705 15.5251 14.7642 17.3033 12.2255 17.3033Z" fill="#959595"/>
</g>
<path fill-rule="evenodd" clip-rule="evenodd" d="M3.96143 13.726C3.82193 13.726 3.68318 13.675 3.57443 13.5715C3.34868 13.3585 3.33968 13.0015 3.55343 12.7772L4.69943 11.5675C5.30618 10.9232 6.32993 10.8917 6.97718 11.4992L7.69568 12.2282C7.89593 12.4307 8.22143 12.4345 8.42243 12.2365C8.49818 12.1472 10.1317 10.1635 10.1317 10.1635C10.4422 9.78698 10.8802 9.55448 11.3669 9.50648C11.8544 9.46373 12.3277 9.60548 12.7049 9.91523C12.7372 9.94148 12.7664 9.96698 14.4134 11.6582C14.6302 11.8802 14.6264 12.2365 14.4037 12.4532C14.1817 12.6715 13.8247 12.6647 13.6079 12.4427C13.6079 12.4427 12.0712 10.8655 11.9617 10.759C11.8454 10.6637 11.6587 10.6082 11.4749 10.6262C11.2882 10.645 11.1202 10.7342 11.0009 10.879C9.25793 12.9932 9.23693 13.0135 9.20843 13.0412C8.56493 13.6727 7.52618 13.6622 6.89393 13.0172C6.89393 13.0172 6.19643 12.3092 6.18443 12.295C6.01118 12.1345 5.70218 12.145 5.51693 12.3407L4.36943 13.5505C4.25843 13.6675 4.10993 13.726 3.96143 13.726Z" fill="#959595"/>
<path fill-rule="evenodd" clip-rule="evenodd" d="M6.41827 6.9375C6.00352 6.9375 5.66602 7.275 5.66602 7.6905C5.66602 8.106 6.00352 8.44425 6.41902 8.44425C6.83452 8.44425 7.17277 8.106 7.17277 7.6905C7.17277 7.27575 6.83452 6.93825 6.41827 6.9375ZM6.41902 9.56925C5.38327 9.56925 4.54102 8.72625 4.54102 7.6905C4.54102 6.65475 5.38327 5.8125 6.41902 5.8125C7.45552 5.81325 8.29777 6.65625 8.29777 7.6905C8.29777 8.72625 7.45477 9.56925 6.41902 9.56925Z" fill="#959595"/>
</svg>
