<svg width="80" height="80" viewBox="0 0 80 80" fill="none" xmlns="http://www.w3.org/2000/svg">
<path d="M28.1785 18V22.6314H23.5892V31.8941C23.5892 37.0132 27.6952 41.1569 32.7677 41.1569C37.8402 41.1569 41.9462 37.0132 41.9462 31.8941V22.6314H37.357V18H44.2427C45.509 18 46.5355 19.0359 46.5355 20.3138V31.8904C46.5355 38.775 41.5753 44.4877 35.0642 45.5917V49.2552C35.0642 53.7316 38.6607 57.3611 43.0963 57.3611C46.5317 57.3611 49.4651 55.1834 50.6115 52.121C48.2063 51.0435 46.5355 48.6125 46.5355 45.7883C46.5355 41.9508 49.6187 38.8393 53.4212 38.8393C57.2237 38.8393 60.3069 41.9508 60.3069 45.7883C60.3069 48.9641 58.1978 51.6408 55.3131 52.4688C53.9045 57.9508 48.9668 61.9962 43.0963 61.9962C36.1244 61.9962 30.475 56.2949 30.475 49.259V45.5955C23.9601 44.4953 19 38.7788 19 31.8941V20.3138C19 19.0359 20.0265 18 21.2927 18H28.1785ZM53.4212 43.4745C52.1549 43.4745 51.1284 44.5104 51.1284 45.7883C51.1284 47.0662 52.1549 48.1021 53.4212 48.1021C54.6875 48.1021 55.7139 47.0662 55.7139 45.7883C55.7139 44.5104 54.6875 43.4745 53.4212 43.4745Z" fill="#333333"/>
<path d="M53.4886 53.1569C57.637 53.1569 61 49.7631 61 45.5766C61 41.3901 57.637 37.9962 53.4886 37.9962C49.3402 37.9962 45.9772 41.3901 45.9772 45.5766C45.9772 49.7631 49.3402 53.1569 53.4886 53.1569Z" fill="#FF6B00"/>
</svg>
