<svg width="18" height="19" viewBox="0 0 18 19" fill="none" xmlns="http://www.w3.org/2000/svg">
<path fill-rule="evenodd" clip-rule="evenodd" d="M12.7984 9.61842L15.7194 12.5395C15.9159 12.7643 15.9843 13.0738 15.901 13.3605L15.3642 15.2316C15.2815 15.5147 15.0619 15.7372 14.78 15.8237L12.8615 16.4C12.5558 16.4829 12.229 16.3989 12.001 16.1789L9.07206 13.25C8.67399 12.8523 8.13478 12.6281 7.57206 12.6263C7.30118 12.6275 7.0331 12.6812 6.78259 12.7842C6.53111 12.8831 6.26333 12.934 5.99311 12.9342C5.42969 12.936 4.8892 12.7112 4.49311 12.3105L2.12469 9.94211C1.58666 9.40596 1.37594 8.62328 1.57206 7.88947L2.49574 4.47105C2.68345 3.7293 3.25702 3.14668 3.99574 2.94737L7.44574 2.07105C7.62622 2.02415 7.8119 2.00028 7.99837 2C8.5611 2.00175 9.1003 2.22594 9.49837 2.62368L11.8668 4.99211C12.4736 5.59907 12.6572 6.51075 12.3326 7.30526C12.008 8.09977 12.1916 9.01145 12.7984 9.61842ZM12.7352 15.2395L14.3142 14.7737L14.7484 13.2263L11.9615 10.4395C11.0131 9.49675 10.7292 8.07401 11.2431 6.83947C11.3787 6.48375 11.2921 6.08151 11.022 5.81316L8.65362 3.44474C8.47943 3.26615 8.23993 3.16636 7.99047 3.16842C7.90933 3.15643 7.82687 3.15643 7.74573 3.16842L4.30362 4.09211C3.98015 4.17913 3.72749 4.43179 3.64047 4.75526L2.71678 8.22895C2.63015 8.55357 2.72346 8.89975 2.96152 9.13684L5.32994 11.5053C5.50413 11.6839 5.74364 11.7836 5.9931 11.7816C6.11421 11.7804 6.23427 11.7591 6.34836 11.7184C6.73837 11.5552 7.15717 11.472 7.57994 11.4737C8.46825 11.4637 9.32271 11.8141 9.94836 12.4447L12.7352 15.2395Z" fill="#717171"/>
<path d="M7.72209 5.72639L5.27473 8.17375C5.04384 8.40493 5.04384 8.77943 5.27473 9.0106C5.5059 9.24148 5.8804 9.24148 6.11157 9.0106L8.55894 6.56323C8.67179 6.45326 8.73544 6.30238 8.73544 6.14481C8.73544 5.98724 8.67179 5.83635 8.55894 5.72639C8.32776 5.4955 7.95327 5.4955 7.72209 5.72639Z" fill="#717171"/>
</svg>
