<svg width="37" height="37" viewBox="0 0 37 37" fill="none" xmlns="http://www.w3.org/2000/svg">
<rect width="37" height="37" rx="8" fill="#019748" fill-opacity="0.1"/>
<g clip-path="url(#clip0_3107:13239)">
<path d="M18.4999 16.23C17.2474 16.23 16.2295 17.2479 16.2295 18.5004C16.2295 19.753 17.2474 20.7709 18.4999 20.7709C19.7525 20.7709 20.7704 19.753 20.7704 18.5004C20.7704 17.2479 19.7525 16.23 18.4999 16.23Z" fill="#019748"/>
<path d="M18.4998 12.8242C14.7157 12.8242 11.4841 15.1779 10.1748 18.5004C11.4841 21.8228 14.7157 24.1765 18.4998 24.1765C22.2877 24.1765 25.5155 21.8228 26.8248 18.5004C25.5155 15.1779 22.2877 12.8242 18.4998 12.8242ZM18.4998 22.2844C16.411 22.2844 14.7157 20.5891 14.7157 18.5003C14.7157 16.4115 16.411 14.7163 18.4998 14.7163C20.5886 14.7163 22.2839 16.4115 22.2839 18.5004C22.2839 20.5892 20.5886 22.2844 18.4998 22.2844Z" fill="#019748"/>
</g>
<defs>
<clipPath id="clip0_3107:13239">
<rect width="16.65" height="16.65" fill="white" transform="translate(10.1748 10.1753)"/>
</clipPath>
</defs>
</svg>
