<svg width="18" height="18" viewBox="0 0 18 18" fill="none" xmlns="http://www.w3.org/2000/svg">
<path d="M0.310364 9.93109H1.92412C2.34819 13.1326 4.86736 15.6518 8.06891 16.0759V17.6896C8.06946 17.8609 8.20816 17.9995 8.37927 18H9.62073C9.79184 17.9995 9.93054 17.8609 9.93109 17.6896V16.0759C13.1326 15.6518 15.6518 13.1326 16.0759 9.93109H17.6896C17.8609 9.93054 17.9995 9.79184 18 9.62073V8.37927C17.9995 8.20816 17.8609 8.06946 17.6896 8.06891H16.0759C15.6518 4.86736 13.1326 2.34819 9.93109 1.92412V0.310364C9.93054 0.139114 9.79184 0.000549316 9.62073 0H8.37927C8.20816 0.000549316 8.06946 0.139114 8.06891 0.310364V1.92412C4.86736 2.34819 2.34819 4.86736 1.92412 8.06891H0.310364C0.139114 8.06946 0.000549316 8.20816 0 8.37927V9.62073C0.000549316 9.79184 0.139114 9.93054 0.310364 9.93109ZM9 3.72409C11.9137 3.72409 14.2759 6.08629 14.2759 9C14.2759 11.9137 11.9137 14.2759 9 14.2759C6.08629 14.2759 3.72409 11.9137 3.72409 9C3.72821 6.08794 6.08794 3.72821 9 3.72409Z" fill="#888888"/>
<path d="M11.4831 8.99986C11.4831 10.3711 10.3716 11.4826 9.00035 11.4826C7.62912 11.4826 6.51758 10.3711 6.51758 8.99986C6.51758 7.62863 7.62912 6.51709 9.00035 6.51709C10.3716 6.51709 11.4831 7.62863 11.4831 8.99986Z" fill="#888888"/>
</svg>
