<svg width="28" height="28" viewBox="0 0 28 28" fill="none" xmlns="http://www.w3.org/2000/svg">
<path d="M19.6596 19.6512C17.8444 21.4664 13.995 23.0358 10.8708 21.1051C10.697 20.9976 10.61 20.9439 10.5443 20.9179C10.4186 20.8681 10.3233 20.8537 10.1885 20.8641C10.118 20.8696 10.0382 20.8903 9.87846 20.9317C8.87339 21.1922 8.37086 21.3224 8.00882 21.2488C7.38046 21.1209 6.88938 20.6298 6.7615 20.0014C6.68782 19.6394 6.81807 19.1369 7.07857 18.1318C7.11998 17.972 7.14069 17.8922 7.14611 17.8214C7.15645 17.6867 7.14176 17.5902 7.09174 17.4647C7.06551 17.3988 7.01186 17.3125 6.90457 17.1398C4.96725 14.0224 6.46657 10.2432 8.35907 8.35067C11.4796 5.23012 16.539 5.23012 19.6596 8.35067C22.7801 11.4712 22.7801 16.5306 19.6596 19.6512Z" stroke="#FF5D8F" stroke-width="1.5"/>
<path d="M11.6352 13.8874C11.6352 14.3288 11.2775 14.6865 10.8362 14.6865C10.3949 14.6865 10.0371 14.3288 10.0371 13.8874C10.0371 13.4461 10.3949 13.0884 10.8362 13.0884C11.2775 13.0884 11.6352 13.4461 11.6352 13.8874Z" fill="#FF5D8F"/>
<path d="M14.8315 13.8874C14.8315 14.3288 14.4738 14.6865 14.0324 14.6865C13.5911 14.6865 13.2334 14.3288 13.2334 13.8874C13.2334 13.4461 13.5911 13.0884 14.0324 13.0884C14.4738 13.0884 14.8315 13.4461 14.8315 13.8874Z" fill="#FF5D8F"/>
<path d="M18.0278 13.8874C18.0278 14.3288 17.67 14.6865 17.2287 14.6865C16.7874 14.6865 16.4296 14.3288 16.4296 13.8874C16.4296 13.4461 16.7874 13.0884 17.2287 13.0884C17.67 13.0884 18.0278 13.4461 18.0278 13.8874Z" fill="#FF5D8F"/>
<rect x="1.6" y="1.6" width="24.8" height="24.8" rx="12.4" stroke="#FF5D8F" stroke-width="1.2"/>
</svg>
