<svg width="46" height="43" viewBox="0 0 46 43" fill="none" xmlns="http://www.w3.org/2000/svg">
<path fill-rule="evenodd" clip-rule="evenodd" d="M44.7956 18.676C45.5045 16.542 45.8846 14.4435 45.8846 12.4389C45.8851 7.77819 43.054 3.56369 38.6824 1.7172C32.6339 -0.837561 25.615 1.89108 23.0051 7.81183C21.1177 3.53508 16.8147 0.764977 12.0554 0.76262C5.46426 0.759406 0.118518 5.9871 0.115234 12.4389C0.115234 14.5404 0.54878 16.7435 1.34441 18.9803H11.4226L15.7667 10.4153C16.0411 9.87528 16.7106 9.65523 17.2623 9.92371C17.5491 10.0633 17.7607 10.3169 17.8434 10.6198L21.8487 25.2965L26.7159 14.1797C26.9146 13.7895 27.3143 13.536 27.7593 13.5178C28.2122 13.5248 28.6159 13.7992 28.7808 14.2122L31.5596 21.1497L33.5207 19.0343C33.732 18.8061 34.0321 18.6759 34.3468 18.676H44.7956ZM43.9611 20.8613H34.8428L32.0043 23.9231C31.7463 24.2051 31.3562 24.3343 30.9763 24.2636C30.5955 24.1956 30.2778 23.939 30.1372 23.5858L27.6952 17.4873L22.6269 29.0616C22.4517 29.4631 22.0493 29.7238 21.6035 29.725H21.523C21.0486 29.6914 20.6481 29.367 20.5256 28.917L16.4514 13.9803L13.1145 20.559C12.926 20.9305 12.5389 21.1655 12.1151 21.1657H2.23065C5.89796 29.2371 13.9202 37.4603 23.0058 42.714C32.5814 37.2746 40.4755 28.956 43.9611 20.8613Z" fill="white"/>
</svg>
