<svg width="57" height="56" viewBox="0 0 57 56" fill="none" xmlns="http://www.w3.org/2000/svg">
<rect x="0.5" width="56" height="56" rx="28" fill="#019748" fill-opacity="0.2"/>
<mask id="mask0" style="mask-type:alpha" maskUnits="userSpaceOnUse" x="0" y="0" width="57" height="56">
<rect x="0.5" width="56" height="56" rx="28" fill="#EDEDED"/>
</mask>
<g mask="url(#mask0)">
<path d="M27.7962 9.45386C27.7962 9.45386 31.6933 9.91852 31.9812 13.0898L28.2268 14.8236L24 13.0898C24 11.2563 25.3137 9.72967 27.0512 9.3999C27.2525 9.40719 27.5553 9.45386 27.7962 9.45386Z" fill="#4B4B4B"/>
<path d="M32.9204 13.0898L31.3815 14.0667L30.1034 13.0898C30.1034 11.2561 28.7898 9.72928 27.0518 9.40061C27.28 9.3565 27.5148 9.33398 27.756 9.33398H29.1645C31.2387 9.33398 32.9204 11.0157 32.9204 13.0898Z" fill="#333333"/>
<path d="M14.6108 29.7407V37.7844C14.6108 39.3402 15.872 40.6013 17.4277 40.6013H39.4935C41.0492 40.6013 42.3103 39.3401 42.3103 37.7844V30.0379L14.6108 29.7407Z" fill="#333333"/>
<path d="M42.6859 52.9966V54.1233C42.6859 55.1608 41.8455 56.0013 40.8079 56.0013H13.5779C12.5404 56.0013 11.7 55.1609 11.7 54.1233V52.9966C11.7 48.8482 15.0633 45.4849 19.2116 45.4849H21.0135L27.991 48.2148L35.9075 45.4849L36.4656 45.5234C40.779 46.2339 42.6859 48.8482 42.6859 52.9966Z" fill="#019748"/>
<path d="M45.221 52.9966V54.1233C45.221 55.1608 44.3807 56.0013 43.3431 56.0013H40.5262C41.5638 56.0013 42.4042 55.1609 42.4042 54.1233V52.9966C42.4042 49.1712 39.6051 45.9543 35.9075 45.4849H37.7093C41.8577 45.4849 45.221 48.8482 45.221 52.9966Z" fill="#019748"/>
<path d="M32.0548 49.3335L29.7881 51.5983C29.0548 52.3317 27.866 52.3317 27.1327 51.5983L24.866 49.3335H32.0548Z" fill="#FCF1F2"/>
<path d="M38.5542 32.9955H41.0425C42.6241 32.9955 43.9063 31.7133 43.9063 30.1317C43.9063 29.0053 43.256 28.0308 42.3103 27.5631L41.1555 26.6079L38.5542 27.2679V32.9955Z" fill="#FFC3BD"/>
<path d="M41.0898 30.8356H38.5545C38.1655 30.8356 37.8503 30.5204 37.8503 30.1314C37.8503 29.7424 38.1656 29.4272 38.5545 29.4272H41.0898C41.4788 29.4272 41.794 29.7425 41.794 30.1314C41.794 30.5205 41.4788 30.8356 41.0898 30.8356Z" fill="#CC9E99"/>
<path d="M18.3672 27.2681L15.8789 26.3291L14.6111 27.5633C13.6655 28.031 13.0151 29.0055 13.0151 30.1319C13.0151 31.7135 14.2973 32.9957 15.8789 32.9957H18.3672V27.2681Z" fill="#FFC3BD"/>
<path d="M18.273 30.8356H15.8316C15.4427 30.8356 15.1274 30.5204 15.1274 30.1314C15.1274 29.7424 15.4427 29.4272 15.8316 29.4272H18.273C18.6619 29.4272 18.9772 29.7425 18.9772 30.1314C18.9773 30.5205 18.6619 30.8356 18.273 30.8356Z" fill="#CC9E99"/>
<path d="M35.908 45.4844L32.0555 49.3341H24.8667L21.0142 45.4844H23.9071C24.1663 45.4844 24.3766 45.274 24.3766 45.0149V40.7896H32.5457V45.0149C32.5457 45.274 32.756 45.4844 33.0152 45.4844H35.908Z" fill="#FFC3BD"/>
<path d="M38.5543 17.8789V31.1653C38.5543 33.214 37.9959 35.1324 37.0229 36.7763C35.1022 40.0218 20.8795 40.0218 18.9588 36.7763C17.9859 35.1323 17.4275 33.214 17.4275 31.1653V17.8789H38.5543Z" fill="#FFD5D0"/>
<path d="M39.4935 27.2686V31.1653C39.4935 33.2139 38.935 35.1323 37.962 36.7763C36.8174 37.1191 35.7265 36.1431 35.7836 35.5204C36.3582 34.1843 36.6765 32.712 36.6765 31.1653V25.3491L39.4935 27.2686Z" fill="#FFC3BD"/>
<path d="M40.4325 22.4789L39.4935 27.2676H37.4277C36.4944 27.2676 35.7376 26.5109 35.7376 25.5775C35.7376 25.1109 35.548 24.6883 35.2428 24.3822C34.9367 24.0771 34.5142 23.8874 34.0475 23.8874H31.6531C29.8897 23.8874 28.4606 22.4583 28.4606 20.6949C28.4606 21.5766 28.1038 22.3747 27.5254 22.9522C26.9479 23.5307 26.1498 23.8875 25.2681 23.8875H22.8737C21.9403 23.8875 21.1836 24.6443 21.1836 25.5776C21.1836 26.0443 20.9939 26.4668 20.6887 26.7729C20.3827 27.0781 19.9601 27.2677 19.4934 27.2677H15.8784C15.423 27.2677 14.9929 27.3738 14.6108 27.5635V22.479C14.6108 17.2931 18.8146 13.0894 24.0005 13.0894H30.3855C35.5715 13.0893 40.4325 17.293 40.4325 22.4789Z" fill="#4B4B4B"/>
<path d="M42.3103 22.479V27.5635C41.9281 27.3738 41.4981 27.2677 41.0427 27.2677H39.4934V22.479C39.4934 17.2931 35.2897 13.0894 30.1038 13.0894H32.9206C38.1065 13.0894 42.3103 17.2931 42.3103 22.479Z" fill="#333333"/>
<path d="M36.958 50.3667C36.1802 50.3667 35.5496 50.9972 35.5496 51.7752V53.1836L36.958 53.8119L38.3665 53.1836V51.7752C38.3665 50.9973 37.736 50.3667 36.958 50.3667Z" fill="#F0F7F7"/>
<path d="M37.9906 53.1841H33.3897C33.1303 53.1841 32.9202 53.3943 32.9202 53.6536V56.0009H38.4601V53.6535C38.4601 53.3943 38.2499 53.1841 37.9906 53.1841Z" fill="white"/>
<path d="M40.9958 53.6536V56.001H38.179V53.6536C38.179 53.3944 37.9686 53.1841 37.7095 53.1841H40.5263C40.7855 53.1842 40.9958 53.3944 40.9958 53.6536Z" fill="#F0F7F7"/>
<path d="M35.0087 38.4395C33.0125 40.4367 31.4233 42.0781 28.3773 42.0781C27.9002 42.0781 27.052 42.1089 27.052 42.1089C23.6042 41.6695 20.6528 39.6385 18.96 36.7754L21.4389 35.3464C22.7225 34.6064 24.1778 34.2168 25.6595 34.2168H31.2615C32.7431 34.2168 34.1985 34.6064 35.4821 35.3464L35.7836 35.5201C35.7835 35.5201 35.6632 37.7859 35.0087 38.4395Z" fill="#FCF1F2"/>
<path d="M37.961 36.7755C37.4878 37.5764 36.9159 38.3125 36.2615 38.9661C34.2652 40.9632 31.5066 42.198 28.4605 42.198C27.9845 42.198 27.515 42.1679 27.054 42.1088C30.9864 41.6065 34.2718 39.0346 35.7835 35.52L37.961 36.7755Z" fill="#F4E5E0"/>
<path d="M33.8595 32.2441C33.4705 32.2441 33.1553 31.9288 33.1553 31.5399V30.1314C33.1553 29.7424 33.4705 29.4272 33.8595 29.4272C34.2484 29.4272 34.5637 29.7425 34.5637 30.1314V31.5399C34.5638 31.9288 34.2485 32.2441 33.8595 32.2441Z" fill="#CC9E99"/>
<path d="M23.0616 32.2441C22.6727 32.2441 22.3574 31.9288 22.3574 31.5399V30.1314C22.3574 29.7424 22.6727 29.4272 23.0616 29.4272C23.4505 29.4272 23.7658 29.7425 23.7658 30.1314V31.5399C23.7658 31.9288 23.4505 32.2441 23.0616 32.2441Z" fill="#CC9E99"/>
</g>
</svg>
