<svg width="24" height="24" viewBox="0 0 24 24" fill="none" xmlns="http://www.w3.org/2000/svg">
<g clip-path="url(#clip0_1636_8661)">
<path d="M20.7499 18.5809V5.99995C20.7499 3.51349 19.2264 3.08899 14.9819 3.01596L15.6819 1.26149C17.0249 1.48447 17.6999 1.79999 17.7499 2C17.7499 2.27614 17.9737 2.50001 18.2499 2.50001C18.526 2.50001 18.7499 2.27614 18.7499 2C18.7499 0.260014 14.5064 0 11.975 0C9.95396 0 5.25 0.194998 5.25 2C5.25 2.27614 5.47387 2.50001 5.75001 2.50001C6.02615 2.50001 6.25002 2.27614 6.25002 2C6.30004 1.79999 6.97002 1.481 8.31499 1.25751L9.01797 3.01451C4.77502 3.08899 3.25 3.51349 3.25 5.99995V18.5809C3.25 20.0809 4.37499 21.5578 5.66447 21.9163L3.96446 23.0883C3.73722 23.2453 3.68022 23.5568 3.8372 23.7841C3.99418 24.0113 4.30566 24.0683 4.53296 23.9114L7.30494 21.9999H16.6949L19.4659 23.9114C19.6931 24.0683 20.0046 24.0114 20.1616 23.7841C20.3186 23.5568 20.2616 23.2453 20.0344 23.0883L18.2894 21.8848C20.0794 21.4728 20.7499 19.9879 20.7499 18.5809ZM11.975 0.999977C12.8712 0.996461 13.767 1.03869 14.659 1.12649L13.909 3.00396C13.316 2.99998 12.6869 2.99998 11.9999 2.99998C11.313 2.99998 10.6839 2.99998 10.0905 3.00396L9.33845 1.12396C10.2146 1.03804 11.0946 0.996648 11.975 0.999977ZM19.7499 18.5809C19.7499 19.4844 19.4249 20.9998 17.2499 20.9998H6.24998C5.37698 20.9998 4.24998 19.8268 4.24998 18.5809V5.99995C4.24998 4.18698 4.97396 3.99995 11.9999 3.99995C19.0258 3.99995 19.7499 4.18698 19.7499 5.99995V18.5809Z" fill="#FF5D8F"/>
<path d="M6.884 14.4999H17.0749C17.9354 14.4999 18.7484 13.7174 18.7484 12.8894V7.32899C18.7499 6.45651 17.9079 6 17.0749 6H6.884C5.93699 6 5.25 6.55898 5.25 7.32899V12.8894C5.25 13.7174 6.04401 14.4999 6.884 14.4999ZM6.24998 7.32899C6.24998 7.08951 6.63847 6.99997 6.88396 6.99997H17.0749C17.3569 6.99997 17.7484 7.11449 17.7484 7.32899L17.7499 12.8894C17.7499 13.1574 17.3749 13.4999 17.0749 13.4999H6.884C6.59399 13.4999 6.25002 13.1689 6.25002 12.8894V7.32899H6.24998Z" fill="#FF5D8F"/>
<path d="M16.75 16C15.6455 16 14.75 16.8954 14.75 18C14.75 19.1046 15.6455 20 16.75 20C17.8546 20 18.75 19.1046 18.75 18C18.75 16.8955 17.8546 16 16.75 16ZM16.75 19C16.1977 19 15.75 18.5523 15.75 18C15.75 17.4477 16.1977 17 16.75 17C17.3023 17 17.75 17.4477 17.75 18C17.75 18.5523 17.3023 19 16.75 19Z" fill="#FF5D8F"/>
<path d="M7.25002 16C6.14545 16 5.25 16.8954 5.25 18C5.25 19.1046 6.14545 20 7.25002 20C8.35458 20 9.25003 19.1046 9.25003 18C9.24998 16.8955 8.35458 16 7.25002 16ZM7.25002 19C6.69773 19 6.25003 18.5523 6.25003 18C6.25003 17.4477 6.69773 17 7.25002 17C7.8023 17 8.25 17.4477 8.25 18C8.25 18.5523 7.8023 19 7.25002 19Z" fill="#FF5D8F"/>
</g>
<defs>
<clipPath id="clip0_1636_8661">
<rect width="24" height="24" fill="white"/>
</clipPath>
</defs>
</svg>
