<svg width="24" height="24" viewBox="0 0 24 24" fill="none" xmlns="http://www.w3.org/2000/svg">
<path d="M20.6734 9.92079H20.614V8.46535C20.614 3.79007 16.824 0 12.1486 0C7.4733 0 3.68329 3.79007 3.68329 8.46535V9.92079H3.32688C2.01993 9.92079 1.01005 11.0792 1.01005 12.4159V16.1287C0.977132 17.4242 2.00072 18.5012 3.29623 18.5341C3.30647 18.5344 3.31665 18.5345 3.32688 18.5346H5.52488C5.83621 18.52 6.07676 18.2557 6.06209 17.9444C6.06158 17.9332 6.06073 17.922 6.05953 17.9108V10.6336C6.05953 10.2772 5.85162 9.92074 5.52488 9.92074H4.87141V8.46529C4.87141 4.44621 8.12956 1.18806 12.1486 1.18806C16.1677 1.18806 19.4259 4.44621 19.4259 8.46529V9.92074H18.7724C18.4457 9.92074 18.2377 10.2771 18.2377 10.6336V17.9108C18.2046 18.2208 18.4289 18.4989 18.7388 18.532C18.75 18.5332 18.7612 18.5341 18.7724 18.5346H19.4555L19.3961 18.6237C18.5048 19.8082 17.1062 20.502 15.6239 20.4949C15.2993 18.9037 13.7462 17.8767 12.1549 18.2013C10.7942 18.4788 9.81305 19.6706 9.80207 21.0593C9.81833 22.6882 11.1435 24 12.7724 23.9999C13.5787 23.9868 14.3473 23.6559 14.911 23.0791C15.2913 22.6897 15.5404 22.1912 15.6239 21.6533C17.4802 21.6604 19.2309 20.7905 20.3466 19.3068L20.911 18.4751C22.1882 18.386 22.9902 17.5841 22.9902 16.4256V12.7127C22.9902 11.4356 22.0397 9.92079 20.6734 9.92079ZM4.87141 17.3465H3.32688C2.68728 17.3309 2.1814 16.7999 2.19698 16.1603C2.19726 16.1498 2.19766 16.1392 2.19817 16.1287V12.4158C2.19817 11.7327 2.67341 11.1089 3.32688 11.1089H4.87141V17.3465ZM14.0496 22.2475C13.7205 22.6044 13.258 22.8088 12.7724 22.8119C11.806 22.7965 11.0218 22.0254 10.9902 21.0594C10.9899 20.0915 11.7741 19.3066 12.742 19.3062C13.7099 19.3058 14.4948 20.0901 14.4952 21.058C14.4952 21.0584 14.4952 21.0589 14.4952 21.0594C14.5199 21.5004 14.3582 21.9315 14.0496 22.2475ZM21.8021 16.4257C21.8021 17.2277 21.0298 17.3465 20.6734 17.3465H19.4259V11.1089H20.6734C21.3269 11.1089 21.8021 12.0297 21.8021 12.7129V16.4257Z" fill="#FF5D8F"/>
</svg>
