<svg width="24" height="24" viewBox="0 0 24 24" fill="none" xmlns="http://www.w3.org/2000/svg">
<path d="M16.3568 10.3894V5.84747C16.3568 5.71747 16.2968 5.59735 16.2118 5.50232L11.1196 0.15509C11.0246 0.0551147 10.8895 0 10.7545 0H2.68103C1.19055 0 0 1.21545 0 2.70612V17.9725C0 19.4632 1.19055 20.6587 2.68103 20.6587H9.05383C10.2592 22.6595 12.4503 24 14.9462 24C18.7377 24 21.834 20.9187 21.834 17.1222C21.8392 13.8058 19.4581 11.0347 16.3568 10.3894ZM11.2548 1.7558L14.6711 5.35217H12.4552C11.7949 5.35217 11.2548 4.80707 11.2548 4.14679V1.7558ZM2.68103 19.6582C1.74573 19.6582 1.00049 18.9078 1.00049 17.9725V2.70612C1.00049 1.76569 1.74573 1.00049 2.68103 1.00049H10.2543V4.14679C10.2543 5.36224 11.2397 6.35266 12.4552 6.35266H15.3563V10.2592C15.2064 10.2543 15.0862 10.2393 14.9562 10.2393C13.2105 10.2393 11.6049 10.9096 10.3943 11.9601H4.04169C3.76648 11.9601 3.54144 12.1851 3.54144 12.4601C3.54144 12.7354 3.76648 12.9604 4.04169 12.9604H9.46399C9.10876 13.4606 8.8136 13.9609 8.58362 14.5111H4.04169C3.76648 14.5111 3.54144 14.7361 3.54144 15.0114C3.54144 15.2864 3.76648 15.5116 4.04169 15.5116H8.25842C8.13336 16.0118 8.06836 16.567 8.06836 17.1222C8.06836 18.0225 8.24341 18.913 8.55853 19.6633H2.68103V19.6582ZM14.9513 23.0046C11.71 23.0046 9.07379 20.3685 9.07379 17.1271C9.07379 13.8858 11.7048 11.2496 14.9513 11.2496C18.1976 11.2496 20.8286 13.8858 20.8286 17.1271C20.8286 20.3685 18.1926 23.0046 14.9513 23.0046Z" fill="#FF5D8F"/>
<path d="M4.04175 10.4546H9.10883C9.38403 10.4546 9.60907 10.2294 9.60907 9.95435C9.60907 9.67914 9.38403 9.4541 9.10883 9.4541H4.04175C3.76654 9.4541 3.5415 9.67914 3.5415 9.95435C3.5415 10.2294 3.76654 10.4546 4.04175 10.4546Z" fill="#FF5D8F"/>
<path d="M14.786 14.0407C14.8261 14.0506 14.866 14.0557 14.9061 14.0557C14.9561 14.0557 15.0012 14.0506 15.0462 14.0356C15.7065 14.0907 16.2217 14.6409 16.2217 15.3113C16.2217 15.5863 16.4468 15.8113 16.7218 15.8113C16.997 15.8113 17.222 15.5863 17.222 15.3113C17.222 14.2108 16.4418 13.2903 15.4064 13.0752V12.7551C15.4064 12.4799 15.1812 12.2549 14.9061 12.2549C14.6309 12.2549 14.4059 12.4799 14.4059 12.7551V13.0953C13.4054 13.3354 12.6602 14.2408 12.6602 15.3113C12.6602 16.5718 13.6855 17.5922 14.9411 17.5922C15.6464 17.5922 16.2217 18.1674 16.2217 18.8727C16.2217 19.578 15.6514 20.1583 14.9411 20.1583C14.2358 20.1583 13.6606 19.5829 13.6606 18.8776C13.6606 18.6026 13.4354 18.3774 13.1604 18.3774C12.8852 18.3774 12.6602 18.6026 12.6602 18.8776C12.6602 19.9532 13.4054 20.8535 14.4059 21.0936V21.6088C14.4059 21.884 14.6309 22.1091 14.9061 22.1091C15.1812 22.1091 15.4064 21.884 15.4064 21.6088V21.1086C16.4418 20.8934 17.222 19.9731 17.222 18.8727C17.222 17.6122 16.1967 16.5917 14.9411 16.5917C14.2358 16.5917 13.6606 16.0164 13.6606 15.3113C13.6606 14.6609 14.1508 14.1158 14.786 14.0407Z" fill="#FF5D8F"/>
</svg>
