<svg width="24" height="24" viewBox="0 0 24 24" fill="none" xmlns="http://www.w3.org/2000/svg">
<path d="M21.9892 2.72591C21.9801 2.65409 21.9642 2.58492 21.9379 2.52002C21.9371 2.51839 21.9371 2.51615 21.9367 2.51412C21.9367 2.51371 21.9363 2.51331 21.9359 2.5129C21.907 2.44454 21.8676 2.38249 21.823 2.32491C21.812 2.31128 21.8012 2.29785 21.7896 2.28503C21.742 2.23132 21.6903 2.18168 21.6303 2.14119C21.6287 2.13997 21.6267 2.13957 21.625 2.13835C21.5671 2.1001 21.503 2.07121 21.4358 2.04842C21.4191 2.04252 21.4029 2.03743 21.3858 2.03296C21.3154 2.01383 21.243 2 21.1667 2H15.3333C14.8733 2 14.5 2.37333 14.5 2.83333C14.5 3.29333 14.8733 3.66667 15.3333 3.66667H19.1545L14.1808 8.64042C12.8545 7.57963 11.2216 7 9.5 7C5.36466 7 2 10.3647 2 14.5C2 18.6353 5.36466 22 9.5 22C13.6353 22 17 18.6353 17 14.5C17 12.7792 16.4208 11.1467 15.3592 9.81921L20.3333 4.84505V8.66667C20.3333 9.12667 20.7067 9.5 21.1667 9.5C21.6267 9.5 22 9.12667 22 8.66667V2.83333C22 2.81584 21.9959 2.79915 21.9949 2.78206C21.9937 2.76294 21.9917 2.74463 21.9892 2.72591ZM9.5 20.3333C6.28324 20.3333 3.66667 17.7168 3.66667 14.5C3.66667 11.2832 6.28324 8.66667 9.5 8.66667C11.0574 8.66667 12.5237 9.27295 13.6262 10.3716C14.7271 11.4763 15.3333 12.9426 15.3333 14.5C15.3333 17.7168 12.7168 20.3333 9.5 20.3333Z" fill="#FF5D8F"/>
</svg>
