<svg width="24" height="24" viewBox="0 0 24 24" fill="none" xmlns="http://www.w3.org/2000/svg">
<path fill-rule="evenodd" clip-rule="evenodd" d="M18 5H6C3.79086 5 2 6.79086 2 9V15C2 17.2091 3.79086 19 6 19H18C20.2091 19 22 17.2091 22 15V9C22 6.79086 20.2091 5 18 5ZM6 6.5H18C18.663 6.5 19.2989 6.76339 19.7678 7.23223C20.2366 7.70107 20.5 8.33696 20.5 9V13.25H3.5V9C3.5 7.61929 4.61929 6.5 6 6.5ZM6 17.5H18C18.663 17.5 19.2989 17.2366 19.7678 16.7678C20.2366 16.2989 20.5 15.663 20.5 15V14.75H3.5V15C3.5 16.3807 4.61929 17.5 6 17.5Z" fill="#FF5D8F"/>
</svg>
