<svg width="24" height="24" viewBox="0 0 24 24" fill="none" xmlns="http://www.w3.org/2000/svg">
<path d="M18.5625 7.78125C18.8212 7.78125 19.0312 7.57123 19.0312 7.3125C19.0312 7.05377 18.8212 6.84375 18.5625 6.84375C18.3038 6.84375 18.0938 7.05377 18.0938 7.3125C18.0938 7.57123 18.3038 7.78125 18.5625 7.78125Z" fill="#FF5D8F"/>
<path d="M21.6562 0H6.09375C4.80139 0 3.75 1.05139 3.75 2.34375V18.0938H0.46875C0.209839 18.0938 0 18.3036 0 18.5625V19.5C0 20.7924 1.05139 21.8438 2.34375 21.8438H12.4688V23.5312C12.4688 23.7209 12.583 23.8918 12.7581 23.9643C12.9333 24.0368 13.1349 23.9967 13.2689 23.8627L14.8125 22.3193L16.3561 23.8627C16.4901 23.9969 16.6917 24.0368 16.8669 23.9643C17.042 23.8918 17.1562 23.7209 17.1562 23.5312V21.8438H19.7812C21.0736 21.8438 22.125 20.7924 22.125 19.5V3.75H23.5312C23.7902 3.75 24 3.54016 24 3.28125V2.34375C24 1.05139 22.9486 0 21.6562 0V0ZM0.9375 19.5V19.0312H3.75V19.5C3.75 20.2755 3.1192 20.9062 2.34375 20.9062C1.5683 20.9062 0.9375 20.2755 0.9375 19.5ZM16.4998 18.6804C15.967 18.9131 15.3992 19.0312 14.8125 19.0312C14.2258 19.0312 13.6582 18.9131 13.1252 18.6804C11.5875 18.0086 10.5938 16.4905 10.5938 14.8125C10.5938 12.4863 12.4863 10.5938 14.8125 10.5938C17.1387 10.5938 19.0312 12.4863 19.0312 14.8125C19.0312 16.4905 18.0377 18.0086 16.4998 18.6804ZM16.2188 22.3995L15.1439 21.3248C14.9608 21.1417 14.6642 21.1417 14.4811 21.3248L13.4062 22.3995V19.7745C13.8609 19.9034 14.3317 19.9688 14.8125 19.9688C15.2935 19.9688 15.7641 19.9034 16.2188 19.7745V22.3995ZM21.1875 19.5C21.1875 20.2755 20.5567 20.9062 19.7812 20.9062H17.1562V19.4057C18.8743 18.5286 19.9688 16.7587 19.9688 14.8125C19.9688 11.9694 17.6558 9.65625 14.8125 9.65625C11.9694 9.65625 9.65625 11.9694 9.65625 14.8125C9.65625 16.7587 10.7507 18.5286 12.4688 19.4057V20.9062H4.21747C4.51245 20.5142 4.6875 20.0272 4.6875 19.5C4.6875 19.0849 4.6875 3.21954 4.6875 2.34375C4.6875 1.5683 5.3183 0.9375 6.09375 0.9375C6.8692 0.9375 7.5 1.5683 7.5 2.34375V3.28125C7.5 3.54016 7.70984 3.75 7.96875 3.75H21.1875V19.5ZM23.0625 2.8125H8.4375V2.34375C8.4375 1.81659 8.26245 1.32953 7.96765 0.9375H21.6562C22.4317 0.9375 23.0625 1.5683 23.0625 2.34375V2.8125Z" fill="#FF5D8F"/>
<path d="M17.2273 13.8326L15.8577 13.6336L15.2449 12.3922C15.1659 12.2321 15.003 12.1309 14.8246 12.1309C14.6461 12.1309 14.4831 12.2321 14.4042 12.3922L13.7914 13.6336L12.4219 13.8326C12.2454 13.8583 12.0988 13.9819 12.0435 14.1516C11.9883 14.3212 12.0343 14.5076 12.1621 14.6321L13.1533 15.5987L12.9192 16.9628C12.8892 17.1386 12.9614 17.3164 13.1058 17.4211C13.2501 17.5261 13.4415 17.54 13.5995 17.457L14.8246 16.813L16.0498 17.457C16.2082 17.5402 16.3995 17.5259 16.5434 17.4211C16.6877 17.3164 16.7601 17.1386 16.73 16.9628L16.496 15.5987L17.4872 14.6321C17.615 14.5076 17.6609 14.3212 17.6056 14.1516C17.5505 13.9819 17.4039 13.8583 17.2273 13.8326ZM15.6649 15.0995C15.5545 15.2072 15.5041 15.3623 15.5301 15.5143L15.6453 16.1852L15.0427 15.8684C14.9744 15.8327 14.8995 15.8148 14.8246 15.8148C14.7497 15.8148 14.6749 15.8327 14.6066 15.8684L14.004 16.1852L14.119 15.5143C14.145 15.3623 14.0946 15.2072 13.9842 15.0995L13.4964 14.6238L14.1702 14.5261C14.3227 14.5037 14.4548 14.408 14.5231 14.2695L14.8246 13.6587L15.1262 14.2695C15.1945 14.408 15.3265 14.5037 15.4791 14.5261L16.1527 14.6238L15.6649 15.0995Z" fill="#FF5D8F"/>
<path d="M6.5625 7.3125C6.5625 7.57141 6.77234 7.78125 7.03125 7.78125H16.6875C16.9464 7.78125 17.1562 7.57141 17.1562 7.3125C17.1562 7.05359 16.9464 6.84375 16.6875 6.84375H7.03125C6.77234 6.84375 6.5625 7.05359 6.5625 7.3125Z" fill="#FF5D8F"/>
<path d="M10.125 9.65625H7.03125C6.77234 9.65625 6.5625 9.86609 6.5625 10.125C6.5625 10.3839 6.77234 10.5938 7.03125 10.5938H10.125C10.3839 10.5938 10.5938 10.3839 10.5938 10.125C10.5938 9.86609 10.3839 9.65625 10.125 9.65625Z" fill="#FF5D8F"/>
<path d="M7.03125 13.4062H8.25C8.50891 13.4062 8.71875 13.1964 8.71875 12.9375C8.71875 12.6786 8.50891 12.4688 8.25 12.4688H7.03125C6.77234 12.4688 6.5625 12.6786 6.5625 12.9375C6.5625 13.1964 6.77234 13.4062 7.03125 13.4062Z" fill="#FF5D8F"/>
<path d="M7.03125 16.2188H8.25C8.50891 16.2188 8.71875 16.0089 8.71875 15.75C8.71875 15.4911 8.50891 15.2812 8.25 15.2812H7.03125C6.77234 15.2812 6.5625 15.4911 6.5625 15.75C6.5625 16.0089 6.77234 16.2188 7.03125 16.2188Z" fill="#FF5D8F"/>
<path d="M9.1875 18.0938H7.03125C6.77234 18.0938 6.5625 18.3036 6.5625 18.5625C6.5625 18.8214 6.77234 19.0312 7.03125 19.0312H9.1875C9.44641 19.0312 9.65625 18.8214 9.65625 18.5625C9.65625 18.3036 9.44641 18.0938 9.1875 18.0938Z" fill="#FF5D8F"/>
</svg>
