<svg width="24" height="24" viewBox="0 0 24 24" fill="none" xmlns="http://www.w3.org/2000/svg">
<g clip-path="url(#clip0_1636_8720)">
<path d="M22 1.59961H2C0.895979 1.60093 0.00132245 2.49559 0 3.59961V17.9996C0.00132245 19.1036 0.895979 19.9983 2 19.9996H14V21.9996C14 22.1614 14.0975 22.3072 14.2469 22.3691C14.3964 22.431 14.5684 22.3968 14.6828 22.2824L16 20.9652L17.3172 22.2824C17.4316 22.3968 17.6036 22.431 17.7531 22.3691C17.9025 22.3072 18 22.1614 18 21.9996V19.9996H22C23.104 19.9983 23.9987 19.1036 24 17.9996V3.59961C23.9987 2.49559 23.104 1.60093 22 1.59961ZM12.924 9.42561C12.8622 9.39709 12.8177 9.3407 12.8044 9.27392C12.7911 9.20714 12.8106 9.13803 12.8568 9.08801C13.2147 8.69901 13.2147 8.10061 12.8568 7.71161C12.8105 7.66153 12.7909 7.59226 12.8043 7.52536C12.8177 7.45845 12.8624 7.40202 12.9244 7.37361C13.4036 7.15063 13.6323 6.59797 13.4508 6.10161C13.4272 6.0377 13.4356 5.96635 13.4734 5.90969C13.5112 5.85303 13.5739 5.8179 13.642 5.81521C14.1702 5.79301 14.5934 5.36985 14.6156 4.84161C14.6182 4.77343 14.6534 4.71066 14.7102 4.67281C14.767 4.63496 14.8384 4.62663 14.9024 4.65041C15.3988 4.8308 15.9509 4.60218 16.1744 4.12361C16.2027 4.06166 16.259 4.01707 16.3258 4.00376C16.3926 3.99045 16.4617 4.01004 16.5116 4.05641C16.9007 4.41438 17.4993 4.41438 17.8884 4.05641C17.9384 4.01007 18.0076 3.99055 18.0745 4.00393C18.1413 4.01732 18.1977 4.06198 18.226 4.12401C18.4491 4.60281 19.0014 4.83143 19.4976 4.65041C19.5616 4.62663 19.633 4.63496 19.6898 4.67281C19.7466 4.71066 19.7818 4.77343 19.7844 4.84161C19.8068 5.37057 20.231 5.79403 20.76 5.81561C20.828 5.81817 20.8907 5.8532 20.9286 5.90981C20.9664 5.96642 20.9748 6.03775 20.9512 6.10161C20.7696 6.59808 20.9985 7.15092 21.478 7.37361C21.5398 7.40213 21.5843 7.45852 21.5976 7.5253C21.6109 7.59208 21.5914 7.66119 21.5452 7.71121C21.1873 8.10021 21.1873 8.69861 21.5452 9.08761C21.5915 9.13769 21.6111 9.20696 21.5977 9.27386C21.5843 9.34077 21.5396 9.3972 21.4776 9.42561C20.9984 9.64859 20.7697 10.2012 20.9512 10.6976C20.9748 10.7615 20.9664 10.8329 20.9286 10.8895C20.8908 10.9462 20.8281 10.9813 20.76 10.984C20.2302 11.0053 19.8057 11.4299 19.7844 11.9596C19.7818 12.0278 19.7466 12.0906 19.6898 12.1284C19.633 12.1663 19.5616 12.1746 19.4976 12.1508C19.0011 11.9702 18.449 12.1989 18.2256 12.6776C18.1984 12.7402 18.1419 12.7851 18.0748 12.7976C18.0078 12.8116 17.9383 12.792 17.8884 12.7452C17.4992 12.3874 16.9008 12.3874 16.5116 12.7452C16.4617 12.792 16.3922 12.8115 16.3252 12.7976C16.258 12.7851 16.2014 12.7402 16.174 12.6776C15.951 12.1987 15.3986 11.97 14.9024 12.1512C14.8384 12.175 14.767 12.1667 14.7102 12.1288C14.6534 12.091 14.6182 12.0282 14.6156 11.96C14.5944 11.4301 14.1699 11.0053 13.64 10.9836C13.572 10.981 13.5093 10.946 13.4714 10.8894C13.4336 10.8328 13.4252 10.7615 13.4488 10.6976C13.6307 10.2017 13.4027 9.64902 12.924 9.42561ZM17.3176 16.9164L17.2 17.034V13.274C17.2535 13.2739 17.3051 13.294 17.3444 13.3304C17.5298 13.5042 17.7743 13.6008 18.0284 13.6008C18.0964 13.6007 18.1641 13.594 18.2308 13.5808C18.5491 13.5187 18.8175 13.306 18.9508 13.0104C18.9977 12.9096 19.1141 12.8615 19.2184 12.9C19.3401 12.9431 19.469 12.9625 19.598 12.9572V17.034L18.6808 16.1168C18.5246 15.9607 18.2714 15.9607 18.1152 16.1168L17.3176 16.9164ZM17.2 21.034L16.2828 20.1168C16.1266 19.9607 15.8734 19.9607 15.7172 20.1168L14.8 21.034V12.9564C14.929 12.9618 15.0579 12.9424 15.1796 12.8992C15.2837 12.8605 15.4001 12.9084 15.4468 13.0092C15.5805 13.3056 15.8499 13.5185 16.1692 13.58C16.2452 13.595 16.3226 13.6016 16.4 13.5996V17.9996C16.4 18.1614 16.4975 18.3072 16.6469 18.3691C16.7964 18.431 16.9684 18.3968 17.0828 18.2824L17.2 18.1652V21.034ZM23.2 17.9996C23.2 18.6624 22.6627 19.1996 22 19.1996H18V17.3652L18.4 16.9652L19.7172 18.2824C19.8316 18.3968 20.0036 18.431 20.1531 18.3691C20.3025 18.3072 20.4 18.1614 20.4 17.9996V12.5224C20.5116 12.3657 20.5754 12.1799 20.5836 11.9876C20.5885 11.8767 20.6774 11.7879 20.7884 11.7832C21.1127 11.7707 21.4113 11.6036 21.5916 11.3337C21.7718 11.0638 21.8118 10.724 21.6992 10.4196C21.661 10.3155 21.709 10.1995 21.8096 10.1528C22.1046 10.0173 22.3168 9.7485 22.3801 9.43007C22.4435 9.11163 22.3503 8.78213 22.1296 8.54401C22.0544 8.46227 22.0544 8.33655 22.1296 8.25481C22.3503 8.01676 22.4435 7.68731 22.3801 7.36893C22.3168 7.05055 22.1046 6.78185 21.8096 6.64641C21.7087 6.60001 21.6605 6.48383 21.6988 6.37961C21.8114 6.07527 21.7714 5.73537 21.5912 5.46552C21.4109 5.19566 21.1123 5.02852 20.788 5.01601C20.677 5.01134 20.5881 4.92256 20.5832 4.81161C20.5711 4.48722 20.4041 4.18831 20.1343 4.00786C19.8644 3.82741 19.5244 3.7873 19.22 3.90001C19.1159 3.93933 18.9991 3.89125 18.9528 3.79001C18.8173 3.49498 18.5485 3.28282 18.2301 3.21948C17.9116 3.15614 17.5821 3.2493 17.344 3.47001C17.2624 3.54514 17.1368 3.54514 17.0552 3.47001C16.8172 3.2493 16.4877 3.15613 16.1693 3.21947C15.8509 3.28281 15.5822 3.49499 15.4468 3.79001C15.4004 3.89131 15.2836 3.9395 15.1792 3.90041C14.8748 3.7877 14.5348 3.82781 14.2649 4.00826C13.9951 4.18871 13.8281 4.48762 13.816 4.81201C13.8111 4.92296 13.7222 5.01174 13.6112 5.01641C13.2869 5.02891 12.9883 5.19606 12.808 5.46592C12.6278 5.73577 12.5878 6.07567 12.7004 6.38001C12.7386 6.48412 12.6906 6.60012 12.59 6.64681C12.295 6.78235 12.0828 7.05112 12.0195 7.36955C11.9561 7.68799 12.0493 8.01749 12.27 8.25561C12.3452 8.33735 12.3452 8.46307 12.27 8.54481C12.0493 8.78286 11.9561 9.11231 12.0195 9.43069C12.0828 9.74907 12.295 10.0178 12.59 10.1532C12.6909 10.1996 12.7391 10.3158 12.7008 10.42C12.5882 10.7244 12.6282 11.0642 12.8084 11.3341C12.9887 11.604 13.2873 11.7711 13.6116 11.7836C13.7226 11.7883 13.8115 11.8771 13.8164 11.988C13.8247 12.1801 13.8884 12.3658 14 12.5224V19.1996H2C1.33726 19.1996 0.8 18.6624 0.8 17.9996V3.59961C0.8 2.93687 1.33726 2.39961 2 2.39961H22C22.6627 2.39961 23.2 2.93687 23.2 3.59961V17.9996Z" fill="#FF5D8F"/>
<path d="M4.3999 15.9998C3.73716 15.9998 3.1999 15.4625 3.1999 14.7998V6.7998C3.1999 6.13706 3.73716 5.5998 4.3999 5.5998H11.5999C11.8208 5.5998 11.9999 5.42072 11.9999 5.1998C11.9999 4.97889 11.8208 4.7998 11.5999 4.7998H4.3999C3.29588 4.80113 2.40122 5.69578 2.3999 6.7998V14.7998C2.40122 15.9038 3.29588 16.7985 4.3999 16.7998H11.9999C12.2208 16.7998 12.3999 16.6207 12.3999 16.3998C12.3999 16.1789 12.2208 15.9998 11.9999 15.9998H4.3999Z" fill="#FF5D8F"/>
<path d="M4.7999 11.1994H10.3999C10.6208 11.1994 10.7999 11.0203 10.7999 10.7994C10.7999 10.5785 10.6208 10.3994 10.3999 10.3994H4.7999C4.57899 10.3994 4.3999 10.5785 4.3999 10.7994C4.3999 11.0203 4.57899 11.1994 4.7999 11.1994Z" fill="#FF5D8F"/>
<path d="M4.7999 9.59981H10.3999C10.6208 9.59981 10.7999 9.42072 10.7999 9.19981C10.7999 8.97889 10.6208 8.7998 10.3999 8.7998H4.7999C4.57899 8.7998 4.3999 8.97889 4.3999 9.19981C4.3999 9.42072 4.57899 9.59981 4.7999 9.59981Z" fill="#FF5D8F"/>
<path d="M4.7999 7.99922H10.3999C10.6208 7.99922 10.7999 7.82013 10.7999 7.59922C10.7999 7.37831 10.6208 7.19922 10.3999 7.19922H4.7999C4.57899 7.19922 4.3999 7.37831 4.3999 7.59922C4.3999 7.82013 4.57899 7.99922 4.7999 7.99922Z" fill="#FF5D8F"/>
<path d="M4.43334 14.9604C4.49698 15.1063 4.64102 15.2005 4.80014 15.2004C4.8552 15.2007 4.90971 15.1894 4.96014 15.1672C5.33046 15.0296 5.67079 14.822 5.96254 14.5556C6.07084 14.4476 6.16554 14.3267 6.24454 14.1956C6.39728 14.3673 6.5768 14.5132 6.77614 14.6276C7.05414 14.8094 7.40015 14.8536 7.71494 14.7476C7.8356 14.7008 7.94475 14.6285 8.03494 14.5356C8.21594 14.6487 8.41535 14.7293 8.62414 14.7736L8.92654 14.8452C9.54378 15.026 10.1851 15.111 10.8281 15.0972C10.9707 15.0869 11.0969 15.0014 11.1593 14.8728C11.2216 14.7442 11.2107 14.5921 11.1305 14.4738C11.0503 14.3555 10.9131 14.2889 10.7705 14.2992C10.2094 14.3066 9.65047 14.2283 9.11294 14.0672L8.80374 13.994C8.43054 13.908 8.33454 13.7576 8.29494 13.6516C8.22523 13.4655 8.02946 13.3588 7.83527 13.4011C7.64108 13.4434 7.50737 13.6218 7.52134 13.82C7.52581 13.8917 7.49184 13.9604 7.43214 14.0004C7.33868 14.0123 7.24422 13.988 7.16814 13.9324C6.84465 13.731 6.60139 13.4233 6.48014 13.062C6.41131 12.876 6.21658 12.7685 6.02251 12.8094C5.82843 12.8503 5.69364 13.0273 5.70574 13.2252C5.71247 13.5114 5.60039 13.7875 5.39614 13.988C5.17403 14.1823 4.91765 14.3334 4.64014 14.4336C4.54282 14.476 4.46635 14.5554 4.42756 14.6542C4.38878 14.753 4.39085 14.8632 4.43334 14.9604Z" fill="#FF5D8F"/>
<path d="M17.2 11.6002C18.9673 11.6002 20.4 10.1675 20.4 8.4002C20.4 6.63288 18.9673 5.2002 17.2 5.2002C15.4327 5.2002 14 6.63288 14 8.4002C14.002 10.1667 15.4335 11.5982 17.2 11.6002ZM17.2 6.0002C18.5255 6.0002 19.6 7.07471 19.6 8.4002C19.6 9.72568 18.5255 10.8002 17.2 10.8002C15.8745 10.8002 14.8 9.72568 14.8 8.4002C14.8013 7.07526 15.8751 6.00152 17.2 6.0002Z" fill="#FF5D8F"/>
</g>
<defs>
<clipPath id="clip0_1636_8720">
<rect width="24" height="24" fill="white"/>
</clipPath>
</defs>
</svg>
