<svg width="60" height="60" viewBox="0 0 60 60" fill="none" xmlns="http://www.w3.org/2000/svg">
<path d="M39.6094 42.8906C40.9038 42.8906 41.9531 41.8413 41.9531 40.5469C41.9531 39.2525 40.9038 38.2031 39.6094 38.2031C38.315 38.2031 37.2656 39.2525 37.2656 40.5469C37.2656 41.8413 38.315 42.8906 39.6094 42.8906Z" fill="url(#paint0_linear_389_19481)"/>
<path d="M27.8905 55.3122H9.37495C6.79027 55.3122 4.68747 53.2094 4.68747 50.6247V31.4061C4.68747 28.8214 6.79027 26.7186 9.37495 26.7186H43.1248C45.7094 26.7186 47.8122 28.8214 47.8122 31.4061V36.0936C47.8122 37.388 48.8615 38.4373 50.156 38.4373C51.4504 38.4373 52.4997 37.388 52.4997 36.0936V31.4061C52.4997 26.2367 48.2941 22.0311 43.1248 22.0311H40.3079V13.7655C40.3079 6.17516 33.9995 0 26.2455 0C18.4915 0 12.1831 6.17516 12.1831 13.7655V22.0311H9.37495C4.2056 22.0311 0 26.2367 0 31.4061V50.6247C0 55.7941 4.2056 59.9997 9.37495 59.9997H27.8905C29.1849 59.9997 30.2342 58.9504 30.2342 57.6559C30.2342 56.3615 29.1849 55.3122 27.8905 55.3122ZM16.8706 13.7655C16.8706 8.75983 21.0762 4.68747 26.2455 4.68747C31.4149 4.68747 35.6205 8.75983 35.6205 13.7655V22.0311H16.8706V13.7655V13.7655Z" fill="url(#paint1_linear_389_19481)"/>
<path d="M59.0203 38.1722C57.9677 37.4185 56.5035 37.661 55.7503 38.7136L44.1979 54.8503C43.8824 55.2161 43.487 55.2951 43.2751 55.3092C43.0579 55.3236 42.6395 55.296 42.2712 54.9505L34.8054 47.6648C33.8789 46.7606 32.3951 46.779 31.4911 47.7052C30.587 48.6316 30.6051 50.1154 31.5316 51.0195L39.0105 58.3181C39.0175 58.3249 39.0244 58.3317 39.0316 58.3383C40.1527 59.4058 41.6493 59.9996 43.1891 59.9996C43.3214 59.9996 43.4541 59.9952 43.5867 59.9863C45.2642 59.8745 46.8304 59.0588 47.8835 57.7484C47.9107 57.7144 47.937 57.6799 47.9624 57.6445L59.5617 41.4422C60.3151 40.3897 60.0728 38.9256 59.0203 38.1722Z" fill="url(#paint2_linear_389_19481)"/>
<path d="M30.7031 42.8906C31.9975 42.8906 33.0469 41.8413 33.0469 40.5469C33.0469 39.2525 31.9975 38.2031 30.7031 38.2031C29.4087 38.2031 28.3594 39.2525 28.3594 40.5469C28.3594 41.8413 29.4087 42.8906 30.7031 42.8906Z" fill="url(#paint3_linear_389_19481)"/>
<path d="M13.125 42.8906C14.4194 42.8906 15.4687 41.8413 15.4687 40.5469C15.4687 39.2525 14.4194 38.2031 13.125 38.2031C11.8306 38.2031 10.7812 39.2525 10.7812 40.5469C10.7812 41.8413 11.8306 42.8906 13.125 42.8906Z" fill="url(#paint4_linear_389_19481)"/>
<path d="M21.9141 42.8906C23.2085 42.8906 24.2578 41.8413 24.2578 40.5469C24.2578 39.2525 23.2085 38.2031 21.9141 38.2031C20.6196 38.2031 19.5703 39.2525 19.5703 40.5469C19.5703 41.8413 20.6196 42.8906 21.9141 42.8906Z" fill="url(#paint5_linear_389_19481)"/>
<defs>
<linearGradient id="paint0_linear_389_19481" x1="39.6094" y1="38.2031" x2="39.6094" y2="42.8906" gradientUnits="userSpaceOnUse">
<stop stop-color="#FF7AA3"/>
<stop offset="1" stop-color="#FF4880"/>
</linearGradient>
<linearGradient id="paint1_linear_389_19481" x1="26.2499" y1="0" x2="26.2499" y2="59.9997" gradientUnits="userSpaceOnUse">
<stop stop-color="#FF7AA3"/>
<stop offset="1" stop-color="#FF4880"/>
</linearGradient>
<linearGradient id="paint2_linear_389_19481" x1="45.4123" y1="37.7339" x2="45.4123" y2="59.9996" gradientUnits="userSpaceOnUse">
<stop stop-color="#FF7AA3"/>
<stop offset="1" stop-color="#FF4880"/>
</linearGradient>
<linearGradient id="paint3_linear_389_19481" x1="30.7031" y1="38.2031" x2="30.7031" y2="42.8906" gradientUnits="userSpaceOnUse">
<stop stop-color="#FF7AA3"/>
<stop offset="1" stop-color="#FF4880"/>
</linearGradient>
<linearGradient id="paint4_linear_389_19481" x1="13.125" y1="38.2031" x2="13.125" y2="42.8906" gradientUnits="userSpaceOnUse">
<stop stop-color="#FF7AA3"/>
<stop offset="1" stop-color="#FF4880"/>
</linearGradient>
<linearGradient id="paint5_linear_389_19481" x1="21.9141" y1="38.2031" x2="21.9141" y2="42.8906" gradientUnits="userSpaceOnUse">
<stop stop-color="#FF7AA3"/>
<stop offset="1" stop-color="#FF4880"/>
</linearGradient>
</defs>
</svg>
