<svg width="24" height="24" viewBox="0 0 24 24" fill="none" xmlns="http://www.w3.org/2000/svg">
<path d="M11.7453 14.5885C11.743 14.5885 11.7408 14.5885 11.7385 14.5885C11.3245 14.5848 10.9915 14.2461 10.9953 13.8318L10.9987 13.4568C10.9987 13.4354 10.9998 13.4136 11.002 13.3923C11.1059 12.3014 11.83 11.6328 12.4124 11.0954C12.6097 10.9132 12.7964 10.741 12.9554 10.5614C13.1493 10.3428 13.4305 9.89503 13.1347 9.35466C12.7938 8.73066 11.9613 8.55403 11.3144 8.70216C10.6387 8.85666 10.3897 9.43378 10.3012 9.76378C10.1939 10.1639 9.78253 10.4013 9.38241 10.2944C8.98228 10.1872 8.74491 9.77578 8.85178 9.37566C9.15066 8.25928 9.92616 7.48116 10.9792 7.24004C12.3963 6.91641 13.8235 7.48903 14.4502 8.63466C14.9718 9.58866 14.8289 10.708 14.077 11.5563C13.8682 11.7918 13.645 11.998 13.429 12.1971C12.8909 12.694 12.5545 13.0263 12.4975 13.5059L12.4945 13.8445C12.4915 14.2574 12.1563 14.5885 11.7453 14.5885Z" fill="#FF5D8F"/>
<path d="M11.7451 16.8375C11.5501 16.8375 11.3551 16.7587 11.2164 16.62C11.0739 16.4812 10.9951 16.2862 10.9951 16.0875C10.9951 15.8925 11.0739 15.6975 11.2164 15.5587C11.4939 15.2812 11.9964 15.2812 12.2739 15.5587C12.4164 15.6975 12.4951 15.8925 12.4951 16.0875C12.4951 16.2862 12.4164 16.4775 12.2776 16.62C12.1351 16.7587 11.9439 16.8375 11.7451 16.8375Z" fill="#FF5D8F"/>
<path d="M11.9711 21.7486C11.118 21.7486 10.2723 21.6376 9.45745 21.4182C5.94595 20.4736 3.19645 17.5647 2.45283 14.0071C1.69495 10.3827 3.0937 6.57268 6.01683 4.30056C7.70658 2.98693 9.8377 2.26318 12.018 2.26318C13.5273 2.26318 15.0262 2.61418 16.353 3.27756C19.6293 4.91668 21.7462 8.34118 21.7462 12.0023C21.7462 14.9896 20.3366 17.8688 17.9756 19.7041C16.2798 21.0226 14.1472 21.7486 11.9711 21.7486ZM12.0183 3.76318C10.17 3.76318 8.36545 4.37443 6.93783 5.48481C4.46395 7.40781 3.2797 10.6324 3.92133 13.6999C4.55058 16.7093 6.8767 19.1704 9.84745 19.9696C10.5352 20.1544 11.25 20.2486 11.9711 20.2486H11.9715C13.8157 20.2486 15.621 19.6347 17.0553 18.5198C19.0537 16.9666 20.2466 14.5302 20.2466 12.0023C20.2466 8.90443 18.4552 6.00643 15.6825 4.61931C14.5627 4.05943 13.296 3.76318 12.0183 3.76318Z" fill="#FF5D8F"/>
</svg>
