<svg width="80" height="80" viewBox="0 0 80 80" fill="none" xmlns="http://www.w3.org/2000/svg">
<path d="M57.6365 21.0871C62.7982 26.3585 62.977 34.7543 58.1766 40.2297L54.9358 36.9322C57.975 33.3884 57.8153 27.8322 54.4071 24.3692C50.9761 20.8831 45.4606 20.7369 41.8774 24.0152L38.8306 26.801L35.7799 24.0152C32.1854 20.7331 26.6699 20.8754 23.2427 24.3731C19.8421 27.836 19.6709 33.3807 22.8052 37.0437L42.0486 56.6789L38.8268 59.9687L19.4731 40.2297C14.6689 34.7543 14.8515 26.3431 20.0094 21.0871C25.1788 15.8233 33.4482 15.6463 38.8268 20.5561C44.1863 15.654 52.471 15.8156 57.6365 21.0871Z" fill="#333333"/>
<path d="M64 48.9133H55.7001V40.4598H50.1656V48.9133H41.8696V54.5465H50.1656V63H55.7001V54.5465H64V48.9133Z" fill="#FF6B00"/>
</svg>
