<svg width="40" height="41" viewBox="0 0 40 41" fill="none" xmlns="http://www.w3.org/2000/svg">
<rect y="0.84082" width="40" height="40" rx="10" fill="#DF4D6F"/>
<mask id="mask0_192_8885" style="mask-type:alpha" maskUnits="userSpaceOnUse" x="12" y="14" width="16" height="15">
<path fill-rule="evenodd" clip-rule="evenodd" d="M12.5 14.0913H27.1243V28.7156H12.5V14.0913Z" fill="white"/>
</mask>
<g mask="url(#mask0_192_8885)">
<path fill-rule="evenodd" clip-rule="evenodd" d="M19.1037 22.9545L21.8464 27.4042C21.9664 27.5992 22.1539 27.597 22.2297 27.5865C22.3054 27.576 22.4877 27.5295 22.5537 27.3082L25.9834 15.7245C26.0434 15.5197 25.9332 15.3802 25.8837 15.3307C25.8357 15.2812 25.6984 15.1755 25.4997 15.2317L13.9077 18.6262C13.6879 18.6907 13.6399 18.8752 13.6294 18.951C13.6189 19.0282 13.6159 19.2195 13.8102 19.3417L18.3109 22.1565L22.2874 18.138C22.5057 17.9175 22.8619 17.9152 23.0832 18.1335C23.3044 18.3517 23.3059 18.7087 23.0877 18.9292L19.1037 22.9545ZM22.1712 28.716C21.6492 28.716 21.1707 28.4505 20.8887 27.9945L17.981 23.2762L13.214 20.295C12.7002 19.9732 12.4317 19.4002 12.515 18.798C12.5975 18.1957 13.0107 17.7172 13.5912 17.547L25.1832 14.1525C25.7165 13.9965 26.288 14.1442 26.681 14.5357C27.074 14.931 27.2202 15.5085 27.0612 16.044L23.6315 27.627C23.4597 28.2097 22.9797 28.6215 22.379 28.7017C22.3085 28.7107 22.2402 28.716 22.1712 28.716Z" fill="white"/>
</g>
</svg>
