<svg width="27" height="30" viewBox="0 0 27 30" fill="none" xmlns="http://www.w3.org/2000/svg">
<path d="M13.4826 0.93525C13.4149 0.938434 13.3487 0.956283 13.2885 0.987533C13.2885 0.987533 7.72165 3.7643 0.779675 4.6899C0.666926 4.70547 0.563692 4.76153 0.489233 4.84762C0.414773 4.9337 0.374175 5.04393 0.375013 5.15774V14.9979C0.375013 21.026 3.67531 24.6017 6.92927 26.5903C10.1832 28.5788 13.4304 29.0576 13.4304 29.0576C13.4766 29.0645 13.5235 29.0645 13.5696 29.0576C13.5696 29.0576 16.8168 28.5788 20.0708 26.5903C23.3247 24.6017 26.625 21.026 26.625 14.9979V5.15774C26.6259 5.04393 26.5853 4.9337 26.5108 4.84762C26.4363 4.76153 26.3331 4.70547 26.2204 4.6899C19.2784 3.7643 13.7115 0.987533 13.7115 0.987533C13.6409 0.95098 13.5621 0.932976 13.4826 0.93525Z" fill="#59AA70"/>
<path d="M13.5001 6.56201C8.84578 6.56201 5.06445 10.3433 5.06445 14.9976C5.06445 19.652 8.84578 23.4379 13.5001 23.4379C18.1545 23.4379 21.9358 19.652 21.9358 14.9976C21.9358 10.3433 18.1545 6.56201 13.5001 6.56201Z" fill="#FFD15C"/>
<path d="M12.047 10.3131C11.9311 10.3245 11.8236 10.3786 11.7454 10.4649C11.6672 10.5513 11.6239 10.6636 11.624 10.78V13.1265H9.2821C9.15778 13.1261 9.03837 13.175 8.95012 13.2626C8.86188 13.3501 8.81202 13.4691 8.81152 13.5935V16.4069C8.81202 16.5312 8.86188 16.6502 8.95012 16.7377C9.03837 16.8253 9.15778 16.8742 9.2821 16.8738H11.624V19.2203C11.6243 19.2819 11.6367 19.3429 11.6605 19.3997C11.6843 19.4565 11.7192 19.5081 11.7629 19.5515C11.8067 19.5948 11.8587 19.6292 11.9157 19.6525C11.9728 19.6758 12.0339 19.6875 12.0955 19.6872H14.9044C15.0287 19.6877 15.1481 19.6387 15.2363 19.5512C15.3246 19.4636 15.3744 19.3446 15.3749 19.2203V16.8738H17.7178C17.8421 16.8742 17.9615 16.8253 18.0498 16.7377C18.138 16.6502 18.1879 16.5312 18.1884 16.4069V13.5935C18.1879 13.4691 18.138 13.3501 18.0498 13.2626C17.9615 13.175 17.8421 13.1261 17.7178 13.1265H15.3749V10.78C15.3744 10.6557 15.3246 10.5367 15.2363 10.4491C15.1481 10.3615 15.0287 10.3127 14.9044 10.3131H12.0955C12.0794 10.3123 12.0632 10.3123 12.047 10.3131Z" fill="#FFFEFE"/>
</svg>
