<svg width="32" height="32" viewBox="0 0 32 32" fill="none" xmlns="http://www.w3.org/2000/svg">
<path fill-rule="evenodd" clip-rule="evenodd" d="M23.7451 5.1961L6.81612 5.19531C5.80629 5.19527 4.99332 6.00827 4.99332 7.01811L4.99316 9.9235H25.682L25.6822 7.01887C25.6822 5.90124 25.0509 5.1961 23.7451 5.1961Z" fill="#E5718C"/>
<path fill-rule="evenodd" clip-rule="evenodd" d="M4.99609 7.93359V9.94674L25.7174 9.94674V7.93359H4.99609Z" fill="#DF4D6F"/>
<path fill-rule="evenodd" clip-rule="evenodd" d="M11.5394 7.93359C11.4968 8.09495 11.4756 8.26025 11.4756 8.42791C11.4756 8.79887 11.5841 9.15852 11.7839 9.48837H14.2627C14.3752 9.14755 14.4343 8.79036 14.4348 8.42791C14.4344 8.26177 14.4216 8.09664 14.3972 7.93359H11.5394Z" fill="#DF4D6F"/>
<path fill-rule="evenodd" clip-rule="evenodd" d="M4.99316 7.27734C4.99316 8.6482 6.2923 9.15548 6.98231 9.15548H25.5648C26.5747 9.15548 27.3876 9.96846 27.3876 10.9783V20.6652C27.3876 21.675 26.5747 22.488 25.5648 22.488H6.81597C5.80613 22.488 4.99316 21.675 4.99316 20.6652V7.27734Z" fill="#EC94A9"/>
<path fill-rule="evenodd" clip-rule="evenodd" d="M24.2112 9.15625C25.1936 9.3899 26.034 9.96923 26.034 10.9791V14.1634H24.904C20.9796 14.1634 20.936 19.6137 24.904 19.6137H26.034V20.666C26.034 21.6758 25.221 22.4888 24.2112 22.4888H25.5653C26.5751 22.4888 27.3881 21.6758 27.3881 20.666V19.6137V14.1634V10.9791C27.3881 9.96923 26.5751 9.15625 25.5653 9.15625H24.2112Z" fill="#E5718C"/>
<path fill-rule="evenodd" clip-rule="evenodd" d="M24.904 13.0156H27.3881C28.2537 13.0156 28.9505 13.7125 28.9505 14.578V16.9035C28.9505 17.7691 28.2537 18.4659 27.3881 18.4659H24.904C20.936 18.4659 20.9796 13.0156 24.904 13.0156Z" fill="#E5718C"/>
<path fill-rule="evenodd" clip-rule="evenodd" d="M27.8421 13.082C27.8853 13.2256 27.9089 13.3779 27.9089 13.536V15.8615C27.9089 16.6625 27.3121 17.3185 26.5371 17.412C26.6878 17.303 26.8103 17.161 26.8948 16.9974C26.9793 16.8337 27.0235 16.6529 27.0238 16.4695C27.0238 16.3153 26.9928 16.1627 26.9325 16.0203C26.8723 15.8779 26.7839 15.7485 26.6726 15.6395C26.5613 15.5305 26.4291 15.4441 26.2837 15.3851C26.1382 15.3261 25.9823 15.2958 25.8249 15.2958C25.507 15.2958 25.2021 15.4194 24.9772 15.6396C24.7524 15.8597 24.6261 16.1582 24.6261 16.4695C24.6263 16.6562 24.672 16.8403 24.7595 17.0063C24.8469 17.1723 24.9735 17.3155 25.1288 17.4239H23.8623C23.2286 17.4239 22.6972 17.2844 22.2676 17.0508C22.7034 17.8589 23.5805 18.4655 24.9039 18.4655H27.3881C28.2537 18.4655 28.9505 17.7687 28.9505 16.9031V14.5776C28.9505 13.8701 28.4848 13.2757 27.8421 13.082Z" fill="#DF4D6F"/>
<path fill-rule="evenodd" clip-rule="evenodd" d="M6.24316 10.625V10.8333H6.65991V10.625H6.24316ZM7.28446 10.625V10.8333H7.7013V10.625H7.28446ZM8.32638 10.625V10.8333H8.74313V10.625H8.32638ZM9.36797 10.625V10.8333H9.78462V10.625H9.36797ZM10.4093 10.625V10.8333H10.8261V10.625H10.4093ZM11.4512 10.625V10.8333H11.8679V10.625H11.4512ZM12.4927 10.625V10.8333H12.9094V10.625H12.4927ZM13.5341 10.625V10.8333H13.9509V10.625H13.5341ZM14.576 10.625V10.8333H14.9927V10.625H14.576ZM15.6175 10.625V10.8333H16.0342V10.625H15.6175ZM16.6589 10.625V10.8333H17.0757V10.625H16.6589ZM17.7008 10.625V10.8333H18.1176V10.625H17.7008ZM18.7424 10.625V10.8333H19.1591V10.625H18.7424ZM19.7837 10.625V10.8333H20.2005V10.625H19.7837ZM20.8256 10.625V10.8333H21.2424V10.625H20.8256ZM21.8672 10.625V10.8333H22.2839V10.625H21.8672ZM23.013 10.625V10.8333H23.4297V10.625H23.013ZM24.0549 10.625V10.8333H24.4716V10.625H24.0549ZM25.0964 10.6329V10.8412H25.5131V10.6329H25.0964ZM25.3048 11.3185V11.7352H25.5131V11.3185H25.3048Z" fill="#FCEEF1"/>
<path fill-rule="evenodd" clip-rule="evenodd" d="M26.1907 15.7402C26.1907 16.0514 26.0643 16.35 25.8395 16.5701C25.6147 16.7902 25.3098 16.9139 24.9918 16.9139C24.6739 16.9139 24.3689 16.7902 24.1441 16.5701C23.9193 16.35 23.793 16.0514 23.793 15.7402C23.793 15.586 23.824 15.4334 23.8842 15.291C23.9445 15.1486 24.0328 15.0192 24.1441 14.9102C24.2554 14.8012 24.3876 14.7147 24.533 14.6558C24.6785 14.5968 24.8344 14.5664 24.9918 14.5664C25.1492 14.5664 25.3051 14.5968 25.4506 14.6558C25.596 14.7147 25.7282 14.8012 25.8395 14.9102C25.9509 15.0192 26.0392 15.1486 26.0994 15.291C26.1597 15.4334 26.1907 15.586 26.1907 15.7402Z" fill="#FCEEF1"/>
<path fill-rule="evenodd" clip-rule="evenodd" d="M25.396 14.6328C25.4378 14.7532 25.4602 14.8813 25.4608 15.0085C25.4608 15.6567 24.924 16.1822 24.2619 16.1822C24.1235 16.1822 23.9845 16.1577 23.8545 16.1114C24.0183 16.5887 24.4766 16.9106 24.991 16.9113C25.6531 16.9113 26.1899 16.3858 26.1899 15.7376C26.1899 15.2431 25.8712 14.8002 25.396 14.6328Z" fill="#F9DBE2"/>
<path fill-rule="evenodd" clip-rule="evenodd" d="M6.24316 20.924V20.7157H6.65991V20.924H6.24316ZM7.28446 20.924V20.7157H7.7013V20.924H7.28446ZM8.32638 20.924V20.7157H8.74313V20.924H8.32638ZM9.36797 20.924V20.7157H9.78462V20.924H9.36797ZM10.4093 20.924V20.7157H10.8261V20.924H10.4093ZM11.4512 20.924V20.7157H11.8679V20.924H11.4512ZM12.4927 20.924V20.7157H12.9094V20.924H12.4927ZM13.5341 20.924V20.7157H13.9509V20.924H13.5341ZM14.576 20.924V20.7157H14.9927V20.924H14.576ZM15.6175 20.924V20.7157H16.0342V20.924H15.6175ZM16.6589 20.924V20.7157H17.0757V20.924H16.6589ZM17.7008 20.924V20.7157H18.1176V20.924H17.7008ZM18.7424 20.924V20.7157H19.1591V20.924H18.7424ZM19.7837 20.924V20.7157H20.2005V20.924H19.7837ZM20.8256 20.924V20.7157H21.2424V20.924H20.8256ZM21.8672 20.924V20.7157H22.2839V20.924H21.8672ZM23.013 20.924V20.7157H23.4297V20.924H23.013ZM24.0549 20.924V20.7157H24.4716V20.924H24.0549ZM25.0964 20.9161V20.7078H25.5131V20.9161H25.0964ZM25.3048 20.0613V19.6445H25.5131V20.0613H25.3048Z" fill="#FCEEF1"/>
<path d="M7.95601 15.3203H14.7532C15.1859 15.3203 15.5344 15.6687 15.5344 16.1015V18.369C15.5344 18.8018 15.1859 19.1502 14.7532 19.1502H7.95601C7.52322 19.1502 7.1748 18.8018 7.1748 18.369V16.1015C7.1748 15.6687 7.52322 15.3203 7.95601 15.3203Z" fill="#FCEEF1"/>
<path fill-rule="evenodd" clip-rule="evenodd" d="M8.54459 16.375C8.42935 16.375 8.33594 16.4684 8.33594 16.5836C8.33588 16.6989 8.42931 16.7924 8.54459 16.7924H13.0258C13.1412 16.7925 13.2347 16.699 13.2346 16.5836C13.2346 16.4684 13.1411 16.3749 13.0258 16.375H8.54459ZM8.54459 17.6106C8.42931 17.6106 8.33588 17.7041 8.33594 17.8193C8.33594 17.9346 8.42935 18.028 8.54459 18.028H10.7391C10.8543 18.028 10.9477 17.9346 10.9477 17.8193C10.9478 17.7041 10.8543 17.6106 10.7391 17.6106H8.54459Z" fill="#EC94A9"/>
<path fill-rule="evenodd" clip-rule="evenodd" d="M13.2269 17.5541C13.5647 17.2163 14.1123 17.2163 14.45 17.5541L18.7744 21.8784C19.1121 22.2162 19.1121 22.7638 18.7744 23.1015L14.45 27.4258C14.1123 27.7636 13.5647 27.7636 13.2269 27.4258C12.8892 27.0881 12.8892 26.5405 13.2269 26.2027L16.9397 22.49L13.2269 18.7772C12.8892 18.4394 12.8892 17.8918 13.2269 17.5541Z" fill="#DF4D6F"/>
<path fill-rule="evenodd" clip-rule="evenodd" d="M4.32483 12.1094C4.80248 12.1094 5.18969 12.4966 5.18969 12.9742V19.0283C5.18969 19.7164 5.46305 20.3764 5.94963 20.863C6.43621 21.3495 7.09616 21.6229 7.78429 21.6229H18.1627C18.6403 21.6229 19.0275 22.0101 19.0275 22.4878C19.0275 22.9654 18.6403 23.3526 18.1627 23.3526H7.78429C6.6374 23.3526 5.53749 22.897 4.72653 22.0861C3.91556 21.2751 3.45996 20.1752 3.45996 19.0283V12.9742C3.45996 12.4966 3.84717 12.1094 4.32483 12.1094Z" fill="#DF4D6F"/>
</svg>
