<svg width="80" height="80" viewBox="0 0 80 80" fill="none" xmlns="http://www.w3.org/2000/svg">
<g clip-path="url(#clip0)">
<path d="M29.947 53.9826C29.6922 55.9308 28.8102 57.7125 27.4549 59.0032C26.0997 60.2938 24.3681 61.0041 22.5759 61.0041C20.7837 61.0041 19.0522 60.2938 17.6969 59.0032C16.3417 57.7125 15.4597 55.9308 15.2049 53.9826H13V25.9617C13 25.3408 13.2225 24.7482 13.623 24.3099C14.0235 23.8715 14.5616 23.624 15.128 23.624H44.9117C45.4741 23.624 46.0162 23.8715 46.4167 24.3099C46.8172 24.7482 47.0397 25.3408 47.0397 25.9617V30.6332H53.4237L59.8076 40.1061V53.9867H55.4789C55.228 55.9348 54.342 57.7166 52.9868 59.0072C51.6315 60.2979 49.9 61.0081 48.1078 61.0081C46.3156 61.0081 44.584 60.2979 43.2288 59.0072C41.8735 57.7166 40.9875 55.9348 40.7367 53.9867H29.947V53.9826ZM42.7837 28.2955H17.256V47.091C18.0934 46.1494 19.1291 45.4473 20.27 45.0374C21.4108 44.6315 22.6245 44.53 23.8058 44.7492C24.9871 44.9684 26.1078 45.496 27.0625 46.2874C28.0213 47.0829 28.786 48.1179 29.2997 49.3071H41.3718C41.7278 48.4832 42.2093 47.7323 42.7837 47.091V28.2955ZM47.0397 42.3059H55.5517V41.6403L51.2795 35.3007H47.0397V42.3059ZM48.1037 56.3163C48.9492 56.3163 49.7624 55.947 50.3612 55.2895C50.9599 54.632 51.2957 53.7391 51.2957 52.8137C51.2957 51.8843 50.9599 50.9914 50.3612 50.338C49.7624 49.6845 48.9492 49.3111 48.1037 49.3111C47.2582 49.3111 46.445 49.6805 45.8463 50.338C45.2475 50.9955 44.9117 51.8884 44.9117 52.8137C44.9117 53.7432 45.2475 54.6361 45.8463 55.2895C46.445 55.9429 47.2582 56.3163 48.1037 56.3163ZM25.7639 52.8137C25.7639 52.3551 25.683 51.8965 25.5211 51.4744C25.3593 51.0482 25.1247 50.6626 24.8293 50.338C24.534 50.0133 24.1821 49.7535 23.7937 49.579C23.4053 49.4045 22.9926 49.3111 22.5719 49.3111C22.1512 49.3111 21.7385 49.4004 21.3501 49.579C20.9618 49.7535 20.6098 50.0133 20.3145 50.338C20.0191 50.6626 19.7845 51.0482 19.6227 51.4744C19.4608 51.9005 19.3799 52.3551 19.3799 52.8137C19.3799 53.7432 19.7157 54.632 20.3145 55.2895C20.9132 55.947 21.7264 56.3163 22.5719 56.3163C23.4174 56.3163 24.2306 55.947 24.8293 55.2895C25.4281 54.6361 25.7639 53.7432 25.7639 52.8137Z" fill="#333333"/>
<path d="M68 21.5825H61.9316V60.9878H68V21.5825Z" fill="#FF6B00"/>
<path d="M52.6429 28.7865L43.9206 17.9053L52.4163 20.2188V12L56.1545 17.8282L59.8886 12V24.0055H57.8658V18.9078L56.1545 21.5784L54.4391 18.9078V22.8731L49.3983 21.5013L54.2166 27.5162L52.6429 28.7865Z" fill="#FF6B00"/>
</g>
<defs>
<clipPath id="clip0">
<rect width="55" height="49" fill="white" transform="translate(13 12)"/>
</clipPath>
</defs>
</svg>
