<svg width="80" height="80" viewBox="0 0 80 80" fill="none" xmlns="http://www.w3.org/2000/svg">
<g clip-path="url(#clip0)">
<path d="M22.636 43.9396C20.8287 41.1081 19.7261 37.7574 19.5987 34.1489H25.2475V31.0111H19.738C20.8447 22.0272 27.9982 14.9783 36.8277 14.403V19.5468H39.9845V14.474C48.4318 15.4191 55.1793 22.3074 56.2541 31.0111H49.9644V34.1489H56.3895C56.3178 36.1735 55.9357 38.116 55.2987 39.9352L59.0805 39.8157C59.6697 37.7947 59.9881 35.6543 59.9881 33.4429C59.9881 21.0672 50.1197 11 37.9941 11C25.8685 11 16 21.0672 16 33.4429C16 37.9442 17.3097 42.1391 19.5589 45.658L22.636 43.9396Z" fill="#333333"/>
<path d="M51.8115 49.6923L44.8491 67.2529L40.9041 68L42.8825 51.3808L32.3134 53.3792L30.1518 59.879L27.1941 60.4393L27.4767 51.25L23.8144 42.804L26.7721 42.2437L31.1869 47.4996L41.7559 45.5011L33.7744 30.7683L37.7194 30.0212L50.6849 43.8126L61.4252 41.7805C62.2094 41.6311 63.0215 41.7992 63.6823 42.2475C64.3432 42.6957 64.797 43.383 64.9482 44.1638C65.0995 44.9445 64.9283 45.7514 64.4785 46.4051C64.0287 47.0625 63.336 47.5145 62.5518 47.6602L51.8115 49.6923Z" fill="#FF6B00"/>
</g>
<defs>
<clipPath id="clip0">
<rect width="49" height="57" fill="white" transform="translate(16 11)"/>
</clipPath>
</defs>
</svg>
