<svg width="34" height="35" viewBox="0 0 34 35" fill="none" xmlns="http://www.w3.org/2000/svg">
<mask id="mask0_192_8685" style="mask-type:alpha" maskUnits="userSpaceOnUse" x="9" y="12" width="13" height="13">
<path fill-rule="evenodd" clip-rule="evenodd" d="M9.5 12.5908H21.1252V24.2168H9.5V12.5908Z" fill="white"/>
</mask>
<g mask="url(#mask0_192_8685)">
<path fill-rule="evenodd" clip-rule="evenodd" d="M13.1353 13.7169C12.8061 13.7169 12.5938 13.7169 12.5571 13.7184C12.0036 13.7416 11.4928 13.9764 11.1246 14.3784C10.7811 14.7541 10.6041 15.2341 10.6273 15.7321C10.6273 17.9019 10.6281 21.1584 10.6333 21.3369C10.7188 22.3756 11.6923 23.1699 12.8068 23.0844C14.8693 23.0874 17.9248 23.0941 18.0681 23.0889C18.6193 23.0664 19.1308 22.8324 19.4991 22.4311C19.8433 22.0569 20.0203 21.5769 19.9986 21.0811C19.9978 21.0729 19.9978 21.0646 19.9978 21.0564C19.9986 18.9114 19.9986 15.6571 19.9933 15.4824C19.9086 14.4384 18.9306 13.6344 17.8101 13.7221C16.2606 13.7199 14.1463 13.7169 13.1353 13.7169ZM12.6096 24.2168C11.0241 24.2176 9.64108 23.0026 9.51058 21.4088C9.50833 21.3781 9.50083 21.2843 9.50308 15.7576C9.46708 14.9843 9.74758 14.2163 10.2951 13.6186C10.8666 12.9946 11.6548 12.6308 12.5151 12.5941C12.6193 12.5866 16.2253 12.5956 17.7696 12.5986C19.4571 12.4801 20.9803 13.7326 21.1161 15.4133C21.1221 15.4951 21.1243 17.3888 21.1228 21.0451C21.1543 21.8371 20.8723 22.5998 20.3278 23.1923C19.7556 23.8156 18.9666 24.1778 18.1071 24.2131C18.0021 24.2206 14.3946 24.2108 12.8481 24.2078C12.7686 24.2138 12.6891 24.2168 12.6096 24.2168Z" fill="#DF4D6F"/>
</g>
<path fill-rule="evenodd" clip-rule="evenodd" d="M23.6139 22.6028C23.2756 22.6028 22.9419 22.4866 22.6666 22.2608L20.2059 20.2388C19.9659 20.0416 19.9314 19.6868 20.1286 19.4468C20.3251 19.2076 20.6799 19.1716 20.9199 19.3696L23.3799 21.3916C23.5456 21.5266 23.7121 21.4711 23.7766 21.4396C23.8411 21.4096 23.9904 21.3158 23.9904 21.1028L23.9994 15.5911C24.0001 15.3781 23.8501 15.2843 23.7856 15.2536C23.7219 15.2236 23.5531 15.1673 23.3889 15.3023L20.9191 17.3236C20.6776 17.5208 20.3244 17.4856 20.1279 17.2441C19.9306 17.0041 19.9666 16.6501 20.2066 16.4536L22.6764 14.4316C23.1294 14.0603 23.7391 13.9876 24.2679 14.2373C24.7966 14.4886 25.1251 15.0076 25.1244 15.5926L25.1154 21.1043C25.1146 21.6893 24.7854 22.2083 24.2574 22.4573C24.0504 22.5556 23.8314 22.6028 23.6139 22.6028Z" fill="#DF4D6F"/>
<rect x="0.5" y="1.34082" width="33" height="33" rx="5.5" stroke="#F2B8C5"/>
</svg>
