<svg width="24" height="25" viewBox="0 0 24 25" fill="none" xmlns="http://www.w3.org/2000/svg">
<path d="M22 9.21C21.9974 8.40485 21.7197 7.62477 21.2129 6.99906C20.7062 6.37334 20.0009 5.93956 19.2139 5.7696V3.64305C19.2134 3.07484 18.9874 2.53004 18.5856 2.12826C18.1839 1.72647 17.6391 1.50052 17.0709 1.5H4.5361C3.59871 1.50103 2.70001 1.87381 2.0371 2.53657C1.3742 3.19934 1.00123 4.09796 1 5.03535V6.4284V6.4317V6.435V18.96C1.00103 19.8986 1.37433 20.7984 2.03798 21.462C2.70164 22.1257 3.60145 22.499 4.54 22.5H13.5733C14.7121 23.5059 16.1916 24.0398 17.7103 23.9928C19.229 23.9458 20.6726 23.3215 21.7471 22.2471C22.8215 21.1726 23.4458 19.729 23.4928 18.2103C23.5398 16.6916 23.0059 15.2121 22 14.0733V9.21ZM2.5 5.03535C2.50087 4.49568 2.71569 3.97837 3.09737 3.59684C3.47904 3.2153 3.99643 3.00067 4.5361 3H17.0709C17.2413 3.00024 17.4047 3.06806 17.5253 3.18861C17.6458 3.30915 17.7137 3.47258 17.7139 3.64305V5.6784H2.5V5.03535ZM2.5 18.9601V7.185H18.46C18.9988 7.18372 19.5162 7.39618 19.8986 7.77579C20.281 8.1554 20.4973 8.67117 20.5 9.21V12.8344C19.5922 12.2941 18.5565 12.006 17.5 12C15.9092 12.0017 14.3841 12.6343 13.2592 13.7592C12.1343 14.8841 11.5017 16.4092 11.5 18C11.5061 19.0565 11.7941 20.0921 12.3344 21H4.54C3.99917 20.9993 3.48068 20.7842 3.09825 20.4018C2.71582 20.0193 2.50067 19.5008 2.5 18.96V18.9601ZM17.5 22.5002C16.3315 22.4992 15.2096 22.0417 14.3737 21.2251L14.3528 21.2079C13.9257 20.7929 13.5853 20.2972 13.3515 19.7496C13.1176 19.2019 12.9949 18.6133 12.9904 18.0178C12.986 17.4223 13.1 16.8319 13.3257 16.2808C13.5514 15.7297 13.8844 15.229 14.3053 14.8078C14.7263 14.3865 15.2267 14.0531 15.7776 13.8269C16.3284 13.6007 16.9188 13.4863 17.5143 13.4902C18.1097 13.4941 18.6985 13.6164 19.2464 13.8498C19.7942 14.0832 20.2902 14.4232 20.7055 14.85L20.7267 14.8757C21.3432 15.509 21.7591 16.3102 21.9224 17.1789C22.0857 18.0475 21.989 18.9451 21.6446 19.7591C21.3001 20.573 20.7231 21.2673 19.9858 21.7549C19.2486 22.2424 18.3839 22.5016 17.5 22.5V22.5002Z" fill="#3B3B3B"/>
<path d="M19.75 17.25H18.25V15.75C18.25 15.5511 18.171 15.3603 18.0303 15.2197C17.8897 15.079 17.6989 15 17.5 15C17.3011 15 17.1103 15.079 16.9697 15.2197C16.829 15.3603 16.75 15.5511 16.75 15.75V17.25H15.25C15.0511 17.25 14.8603 17.329 14.7197 17.4697C14.579 17.6103 14.5 17.8011 14.5 18C14.5 18.1989 14.579 18.3897 14.7197 18.5303C14.8603 18.671 15.0511 18.75 15.25 18.75H16.75V20.25C16.75 20.4489 16.829 20.6397 16.9697 20.7803C17.1103 20.921 17.3011 21 17.5 21C17.6989 21 17.8897 20.921 18.0303 20.7803C18.171 20.6397 18.25 20.4489 18.25 20.25V18.75H19.75C19.9489 18.75 20.1397 18.671 20.2803 18.5303C20.421 18.3897 20.5 18.1989 20.5 18C20.5 17.8011 20.421 17.6103 20.2803 17.4697C20.1397 17.329 19.9489 17.25 19.75 17.25Z" fill="#3B3B3B"/>
</svg>
