<svg width="24" height="24" viewBox="0 0 24 24" fill="none" xmlns="http://www.w3.org/2000/svg">
<rect width="24" height="24" rx="6" fill="#F9DBE2"/>
<path fill-rule="evenodd" clip-rule="evenodd" d="M17.064 6.00059L4.36722 6C3.60985 5.99997 3.00012 6.60972 3.00012 7.3671L3 9.54614H18.5166L18.5167 7.36767C18.5168 6.52945 18.0433 6.00059 17.064 6.00059Z" fill="#E5718C"/>
<path fill-rule="evenodd" clip-rule="evenodd" d="M3.00391 8.05078V9.56064L18.5449 9.56064V8.05078H3.00391Z" fill="#DF4D6F"/>
<path fill-rule="evenodd" clip-rule="evenodd" d="M7.91111 8.05078C7.87919 8.1718 7.86328 8.29577 7.86328 8.42152C7.86329 8.69974 7.94466 8.96948 8.0945 9.21687H9.95361C10.038 8.96125 10.0823 8.69335 10.0827 8.42152C10.0824 8.29691 10.0728 8.17307 10.0545 8.05078H7.91111Z" fill="#DF4D6F"/>
<path fill-rule="evenodd" clip-rule="evenodd" d="M3 7.5625C3 8.59065 3.97435 8.9711 4.49186 8.9711H18.4287C19.1861 8.9711 19.7958 9.58083 19.7958 10.3382V17.6034C19.7958 18.3608 19.1861 18.9705 18.4287 18.9705H4.3671C3.60972 18.9705 3 18.3608 3 17.6034V7.5625Z" fill="#EC94A9"/>
<path fill-rule="evenodd" clip-rule="evenodd" d="M17.4111 8.96875C18.1479 9.14399 18.7782 9.57849 18.7782 10.3359V12.7241H17.9307C14.9874 12.7241 14.9547 16.8118 17.9307 16.8118H18.7782V17.601C18.7782 18.3584 18.1684 18.9681 17.4111 18.9681H18.4266C19.184 18.9681 19.7937 18.3584 19.7937 17.601V16.8118V12.7241V10.3359C19.7937 9.57849 19.184 8.96875 18.4266 8.96875H17.4111Z" fill="#E5718C"/>
<path fill-rule="evenodd" clip-rule="evenodd" d="M17.9346 11.8672H19.7977C20.4469 11.8672 20.9695 12.3898 20.9695 13.039V14.7831C20.9695 15.4323 20.4469 15.9549 19.7977 15.9549H17.9346C14.9586 15.9549 14.9913 11.8672 17.9346 11.8672Z" fill="#E5718C"/>
<path fill-rule="evenodd" clip-rule="evenodd" d="M20.1379 11.9141C20.1703 12.0218 20.188 12.136 20.188 12.2545V13.9987C20.188 14.5994 19.7404 15.0914 19.1592 15.1615C19.2722 15.0798 19.3641 14.9733 19.4275 14.8506C19.4909 14.7278 19.524 14.5922 19.5242 14.4546C19.5242 14.339 19.5009 14.2246 19.4557 14.1178C19.4105 14.011 19.3443 13.9139 19.2608 13.8322C19.1773 13.7504 19.0782 13.6856 18.9691 13.6414C18.86 13.5971 18.7431 13.5744 18.625 13.5744C18.3866 13.5744 18.1579 13.6671 17.9893 13.8322C17.8207 13.9973 17.7259 14.2212 17.7259 14.4546C17.7261 14.5947 17.7604 14.7327 17.8259 14.8572C17.8915 14.9817 17.9865 15.0891 18.103 15.1705H17.1531C16.6778 15.1705 16.2792 15.0658 15.957 14.8906C16.2839 15.4967 16.9417 15.9517 17.9343 15.9517H19.7974C20.4466 15.9517 20.9692 15.4291 20.9692 14.7799V13.0357C20.9692 12.5051 20.6199 12.0593 20.1379 11.9141Z" fill="#DF4D6F"/>
<path fill-rule="evenodd" clip-rule="evenodd" d="M3.9375 10.0703V10.2265H4.25006V10.0703H3.9375ZM4.71847 10.0703V10.2265H5.0311V10.0703H4.71847ZM5.49991 10.0703V10.2265H5.81247V10.0703H5.49991ZM6.28111 10.0703V10.2265H6.59359V10.0703H6.28111ZM7.06208 10.0703V10.2265H7.37471V10.0703H7.06208ZM7.84352 10.0703V10.2265H8.15608V10.0703H7.84352ZM8.62464 10.0703V10.2265H8.9372V10.0703H8.62464ZM9.40568 10.0703V10.2265H9.71832V10.0703H9.40568ZM10.1871 10.0703V10.2265H10.4997V10.0703H10.1871ZM10.9682 10.0703V10.2265H11.2808V10.0703H10.9682ZM11.7493 10.0703V10.2265H12.0619V10.0703H11.7493ZM12.5307 10.0703V10.2265H12.8433V10.0703H12.5307ZM13.3119 10.0703V10.2265H13.6245V10.0703H13.3119ZM14.0929 10.0703V10.2265H14.4055V10.0703H14.0929ZM14.8743 10.0703V10.2265H15.1869V10.0703H14.8743ZM15.6555 10.0703V10.2265H15.968V10.0703H15.6555ZM16.5149 10.0703V10.2265H16.8274V10.0703H16.5149ZM17.2963 10.0703V10.2265H17.6089V10.0703H17.2963ZM18.0774 10.0762V10.2325H18.39V10.0762H18.0774ZM18.2337 10.5904V10.9029H18.39V10.5904H18.2337Z" fill="#E7EDFB"/>
<path fill-rule="evenodd" clip-rule="evenodd" d="M18.8998 13.9077C18.8998 14.1411 18.8051 14.365 18.6365 14.5301C18.4679 14.6952 18.2392 14.7879 18.0007 14.7879C17.7622 14.7879 17.5335 14.6952 17.3649 14.5301C17.1963 14.365 17.1016 14.1411 17.1016 13.9077C17.1016 13.7921 17.1248 13.6776 17.17 13.5708C17.2152 13.464 17.2814 13.3669 17.3649 13.2852C17.4484 13.2034 17.5475 13.1386 17.6566 13.0944C17.7657 13.0501 17.8826 13.0273 18.0007 13.0273C18.1188 13.0273 18.2357 13.0501 18.3448 13.0944C18.4539 13.1386 18.553 13.2034 18.6365 13.2852C18.72 13.3669 18.7862 13.464 18.8314 13.5708C18.8766 13.6776 18.8998 13.7921 18.8998 13.9077Z" fill="#E7EDFB"/>
<path fill-rule="evenodd" clip-rule="evenodd" d="M18.3006 13.0781C18.332 13.1684 18.3488 13.2645 18.3492 13.3599C18.3492 13.846 17.9467 14.2402 17.4501 14.2401C17.3463 14.2401 17.2421 14.2218 17.1445 14.187C17.2674 14.5451 17.6111 14.7865 17.9969 14.787C18.4935 14.787 18.8961 14.3929 18.8961 13.9067C18.8961 13.5358 18.6571 13.2036 18.3006 13.0781Z" fill="#F2B8C5"/>
<path fill-rule="evenodd" clip-rule="evenodd" d="M3.9375 17.7955V17.6393H4.25006V17.7955H3.9375ZM4.71847 17.7955V17.6393H5.0311V17.7955H4.71847ZM5.49991 17.7955V17.6393H5.81247V17.7955H5.49991ZM6.28111 17.7955V17.6393H6.59359V17.7955H6.28111ZM7.06208 17.7955V17.6393H7.37471V17.7955H7.06208ZM7.84352 17.7955V17.6393H8.15608V17.7955H7.84352ZM8.62464 17.7955V17.6393H8.9372V17.7955H8.62464ZM9.40568 17.7955V17.6393H9.71832V17.7955H9.40568ZM10.1871 17.7955V17.6393H10.4997V17.7955H10.1871ZM10.9682 17.7955V17.6393H11.2808V17.7955H10.9682ZM11.7493 17.7955V17.6393H12.0619V17.7955H11.7493ZM12.5307 17.7955V17.6393H12.8433V17.7955H12.5307ZM13.3119 17.7955V17.6393H13.6245V17.7955H13.3119ZM14.0929 17.7955V17.6393H14.4055V17.7955H14.0929ZM14.8743 17.7955V17.6393H15.1869V17.7955H14.8743ZM15.6555 17.7955V17.6393H15.968V17.7955H15.6555ZM16.5149 17.7955V17.6393H16.8274V17.7955H16.5149ZM17.2963 17.7955V17.6393H17.6089V17.7955H17.2963ZM18.0774 17.7896V17.6334H18.39V17.7896H18.0774ZM18.2337 17.1485V16.8359H18.39V17.1485H18.2337Z" fill="#E7EDFB"/>
<path d="M5.22262 13.5938H10.3205C10.6451 13.5938 10.9064 13.8551 10.9064 14.1797V15.8803C10.9064 16.2049 10.6451 16.4662 10.3205 16.4662H5.22262C4.89803 16.4662 4.63672 16.2049 4.63672 15.8803V14.1797C4.63672 13.8551 4.89803 13.5938 5.22262 13.5938Z" fill="#FCEEF1"/>
<path fill-rule="evenodd" clip-rule="evenodd" d="M5.6643 14.3867C5.57787 14.3867 5.50781 14.4568 5.50781 14.5432C5.50777 14.6297 5.57784 14.6998 5.6643 14.6998H9.02524C9.11173 14.6998 9.18185 14.6297 9.18181 14.5432C9.18181 14.4568 9.1117 14.3867 9.02524 14.3867H5.6643ZM5.6643 15.3134C5.57784 15.3134 5.50777 15.3835 5.50781 15.47C5.50781 15.5564 5.57787 15.6265 5.6643 15.6265H7.31016C7.39658 15.6265 7.46664 15.5564 7.46664 15.47C7.46668 15.3835 7.39661 15.3134 7.31016 15.3134H5.6643Z" fill="#EC94A9"/>
</svg>
