<svg width="13" height="16" viewBox="0 0 13 16" fill="none" xmlns="http://www.w3.org/2000/svg">
<path fill-rule="evenodd" clip-rule="evenodd" d="M9.69219 6.15007C9.38169 6.15007 9.12969 5.89807 9.12969 5.58757V3.97732C9.12969 2.40532 7.85094 1.12657 6.27894 1.12657H6.26694C5.50719 1.12657 4.79544 1.41907 4.25769 1.95232C3.71619 2.48782 3.41694 3.20257 3.41394 3.96457V5.58757C3.41394 5.89807 3.16194 6.15007 2.85144 6.15007C2.54094 6.15007 2.28894 5.89807 2.28894 5.58757V3.97732C2.29344 2.89732 2.71119 1.90057 3.46494 1.15357C4.21944 0.405819 5.21544 -0.0269308 6.28119 0.00156922C8.47119 0.00156922 10.2547 1.78507 10.2547 3.97732V5.58757C10.2547 5.89807 10.0027 6.15007 9.69219 6.15007Z" fill="#717171"/>
<path fill-rule="evenodd" clip-rule="evenodd" d="M3.4065 6.09668C2.148 6.09668 1.125 7.11968 1.125 8.37818V11.5949C1.125 12.8534 2.148 13.8764 3.4065 13.8764H9.13725C10.395 13.8764 11.4187 12.8534 11.4187 11.5949V8.37818C11.4187 7.11968 10.395 6.09668 9.13725 6.09668H3.4065ZM9.13725 15.0014H3.4065C1.52775 15.0014 0 13.4737 0 11.5949V8.37818C0 6.49943 1.52775 4.97168 3.4065 4.97168H9.13725C11.016 4.97168 12.5438 6.49943 12.5438 8.37818V11.5949C12.5438 13.4737 11.016 15.0014 9.13725 15.0014Z" fill="#717171"/>
<path fill-rule="evenodd" clip-rule="evenodd" d="M6.27173 11.3818C5.96123 11.3818 5.70923 11.1298 5.70923 10.8193V9.15356C5.70923 8.84306 5.96123 8.59106 6.27173 8.59106C6.58223 8.59106 6.83423 8.84306 6.83423 9.15356V10.8193C6.83423 11.1298 6.58223 11.3818 6.27173 11.3818Z" fill="#717171"/>
</svg>
