<svg width="32" height="32" viewBox="0 0 32 32" fill="none" xmlns="http://www.w3.org/2000/svg">
<path d="M0 16C0 7.16344 7.16344 0 16 0C24.8366 0 32 7.16344 32 16C32 24.8366 24.8366 32 16 32C7.16344 32 0 24.8366 0 16Z" fill="#FF5D8F"/>
<path fill-rule="evenodd" clip-rule="evenodd" d="M16 5.25C13.3766 5.25 11.25 7.37665 11.25 10C11.25 12.6234 13.3766 14.75 16 14.75C18.6234 14.75 20.75 12.6234 20.75 10C20.75 7.37665 18.6234 5.25 16 5.25ZM12.75 10C12.75 8.20507 14.2051 6.75 16 6.75C17.7949 6.75 19.25 8.20507 19.25 10C19.25 11.7949 17.7949 13.25 16 13.25C14.2051 13.25 12.75 11.7949 12.75 10Z" fill="white"/>
<path fill-rule="evenodd" clip-rule="evenodd" d="M13 16.25C10.3766 16.25 8.25 18.3766 8.25 21C8.25 23.6234 10.3766 25.75 13 25.75H19C21.6234 25.75 23.75 23.6234 23.75 21C23.75 18.3766 21.6234 16.25 19 16.25H13ZM9.75 21C9.75 19.2051 11.2051 17.75 13 17.75H19C20.7949 17.75 22.25 19.2051 22.25 21C22.25 22.7949 20.7949 24.25 19 24.25H13C11.2051 24.25 9.75 22.7949 9.75 21Z" fill="white"/>
</svg>
