<svg width="32" height="32" viewBox="0 0 32 32" fill="none" xmlns="http://www.w3.org/2000/svg">
<path d="M0 16C0 7.16344 7.16344 0 16 0C24.8366 0 32 7.16344 32 16C32 24.8366 24.8366 32 16 32C7.16344 32 0 24.8366 0 16Z" fill="white"/>
<path d="M9.06107 25.0451L9.50191 24.4383L9.06107 25.0451ZM7.95491 23.9389L8.56168 23.4981L7.95491 23.9389ZM24.0451 23.9389L23.4383 23.4981L24.0451 23.9389ZM22.9389 25.0451L22.4981 24.4383L22.9389 25.0451ZM22.9389 6.95491L23.3798 6.34815L22.9389 6.95491ZM24.0451 8.06107L23.4383 8.50191L24.0451 8.06107ZM9.06107 6.95491L9.50191 7.56168L9.06107 6.95491ZM7.95491 8.06107L8.56168 8.50191L7.95491 8.06107ZM17.1461 10.5953L17.2635 11.3361L17.1461 10.5953ZM15.5818 10.5953L15.4645 11.3361L15.5818 10.5953ZM12 19.25C11.5858 19.25 11.25 19.5858 11.25 20C11.25 20.4142 11.5858 20.75 12 20.75V19.25ZM20 20.75C20.4142 20.75 20.75 20.4142 20.75 20C20.75 19.5858 20.4142 19.25 20 19.25V20.75ZM14 15.25C13.5858 15.25 13.25 15.5858 13.25 16C13.25 16.4142 13.5858 16.75 14 16.75V15.25ZM18 16.75C18.4142 16.75 18.75 16.4142 18.75 16C18.75 15.5858 18.4142 15.25 18 15.25V16.75ZM24.25 15V17H25.75V15H24.25ZM7.75 17V15H6.25V17H7.75ZM16 25.25C14.1084 25.25 12.75 25.249 11.698 25.135C10.6601 25.0225 10.0099 24.8074 9.50191 24.4383L8.62023 25.6518C9.42656 26.2377 10.3709 26.5 11.5365 26.6263C12.688 26.751 14.1418 26.75 16 26.75V25.25ZM6.25 17C6.25 18.8582 6.24897 20.312 6.37373 21.4635C6.50001 22.6291 6.76232 23.5734 7.34815 24.3798L8.56168 23.4981C8.19259 22.9901 7.97745 22.3399 7.865 21.302C7.75103 20.25 7.75 18.8916 7.75 17H6.25ZM9.50191 24.4383C9.14111 24.1762 8.82382 23.8589 8.56168 23.4981L7.34815 24.3798C7.70281 24.8679 8.13209 25.2972 8.62023 25.6518L9.50191 24.4383ZM24.25 17C24.25 18.8916 24.249 20.25 24.135 21.302C24.0225 22.3399 23.8074 22.9901 23.4383 23.4981L24.6518 24.3798C25.2377 23.5734 25.5 22.6291 25.6263 21.4635C25.751 20.312 25.75 18.8582 25.75 17H24.25ZM16 26.75C17.8582 26.75 19.312 26.751 20.4635 26.6263C21.6291 26.5 22.5734 26.2377 23.3798 25.6518L22.4981 24.4383C21.9901 24.8074 21.3399 25.0225 20.302 25.135C19.25 25.249 17.8916 25.25 16 25.25V26.75ZM23.4383 23.4981C23.1762 23.8589 22.8589 24.1762 22.4981 24.4383L23.3798 25.6518C23.8679 25.2972 24.2972 24.8679 24.6518 24.3798L23.4383 23.4981ZM25.75 15C25.75 13.1418 25.751 11.688 25.6263 10.5365C25.5 9.37094 25.2377 8.42656 24.6518 7.62023L23.4383 8.50191C23.8074 9.00992 24.0225 9.66013 24.135 10.698C24.249 11.75 24.25 13.1084 24.25 15H25.75ZM22.4981 7.56168C22.8589 7.82382 23.1762 8.14111 23.4383 8.50191L24.6518 7.62023C24.2972 7.13209 23.8679 6.70281 23.3798 6.34815L22.4981 7.56168ZM7.75 15C7.75 13.1084 7.75103 11.75 7.865 10.698C7.97745 9.66013 8.19259 9.00992 8.56168 8.50191L7.34815 7.62023C6.76232 8.42656 6.50001 9.37094 6.37373 10.5365C6.24897 11.688 6.25 13.1418 6.25 15H7.75ZM8.62023 6.34815C8.13209 6.70281 7.70281 7.13209 7.34815 7.62023L8.56168 8.50191C8.82382 8.14111 9.14111 7.82382 9.50191 7.56168L8.62023 6.34815ZM17.0288 9.85454C16.5883 9.92431 16.1396 9.92431 15.6991 9.85454L15.4645 11.3361C16.0604 11.4305 16.6675 11.4305 17.2635 11.3361L17.0288 9.85454ZM21.9103 6.12083C20.6701 7.36015 19.7663 8.25006 18.9856 8.8649C18.2161 9.47095 17.6262 9.75993 17.0288 9.85454L17.2635 11.3361C18.2116 11.1859 19.0379 10.733 19.9137 10.0433C20.7783 9.36245 21.7488 8.40277 22.9706 7.18187L21.9103 6.12083ZM16 6.75C17.6617 6.75 18.9149 6.75053 19.9149 6.82911C20.9124 6.9075 21.5844 7.05963 22.1028 7.32103L22.7782 5.98168C22.0049 5.59173 21.107 5.41817 20.0324 5.33372C18.9603 5.24947 17.6391 5.25 16 5.25V6.75ZM22.1028 7.32103C22.2431 7.3918 22.374 7.4715 22.4981 7.56168L23.3798 6.34815C23.1892 6.20967 22.9892 6.08809 22.7782 5.98168L22.1028 7.32103ZM9.5419 6.96653C10.8325 8.25703 11.8454 9.26842 12.7384 9.98311C13.6424 10.7067 14.489 11.1816 15.4645 11.3361L15.6991 9.85454C15.0846 9.75721 14.4781 9.45425 13.6757 8.81202C12.8622 8.16095 11.9154 7.21868 10.6025 5.90585L9.5419 6.96653ZM16 5.25C14.5637 5.25 13.3737 5.24973 12.3848 5.30572C11.3967 5.36167 10.5563 5.47576 9.82759 5.7272L10.3168 7.14517C10.8523 6.96043 11.5319 6.85642 12.4696 6.80332C13.4067 6.75027 14.5485 6.75 16 6.75V5.25ZM9.82759 5.7272C9.38699 5.87923 8.98789 6.08103 8.62023 6.34815L9.50191 7.56168C9.73848 7.3898 10.0028 7.25352 10.3168 7.14517L9.82759 5.7272ZM12 20.75H20V19.25H12V20.75ZM14 16.75H18V15.25H14V16.75Z" fill="#B8B8B8"/>
</svg>
