<svg width="32" height="32" viewBox="0 0 32 32" fill="none" xmlns="http://www.w3.org/2000/svg">
<path d="M0 16C0 7.16344 7.16344 0 16 0C24.8366 0 32 7.16344 32 16C32 24.8366 24.8366 32 16 32C7.16344 32 0 24.8366 0 16Z" fill="#FF5D8F"/>
<path d="M8.36619 19.5496L9.041 19.2223L8.36619 19.5496ZM9.17514 15.2731L9.68376 15.8243H9.68376L9.17514 15.2731ZM10.3219 12.1372L9.57773 12.2302V12.2302L10.3219 12.1372ZM22.8564 15.3945L23.3668 14.845L23.3668 14.845L22.8564 15.3945ZM23.4783 20.2347L22.8456 19.832L23.4783 20.2347ZM21.6015 12.026L22.3458 12.119V12.119L21.6015 12.026ZM22.8125 15.3538L22.3021 15.9033L22.3021 15.9033L22.8125 15.3538ZM8.46954 19.7627L7.79474 20.09H7.79474L8.46954 19.7627ZM21.6662 11.5091L20.922 11.416V11.416L21.6662 11.5091ZM10.2426 11.5023L10.9868 11.4093V11.4093L10.2426 11.5023ZM13.4834 25.4L14.0834 24.95H14.0834L13.4834 25.4ZM13.7834 24.55C13.5348 24.2186 13.0647 24.1515 12.7334 24.4C12.402 24.6485 12.3348 25.1186 12.5834 25.45L13.7834 24.55ZM19.7834 25.45C20.0319 25.1186 19.9647 24.6485 19.6334 24.4C19.302 24.1515 18.8319 24.2186 18.5834 24.55L19.7834 25.45ZM18.8834 25.4L18.2834 24.95H18.2834L18.8834 25.4ZM15.0999 6.75H16.8029V5.25H15.0999V6.75ZM20.2623 21.25H12.0414V22.75H20.2623V21.25ZM20.922 11.416L20.8573 11.933L22.3458 12.119L22.4104 11.6021L20.922 11.416ZM22.3021 15.9033L22.346 15.9441L23.3668 14.845L23.3229 14.8042L22.3021 15.9033ZM11.0661 12.0442L10.9868 11.4093L9.49838 11.5954L9.57773 12.2302L11.0661 12.0442ZM9.14435 19.4353L9.041 19.2223L7.69139 19.8769L7.79474 20.09L9.14435 19.4353ZM9.041 19.2223C8.48292 18.0718 8.74401 16.6915 9.68376 15.8243L8.66651 14.7219C7.24083 16.0375 6.84474 18.1315 7.69139 19.8769L9.041 19.2223ZM9.57773 12.2302C9.69385 13.1592 9.35452 14.0871 8.66651 14.7219L9.68376 15.8243C10.7275 14.8611 11.2423 13.4535 11.0661 12.0442L9.57773 12.2302ZM22.346 15.9441C23.4289 16.9497 23.639 18.5852 22.8456 19.832L24.111 20.6373C25.2932 18.7799 24.9801 16.3432 23.3668 14.845L22.346 15.9441ZM20.8573 11.933C20.6725 13.4117 21.2101 14.8892 22.3021 15.9033L23.3229 14.8042C22.5843 14.1183 22.2207 13.1191 22.3458 12.119L20.8573 11.933ZM12.0414 21.25C10.8079 21.25 9.68272 20.5452 9.14435 19.4353L7.79474 20.09C8.58391 21.7169 10.2332 22.75 12.0414 22.75V21.25ZM20.2623 22.75C21.822 22.75 23.2736 21.9532 24.111 20.6373L22.8456 19.832C22.2835 20.7152 21.3091 21.25 20.2623 21.25V22.75ZM16.8029 6.75C19.2998 6.75 21.2317 8.93841 20.922 11.416L22.4104 11.6021C22.832 8.22918 20.202 5.25 16.8029 5.25V6.75ZM15.0999 5.25C11.7044 5.25 9.07721 8.22603 9.49838 11.5954L10.9868 11.4093C10.6775 8.93526 12.6066 6.75 15.0999 6.75V5.25ZM14.0834 24.95L13.7834 24.55L12.5834 25.45L12.8834 25.85L14.0834 24.95ZM18.5834 24.55L18.2834 24.95L19.4834 25.85L19.7834 25.45L18.5834 24.55ZM12.8834 25.85C14.5334 28.05 17.8334 28.05 19.4834 25.85L18.2834 24.95C17.2334 26.35 15.1334 26.35 14.0834 24.95L12.8834 25.85Z" fill="white"/>
</svg>
