<svg width="32" height="32" viewBox="0 0 32 32" fill="none" xmlns="http://www.w3.org/2000/svg">
<path d="M0 16C0 7.16344 7.16344 0 16 0C24.8366 0 32 7.16344 32 16C32 24.8366 24.8366 32 16 32C7.16344 32 0 24.8366 0 16Z" fill="#FF5D8F"/>
<path d="M27.2969 9.625H26.189C24.0103 6.14509 20.1264 4 15.9531 4C11.7088 4 7.94031 6.22023 5.8112 9.625H4.70312C4.31481 9.625 4 9.93981 4 10.3281C4 10.7164 4.31481 11.0312 4.70312 11.0312C5.00664 11.0312 27.0394 11.0312 27.2969 11.0312C27.6852 11.0312 28 10.7164 28 10.3281C28 9.93981 27.6852 9.625 27.2969 9.625ZM7.51567 9.625C8.63444 8.13827 10.1215 6.98406 11.8047 6.26163C11.0728 7.16509 10.4484 8.30997 9.97103 9.625H7.51567ZM15.25 9.625H11.4761C12.3996 7.35498 13.7702 5.85733 15.25 5.49292V9.625ZM16.6562 9.625V5.49189C18.168 5.85789 19.5929 7.3788 20.5209 9.625H16.6562ZM22.0285 9.625C21.5506 8.31658 20.914 7.17194 20.1591 6.26219C21.8613 6.98462 23.3605 8.13864 24.483 9.625H22.0285Z" fill="white"/>
<path d="M27.2969 20.9688C26.9736 20.9688 5.23572 20.9688 4.70312 20.9688C4.31481 20.9688 4 21.2836 4 21.6719C4 22.0602 4.31481 22.375 4.70312 22.375H5.8112C7.94144 25.7816 11.7108 28 15.9531 28C20.1264 28 24.0103 25.8549 26.189 22.375H27.2969C27.6852 22.375 28 22.0602 28 21.6719C28 21.2836 27.6852 20.9688 27.2969 20.9688ZM7.51567 22.375H9.97103C10.4484 23.6901 11.0728 24.835 11.8047 25.7384C10.1215 25.016 8.63444 23.8617 7.51567 22.375ZM15.25 26.5071C13.7702 26.1427 12.3996 24.645 11.4761 22.375H15.25V26.5071ZM16.6562 26.5081V22.375H20.5209C19.5929 24.6212 18.168 26.1422 16.6562 26.5081ZM20.1591 25.7378C20.914 24.8281 21.5506 23.6834 22.0285 22.375H24.483C23.3605 23.8614 21.8613 25.0154 20.1591 25.7378Z" fill="white"/>
<path d="M7.51562 12.5312C7.12731 12.5312 6.8125 12.8461 6.8125 13.2344V15.8809L5.33205 12.9199C5.00177 12.2594 4 12.4952 4 13.2344V18.8594C4 19.2477 4.31481 19.5625 4.70312 19.5625C5.09144 19.5625 5.40625 19.2477 5.40625 18.8594V16.2129L6.8867 19.1738C7.21867 19.8377 8.21875 19.5985 8.21875 18.8594V13.2344C8.21875 12.8461 7.90394 12.5312 7.51562 12.5312Z" fill="white"/>
<path d="M13.1406 16.75C13.5289 16.75 13.8438 16.4352 13.8438 16.0469C13.8438 15.6586 13.5289 15.3438 13.1406 15.3438H11.0312V13.9375H13.1406C13.5289 13.9375 13.8438 13.6227 13.8438 13.2344C13.8438 12.8461 13.5289 12.5312 13.1406 12.5312H10.3281C9.93981 12.5312 9.625 12.8461 9.625 13.2344V18.8594C9.625 19.2477 9.93981 19.5625 10.3281 19.5625H13.1406C13.5289 19.5625 13.8438 19.2477 13.8438 18.8594C13.8438 18.4711 13.5289 18.1562 13.1406 18.1562H11.0312V16.75H13.1406Z" fill="white"/>
<path d="M21.8425 12.5524C21.4663 12.4583 21.0841 12.6873 20.9899 13.064L20.0446 16.845L19.4884 15.7326C19.2296 15.2147 18.4889 15.2159 18.2307 15.7326L17.6744 16.845L16.7292 13.064C16.635 12.6873 16.2531 12.4582 15.8765 12.5524C15.4998 12.6466 15.2707 13.0283 15.3649 13.4051L16.7712 19.0301C16.9288 19.6604 17.7906 19.7571 18.0822 19.174L18.8595 17.6193L19.6369 19.174C19.9288 19.7579 20.7898 19.662 20.9479 19.0301L22.3541 13.4051C22.4483 13.0283 22.2193 12.6466 21.8425 12.5524Z" fill="white"/>
<path d="M25.8906 15.3438C25.5019 15.3438 25.1875 15.0293 25.1875 14.6406C25.1875 14.2518 25.5021 13.9375 25.8906 13.9375C26.2793 13.9375 26.5938 14.2519 26.5938 14.6406C26.5938 15.0289 26.9086 15.3438 27.2969 15.3438C27.6852 15.3438 28 15.0289 28 14.6406C28 13.4748 27.0565 12.5312 25.8906 12.5312C24.7247 12.5312 23.7812 13.4747 23.7812 14.6406C23.7812 15.8065 24.7247 16.75 25.8906 16.75C26.2793 16.75 26.5938 17.0644 26.5938 17.4531C26.5938 17.8418 26.2793 18.1562 25.8906 18.1562C25.5019 18.1562 25.1875 17.8418 25.1875 17.4531C25.1875 17.0648 24.8727 16.75 24.4844 16.75C24.0961 16.75 23.7812 17.0648 23.7812 17.4531C23.7812 18.619 24.7247 19.5625 25.8906 19.5625C27.0565 19.5625 28 18.619 28 17.4531C28 16.2873 27.0565 15.3438 25.8906 15.3438Z" fill="white"/>
</svg>
