<svg width="20" height="20" viewBox="0 0 20 20" fill="none" xmlns="http://www.w3.org/2000/svg">
<path d="M9.99984 18.3334C5.39734 18.3334 1.6665 14.6026 1.6665 10.0001C1.6665 5.39758 5.39734 1.66675 9.99984 1.66675C14.6023 1.66675 18.3332 5.39758 18.3332 10.0001C18.3332 14.6026 14.6023 18.3334 9.99984 18.3334ZM7.08317 11.6667V13.3334H9.1665V15.0001H10.8332V13.3334H11.6665C12.219 13.3334 12.7489 13.1139 13.1396 12.7232C13.5303 12.3325 13.7498 11.8026 13.7498 11.2501C13.7498 10.6975 13.5303 10.1676 13.1396 9.77694C12.7489 9.38624 12.219 9.16675 11.6665 9.16675H8.33317C8.22266 9.16675 8.11668 9.12285 8.03854 9.04471C7.9604 8.96657 7.9165 8.86059 7.9165 8.75008C7.9165 8.63958 7.9604 8.53359 8.03854 8.45545C8.11668 8.37731 8.22266 8.33342 8.33317 8.33342H12.9165V6.66675H10.8332V5.00008H9.1665V6.66675H8.33317C7.78064 6.66675 7.25073 6.88624 6.86003 7.27694C6.46933 7.66764 6.24984 8.19755 6.24984 8.75008C6.24984 9.30262 6.46933 9.83252 6.86003 10.2232C7.25073 10.6139 7.78064 10.8334 8.33317 10.8334H11.6665C11.777 10.8334 11.883 10.8773 11.9611 10.9555C12.0393 11.0336 12.0832 11.1396 12.0832 11.2501C12.0832 11.3606 12.0393 11.4666 11.9611 11.5447C11.883 11.6229 11.777 11.6667 11.6665 11.6667H7.08317Z" fill="#FF6B00"/>
</svg>
