<svg width="20" height="20" viewBox="0 0 20 20" fill="none" xmlns="http://www.w3.org/2000/svg">
<path d="M6.971 8.33333L9.3335 6.66667H14.1668V8.33333H9.88017L7.50017 10H1.66684V8.33333H6.971ZM7.73434 12.55L10.1718 11.6625L10.7418 13.2292L8.30434 14.1158C8.41908 15.0306 8.19283 15.9556 7.66879 16.7141C7.14475 17.4726 6.35965 18.0115 5.46345 18.2279C4.56725 18.4442 3.62277 18.3228 2.8104 17.8869C1.99803 17.451 1.3747 16.7311 1.05949 15.8647C0.744276 14.9983 0.759261 14.0462 1.10158 13.1902C1.44391 12.3341 2.08958 11.6342 2.91526 11.2241C3.74095 10.8139 4.68879 10.7223 5.57773 10.9668C6.46668 11.2112 7.23443 11.7745 7.73434 12.5492V12.55ZM4.5835 16.6667C5.13604 16.6667 5.66594 16.4472 6.05664 16.0565C6.44735 15.6658 6.66684 15.1359 6.66684 14.5833C6.66684 14.0308 6.44735 13.5009 6.05664 13.1102C5.66594 12.7195 5.13604 12.5 4.5835 12.5C4.03097 12.5 3.50107 12.7195 3.11037 13.1102C2.71967 13.5009 2.50017 14.0308 2.50017 14.5833C2.50017 15.1359 2.71967 15.6658 3.11037 16.0565C3.50107 16.4472 4.03097 16.6667 4.5835 16.6667ZM15.4168 18.3333C14.9244 18.3333 14.4367 18.2363 13.9818 18.0479C13.5268 17.8594 13.1134 17.5832 12.7652 17.235C12.417 16.8868 12.1407 16.4734 11.9523 16.0184C11.7638 15.5634 11.6668 15.0758 11.6668 14.5833C11.6668 14.0909 11.7638 13.6032 11.9523 13.1483C12.1407 12.6933 12.417 12.2799 12.7652 11.9317C13.1134 11.5835 13.5268 11.3072 13.9818 11.1188C14.4367 10.9303 14.9244 10.8333 15.4168 10.8333C16.4114 10.8333 17.3652 11.2284 18.0685 11.9317C18.7717 12.6349 19.1668 13.5888 19.1668 14.5833C19.1668 15.5779 18.7717 16.5317 18.0685 17.235C17.3652 17.9382 16.4114 18.3333 15.4168 18.3333ZM15.4168 16.6667C15.9694 16.6667 16.4993 16.4472 16.89 16.0565C17.2807 15.6658 17.5002 15.1359 17.5002 14.5833C17.5002 14.0308 17.2807 13.5009 16.89 13.1102C16.4993 12.7195 15.9694 12.5 15.4168 12.5C14.8643 12.5 14.3344 12.7195 13.9437 13.1102C13.553 13.5009 13.3335 14.0308 13.3335 14.5833C13.3335 15.1359 13.553 15.6658 13.9437 16.0565C14.3344 16.4472 14.8643 16.6667 15.4168 16.6667ZM3.3335 9.16667H8.33351L10.5002 7.7225L10.7335 6.85083L12.3435 7.2825L10.7418 13.225L9.22351 12.485L9.32184 12.1183L7.50017 13.3333L6.66684 11.6667H3.3335V9.16667ZM13.4102 5H16.6668V7.5H14.3202L15.9202 11.8967L14.3535 12.4667L12.5468 7.5H12.5002V7.37333L11.3335 4.16667H9.16684V2.5H12.5002L13.4102 5Z" fill="#3DC459"/>
</svg>
