<svg width="18" height="18" viewBox="0 0 18 18" fill="none" xmlns="http://www.w3.org/2000/svg">
<path d="M8.25 2.95714V2.25C8.25 1.83579 8.58579 1.5 9 1.5V1.5C9.41421 1.5 9.75 1.83579 9.75 2.25V3" stroke="white" stroke-width="1.5"/>
<path d="M9.87567 3H7.92473C6.19761 3 5.02714 4.6163 5.44464 6.2922C5.8552 7.94027 5.83363 9.17402 4.72412 11.5373C4.72412 11.5373 6.86904 11.2834 8.25023 11.25L8.29407 11.2489C8.85261 11.2354 9.17967 11.2275 9.75023 11.25C10.7807 11.2907 11.3551 11.3865 12.3752 11.5373C12.7359 11.5907 13.2968 11.6862 13.2968 11.6862C12.2384 9.96487 12.1576 8.297 12.5098 6.48403C12.8504 4.73027 11.6622 3 9.87567 3Z" fill="white" stroke="white" stroke-width="1.5" stroke-linecap="round"/>
<ellipse cx="9" cy="12.375" rx="5.25" ry="1.125" fill="white" stroke="white" stroke-width="1.5"/>
<path d="M15.3572 8.26936C15.6441 7.6101 15.8204 6.4942 15.1637 5.85686" stroke="white" stroke-width="1.5" stroke-linecap="round"/>
<path d="M2.64396 8.2693C2.3567 7.60998 2.17984 6.49411 2.83633 5.85712" stroke="white" stroke-width="1.5" stroke-linecap="round"/>
<path d="M10.5 15.75C10.5 15.75 10.25 16.5 9 16.5C7.75 16.5 7.5 15.75 7.5 15.75" stroke="white" stroke-width="1.4" stroke-linecap="round" stroke-linejoin="round"/>
</svg>
