<svg width="235" height="167" viewBox="0 0 235 167" fill="none" xmlns="http://www.w3.org/2000/svg">
<path d="M97.824 95.2401L112.342 127.805C112.816 128.873 113.061 130.028 113.062 131.195V158.65C113.062 160.865 112.18 162.988 110.609 164.554C109.039 166.12 106.909 167 104.687 167H20.9375C18.1879 167 15.4653 166.46 12.925 165.411C10.3848 164.362 8.07667 162.824 6.13244 160.886C4.18822 158.947 2.64598 156.646 1.59377 154.114C0.541564 151.581 0 148.866 0 146.125V20.875C0 15.3386 2.20591 10.029 6.13244 6.11415C10.059 2.19932 15.3845 0 20.9375 0H87.9374C90.1585 0 92.2887 0.879731 93.8594 2.44566C95.43 4.01159 96.3123 6.13544 96.3123 8.35V26.6949C96.312 28.3443 96.8016 29.9569 97.7193 31.3292L110.504 50.4507C111.288 51.622 111.762 52.9719 111.882 54.3749C112.002 55.7778 111.764 57.1883 111.191 58.4751L97.824 88.4599C97.3484 89.5272 97.1027 90.6821 97.1027 91.85C97.1027 93.0179 97.3484 94.1728 97.824 95.2401Z" fill="#F3D8DB"/>
<path d="M121.937 8.35V26.6949C121.937 28.3443 122.426 29.9569 123.344 31.3292L136.128 50.4507C136.912 51.622 137.386 52.9719 137.506 54.3749C137.626 55.7778 137.389 57.1883 136.815 58.4751L123.449 88.4599C122.973 89.5272 122.727 90.6821 122.727 91.85C122.727 93.0179 122.973 94.1728 123.449 95.2401L137.967 127.805C138.44 128.873 138.686 130.028 138.687 131.195V158.65C138.687 160.865 139.569 162.988 141.14 164.554C142.711 166.12 144.841 167 147.062 167H214.062C216.811 167 219.534 166.46 222.074 165.411C224.615 164.362 226.923 162.824 228.867 160.886C230.811 158.947 232.353 156.646 233.406 154.114C234.458 151.581 234.999 148.866 234.999 146.125V20.875C234.999 15.3386 232.793 10.029 228.867 6.11415C224.94 2.19932 219.615 0 214.062 0H130.312C128.091 0 125.961 0.879731 124.39 2.44566C122.819 4.01159 121.937 6.13544 121.937 8.35Z" fill="#F3D8DB"/>
<path d="M111.178 58.4916L107.493 66.7999H0V33.3999H99.118L110.508 50.4339C111.291 51.6122 111.763 52.9685 111.88 54.377C111.997 55.7856 111.756 57.2009 111.178 58.4916Z" fill="#F4BBBD"/>
<path d="M235 33.3999V66.7999H133.118L136.803 58.4917C137.381 57.2009 137.622 55.7856 137.505 54.3771C137.388 52.9685 136.916 51.6122 136.133 50.4339L124.743 33.3999H235Z" fill="#F4BBBD"/>
<path d="M155.438 116.9H151.25C150.14 116.9 149.075 116.46 148.289 115.677C147.504 114.894 147.063 113.832 147.063 112.725C147.063 111.618 147.504 110.556 148.289 109.773C149.075 108.99 150.14 108.55 151.25 108.55H155.438C156.549 108.55 157.614 108.99 158.399 109.773C159.184 110.556 159.625 111.618 159.625 112.725C159.625 113.832 159.184 114.894 158.399 115.677C157.614 116.46 156.549 116.9 155.438 116.9Z" fill="#F3F5F9"/>
<path d="M184.751 116.9H172.188C171.078 116.9 170.013 116.46 169.227 115.677C168.442 114.894 168.001 113.832 168.001 112.725C168.001 111.618 168.442 110.556 169.227 109.773C170.013 108.99 171.078 108.55 172.188 108.55H184.751C185.862 108.55 186.927 108.99 187.712 109.773C188.497 110.556 188.938 111.618 188.938 112.725C188.938 113.832 188.497 114.894 187.712 115.677C186.927 116.46 185.862 116.9 184.751 116.9Z" fill="#F3F5F9"/>
<path d="M214.063 116.9H201.5C200.39 116.9 199.325 116.46 198.539 115.677C197.754 114.894 197.313 113.832 197.313 112.725C197.313 111.618 197.754 110.556 198.539 109.773C199.325 108.99 200.39 108.55 201.5 108.55H214.063C215.174 108.55 216.239 108.99 217.024 109.773C217.809 110.556 218.25 111.618 218.25 112.725C218.25 113.832 217.809 114.894 217.024 115.677C216.239 116.46 215.174 116.9 214.063 116.9Z" fill="#F3F5F9"/>
<path d="M37.6879 125.25H16.7505C15.6399 125.25 14.5748 124.81 13.7895 124.027C13.0042 123.244 12.563 122.182 12.563 121.075C12.563 119.968 13.0042 118.906 13.7895 118.123C14.5748 117.34 15.6399 116.9 16.7505 116.9H37.6879C38.7985 116.9 39.8636 117.34 40.649 118.123C41.4343 118.906 41.8754 119.968 41.8754 121.075C41.8754 122.182 41.4343 123.244 40.649 124.027C39.8636 124.81 38.7985 125.25 37.6879 125.25Z" fill="#F48081"/>
<path d="M50.2504 104.375H16.7505C15.6399 104.375 14.5748 103.935 13.7895 103.152C13.0042 102.369 12.563 101.307 12.563 100.2C12.563 99.0926 13.0042 98.0307 13.7895 97.2477C14.5748 96.4648 15.6399 96.0249 16.7505 96.0249H50.2504C51.361 96.0249 52.4261 96.4648 53.2114 97.2477C53.9967 98.0307 54.4379 99.0926 54.4379 100.2C54.4379 101.307 53.9967 102.369 53.2114 103.152C52.4261 103.935 51.361 104.375 50.2504 104.375Z" fill="#F48081"/>
</svg>
