<svg width="243" height="167" viewBox="0 0 243 167" fill="none" xmlns="http://www.w3.org/2000/svg">
<path d="M15.1875 0H227.812C236.2 0 243 6.79772 243 15.1818V151.818C243 160.202 236.2 167 227.812 167H15.1875C6.80026 167 0 160.202 0 151.818V15.1818C0 6.79772 6.80026 0 15.1875 0Z" fill="#F3D8DB"/>
<path d="M87.3281 56.9318C87.3281 71.6059 75.4295 83.5 60.75 83.5C46.0705 83.5 34.1719 71.6059 34.1719 56.9318C34.1719 42.2578 46.0705 30.3636 60.75 30.3636C75.4295 30.3636 87.3281 42.2578 87.3281 56.9318Z" fill="#F4BBBD"/>
<path d="M106.312 113.864C106.312 126.441 96.1168 136.636 83.5398 136.636H37.9602C25.3832 136.636 15.1875 126.441 15.1875 113.864C15.1875 101.287 25.3879 91.0909 37.9688 91.0909H83.5312C96.1121 91.0909 106.312 101.287 106.312 113.864Z" fill="#F4BBBD"/>
<path d="M129.095 30.3636H220.22C224.413 30.3636 227.813 33.7625 227.813 37.9546C227.813 42.1466 224.413 45.5455 220.22 45.5455H129.095C124.901 45.5455 121.501 42.1466 121.501 37.9546C121.501 33.7625 124.901 30.3636 129.095 30.3636Z" fill="#F3F5F9"/>
<path d="M129.094 60.7271H144.281C148.475 60.7271 151.875 64.126 151.875 68.3181C151.875 72.5101 148.475 75.909 144.281 75.909H129.094C124.9 75.909 121.5 72.5101 121.5 68.3181C121.5 64.126 124.9 60.7271 129.094 60.7271Z" fill="#F3F5F9"/>
<path d="M174.656 60.7271H220.219C224.412 60.7271 227.812 64.126 227.812 68.3181C227.812 72.5101 224.412 75.909 220.219 75.909H174.656C170.463 75.909 167.062 72.5101 167.062 68.3181C167.062 64.126 170.463 60.7271 174.656 60.7271Z" fill="#F3F5F9"/>
<path d="M129.094 91.0908H144.281C148.475 91.0908 151.875 94.4896 151.875 98.6817C151.875 102.874 148.475 106.273 144.281 106.273H129.094C124.9 106.273 121.5 102.874 121.5 98.6817C121.5 94.4896 124.9 91.0908 129.094 91.0908Z" fill="#F3F5F9"/>
<path d="M174.656 91.0908H220.219C224.412 91.0908 227.812 94.4896 227.812 98.6817C227.812 102.874 224.412 106.273 220.219 106.273H174.656C170.463 106.273 167.062 102.874 167.062 98.6817C167.062 94.4896 170.463 91.0908 174.656 91.0908Z" fill="#F3F5F9"/>
<path d="M182.25 129.045C182.25 124.853 185.651 121.455 189.844 121.455C194.036 121.455 197.438 124.853 197.438 129.045C197.438 133.238 194.036 136.636 189.844 136.636C185.651 136.636 182.25 133.238 182.25 129.045Z" fill="#F48081"/>
<path d="M151.875 129.045C151.875 124.853 155.276 121.455 159.469 121.455C163.661 121.455 167.062 124.853 167.062 129.045C167.062 133.238 163.661 136.636 159.469 136.636C155.276 136.636 151.875 133.238 151.875 129.045Z" fill="#F48081"/>
<path d="M121.5 129.046C121.5 124.853 124.901 121.455 129.094 121.455C133.286 121.455 136.688 124.853 136.688 129.046C136.688 133.238 133.286 136.636 129.094 136.636C124.901 136.636 121.5 133.238 121.5 129.046Z" fill="#F48081"/>
</svg>
