<svg width="139" height="167" viewBox="0 0 139 167" fill="none" xmlns="http://www.w3.org/2000/svg">
<path d="M137.168 77.2977L133.159 75.712C131.536 75.0693 130.847 73.166 131.69 71.6497L138.321 59.7175C138.717 59.0049 138.925 58.2049 138.925 57.3915V25.742C138.914 20.4743 135.253 15.887 130.092 14.598C128.022 14.0802 125.663 13.4915 123.108 12.8542C122.012 12.5805 120.853 12.9582 120.138 13.8246L94.1316 45.3037C93.2508 46.3695 93.2574 47.9023 94.1443 48.9627L99.6257 55.5159C100.598 56.6789 100.499 58.3885 99.3964 59.433L75.1479 82.4121C72.9616 84.4843 69.4281 82.2882 70.3653 79.4401L76.1542 61.8491C76.616 60.4459 75.9311 58.9243 74.5681 58.3251L66.7338 54.8804C65.1856 54.1995 64.5494 52.3595 65.3523 50.8833L88.6953 7.95224C89.5943 6.29917 88.68 4.24968 86.8407 3.78987C81.5009 2.45511 76.8995 1.30578 73.7823 0.526597C70.9727 -0.175532 68.0357 -0.175532 65.226 0.526597L8.92384 14.598C3.76311 15.887 0.0981887 20.4743 0.0836309 25.742V58.4839C0.0836309 59.5998 0.735092 60.6151 1.75559 61.0904L6.00864 63.0704C7.56341 63.7942 8.14973 65.6859 7.27262 67.1475L0.411181 78.5792C0.137495 79.0354 -0.00735517 79.5582 0.000287662 80.0886C0.114566 88.2747 1.3316 96.2491 3.53309 103.849C4.26353 106.37 6.8792 107.866 9.44646 107.213L28.9193 102.26C30.9687 101.739 32.8783 103.486 32.5122 105.548L26.4434 139.724C26.1646 141.292 26.6807 142.901 27.8344 144.012C39.1396 154.896 53.36 162.982 69.4842 166.993L69.506 167C71.7319 166.265 85.8373 163.45 101.337 152.241C101.931 151.812 102.333 151.17 102.469 150.454L104.429 140.125C104.773 138.308 106.134 136.844 107.935 136.354C115.518 134.291 118.732 133.425 120.094 133.055C120.733 132.882 121.294 132.501 121.682 131.969C132.445 117.21 138.606 99.6621 138.999 80.0403C139.023 78.8381 138.296 77.7438 137.168 77.2977Z" fill="#F4BBBD"/>
<path d="M138.999 80.1588C138.606 99.7521 132.434 117.278 121.657 132.017C121.27 132.549 120.705 132.926 120.067 133.102C118.704 133.469 115.482 134.335 107.89 136.395C106.086 136.884 104.722 138.346 104.379 140.162L102.416 150.477C102.281 151.189 101.876 151.834 101.282 152.262C85.5422 163.613 70.7985 166.542 69.4051 167L69.3833 166.993C53.2371 162.987 38.9935 154.91 27.6729 144.044C26.5176 142.933 25.9993 141.325 26.2799 139.761L30.5639 115.7C31.0024 113.238 33.0044 111.355 35.512 110.998C60.8437 107.389 82.7405 92.4038 91.0476 68.2791C91.3428 67.4222 91.8542 66.6531 92.5168 66.0271L99.3382 59.5795C100.443 58.5368 100.541 56.8291 99.5679 55.6677C99.0069 54.9985 101.6 58.0927 94.0785 49.1234C93.1892 48.0627 93.1837 46.5337 94.0658 45.4694L120.11 14.0331C120.824 13.1701 121.987 12.7907 123.084 13.064C125.643 13.7005 128.005 14.2876 130.079 14.8054C135.247 16.0927 138.914 20.6737 138.924 25.9343V57.5404C138.924 58.353 138.717 59.1513 138.32 59.8632L131.678 71.7792C130.833 73.2931 131.521 75.1923 133.15 75.836L137.164 77.4195C138.295 77.8661 139.025 78.9578 138.999 80.1588Z" fill="#F4BBBD"/>
<path d="M88.5205 7.93604L80.2569 23.1416C77.1332 22.3579 74.4526 21.6893 72.5312 21.2075C70.4536 20.6899 68.2779 20.6899 66.2003 21.2075L24.5245 31.6293C20.707 32.582 17.9756 35.9792 17.9647 39.8797V79.0216C17.9429 87.6675 19.5375 96.0042 22.5776 103.697L9.42763 107.043C6.86547 107.695 4.25502 106.201 3.52603 103.684C1.32892 96.0966 0.114313 88.1348 0.000261619 79.9617C-0.00700277 79.4322 0.137196 78.9102 0.410337 78.4547L7.25812 67.0411C8.13384 65.5815 7.54833 63.6931 5.99665 62.9705L1.75207 60.9936C0.733603 60.5195 0.0834389 59.5053 0.0834389 58.3912V25.7012C0.0979677 20.4418 3.75559 15.8618 8.90604 14.5748L65.0961 0.525762C67.9002 -0.175254 70.8314 -0.175254 73.6354 0.525762C76.7471 1.30371 81.3407 2.45158 86.6713 3.78459C88.5052 4.24366 89.4166 6.2874 88.5205 7.93604Z" fill="#F3D8DB"/>
<path d="M137.165 77.4201L133.151 75.8365C131.525 75.1947 130.835 73.2936 131.678 71.7794L138.32 59.8634C138.716 59.1518 138.924 58.3528 138.924 57.5405V25.9344C138.914 20.6738 135.247 16.0928 130.079 14.8055C128.006 14.2885 125.643 13.7005 123.084 13.0641C121.986 12.7912 120.826 13.168 120.11 14.0332L106.892 29.9897L114.403 31.8642C118.237 32.8207 120.974 36.2151 120.985 40.1165V79.2673C121.064 109.808 100.37 136.469 70.6422 144.42C69.8326 144.637 68.9761 144.636 68.1666 144.42C52.5904 140.252 39.2371 130.885 30.1394 118.087L26.2793 139.761C26.0004 141.328 26.5169 142.934 27.6723 144.044C38.994 154.913 53.2352 162.987 69.3829 166.993L69.4048 167C70.8116 166.537 85.5445 163.61 101.282 152.262L121.657 132.017C132.435 117.278 138.605 99.7538 138.999 80.1587C139.024 78.9584 138.295 77.866 137.165 77.4201Z" fill="#F3D8DB"/>
<rect width="16.0073" height="7.73213" rx="3.86606" transform="matrix(0.970814 -0.239834 0.24424 0.969715 24.0938 36.4277)" fill="#F3F5F9"/>
<rect width="7.90115" height="7.73213" rx="3.86606" transform="matrix(0.970814 -0.239834 0.24424 0.969715 42.5107 31.8672)" fill="#F3F5F9"/>
</svg>
