<svg width="14" height="15" viewBox="0 0 14 15" fill="none" xmlns="http://www.w3.org/2000/svg">
<path d="M12.8766 9.6894C12.0195 9.6894 11.1779 9.55534 10.3804 9.29178C9.98958 9.15849 9.50917 9.28077 9.27066 9.52573L7.6965 10.7141C5.87092 9.73956 4.7464 8.61541 3.78521 6.80354L4.93857 5.27039C5.23822 4.97114 5.3457 4.53401 5.21693 4.12385C4.95224 3.32213 4.81779 2.48093 4.81779 1.62343C4.81782 1.00396 4.31386 0.5 3.69443 0.5H1.12339C0.503964 0.5 0 1.00396 0 1.62339C0 8.72365 5.77638 14.5 12.8766 14.5C13.4961 14.5 14 13.996 14 13.3766V10.8127C14 10.1934 13.496 9.6894 12.8766 9.6894Z" fill="#019748"/>
</svg>
