<svg width="20" height="20" viewBox="0 0 20 20" fill="none" xmlns="http://www.w3.org/2000/svg">
<path d="M18.9886 9.83484C19.2621 9.54301 19.2168 9.12423 18.8803 8.90411L10.6177 3.4983C10.2812 3.27833 9.73227 3.27819 9.39582 3.49816L1.13104 8.89994C0.794582 9.11991 0.731027 9.53869 1.00437 9.83067L2.70231 11.6573V14.046C2.40808 14.1064 2.11385 14.4012 2.11385 14.7541V15.6902C2.11385 16.0862 2.44309 16.458 2.84332 16.5164L9.27312 17.456C9.67328 17.5146 10.3288 17.5146 10.729 17.456L17.1478 16.5164C17.5479 16.458 17.8554 16.0862 17.8554 15.6902V14.7541C17.8554 14.4013 17.6347 14.1064 17.2669 14.046V11.6589L18.9886 9.83484ZM3.87925 14.0167V12.8646H16.0164V14.0167H3.87925ZM7.55716 7.48246C7.55716 7.48246 7.95525 7.47756 8.05323 7.47756C8.9082 7.47756 9.92941 6.3836 10.003 6.2681C10.0765 6.3836 11.0824 7.47756 11.9374 7.47756C12.0354 7.47756 12.412 7.48246 12.412 7.48246V9.30986C12.412 9.4602 12.3733 9.6076 12.3167 9.75074C12.2405 9.944 12.1157 10.1293 11.9679 10.3037C11.787 10.5171 11.5601 10.7102 11.335 10.8885C10.8183 11.2979 10.0075 11.6579 10.0075 11.6579C10.0075 11.6579 9.19611 11.2979 8.67936 10.8885C8.45427 10.7101 8.22323 10.5171 8.04242 10.3037C7.89449 10.1293 7.75231 9.944 7.67603 9.75074C7.61939 9.6076 7.55716 9.4602 7.55716 9.30986V7.48246Z" fill="#FF6B00"/>
</svg>
