<svg width="20" height="20" viewBox="0 0 20 20" fill="none" xmlns="http://www.w3.org/2000/svg">
<path d="M18.3333 14.1684C18.333 15.308 17.9434 16.4133 17.2292 17.3014C16.5149 18.1894 15.5189 18.8069 14.4058 19.0517L13.8742 17.4567C14.361 17.3765 14.824 17.1893 15.2298 16.9086C15.6356 16.6279 15.9741 16.2606 16.2208 15.8334H14.1667C13.7246 15.8334 13.3007 15.6578 12.9881 15.3452C12.6756 15.0326 12.5 14.6087 12.5 14.1667V10.8334C12.5 10.3913 12.6756 9.9674 12.9881 9.65484C13.3007 9.34228 13.7246 9.16669 14.1667 9.16669H16.615C16.4116 7.55577 15.6274 6.07441 14.4095 5.00058C13.1916 3.92675 11.6237 3.33425 9.99999 3.33425C8.37628 3.33425 6.80838 3.92675 5.59047 5.00058C4.37256 6.07441 3.58835 7.55577 3.38499 9.16669H5.83332C6.27535 9.16669 6.69927 9.34228 7.01183 9.65484C7.3244 9.9674 7.49999 10.3913 7.49999 10.8334V14.1667C7.49999 14.6087 7.3244 15.0326 7.01183 15.3452C6.69927 15.6578 6.27535 15.8334 5.83332 15.8334H3.33332C2.8913 15.8334 2.46737 15.6578 2.15481 15.3452C1.84225 15.0326 1.66666 14.6087 1.66666 14.1667V10C1.66666 5.39752 5.39749 1.66669 9.99999 1.66669C14.6025 1.66669 18.3333 5.39752 18.3333 10V14.1684Z" fill="#3DC459"/>
</svg>
