<svg width="20" height="20" viewBox="0 0 20 20" fill="none" xmlns="http://www.w3.org/2000/svg">
<path d="M10 0.833313C11.9891 0.833313 13.8968 1.62349 15.3033 3.03001C16.7098 4.43653 17.5 6.34419 17.5 8.33331C17.5 11.4383 15.1333 14.6916 10.5 18.1666C10.3558 18.2748 10.1803 18.3333 10 18.3333C9.81969 18.3333 9.64425 18.2748 9.5 18.1666C4.86667 14.6916 2.5 11.4383 2.5 8.33331C2.5 6.34419 3.29018 4.43653 4.6967 3.03001C6.10322 1.62349 8.01088 0.833313 10 0.833313ZM10 5.83331C9.33696 5.83331 8.70107 6.0967 8.23223 6.56555C7.76339 7.03439 7.5 7.67027 7.5 8.33331C7.5 8.99635 7.76339 9.63224 8.23223 10.1011C8.70107 10.5699 9.33696 10.8333 10 10.8333C10.663 10.8333 11.2989 10.5699 11.7678 10.1011C12.2366 9.63224 12.5 8.99635 12.5 8.33331C12.5 7.67027 12.2366 7.03439 11.7678 6.56555C11.2989 6.0967 10.663 5.83331 10 5.83331Z" fill="#3DC459"/>
</svg>
