<svg width="20" height="20" viewBox="0 0 20 20" fill="none" xmlns="http://www.w3.org/2000/svg">
<path d="M13.9888 9.3167L14.3222 8.98336C14.8444 8.46393 15.1389 7.75834 15.141 7.02178C15.1431 6.28521 14.8526 5.57797 14.3333 5.05559L11.3944 2.13336C10.8735 1.61261 10.1671 1.32007 9.4305 1.32007C8.69394 1.32007 7.98753 1.61261 7.46662 2.13336L2.71662 6.88336C2.19586 7.40427 1.90332 8.11069 1.90332 8.84725C1.90332 9.58382 2.19586 10.2902 2.71662 10.8111L5.63884 13.7334C6.15975 14.2541 6.86616 14.5467 7.60273 14.5467C8.33929 14.5467 9.04571 14.2541 9.56662 13.7334L9.81662 13.4834L10.9833 14.7056H12.8944V16.3723H14.9444V17.2778L16.5555 18.8889H19.8888V15.25L13.9888 9.3167ZM9.23328 5.65559L6.2055 8.68892C6.10141 8.79239 5.96061 8.85047 5.81384 8.85047C5.66707 8.85047 5.52626 8.79239 5.42217 8.68892L5.19995 8.4667C5.09648 8.36261 5.0384 8.2218 5.0384 8.07503C5.0384 7.92826 5.09648 7.78745 5.19995 7.68336L8.22217 4.64448C8.32626 4.541 8.46707 4.48292 8.61384 4.48292C8.76061 4.48292 8.90141 4.541 9.0055 4.64448L9.22773 4.8667C9.28016 4.91798 9.32193 4.97913 9.35061 5.04663C9.37929 5.11413 9.39433 5.18664 9.39484 5.25998C9.39536 5.33332 9.38135 5.40604 9.35362 5.47394C9.32589 5.54184 9.28499 5.60357 9.23328 5.65559ZM18.7777 17.7778H17.0333L16.0499 16.8V15.2445H14.0055V13.5778H11.4444L10.5999 12.6834L13.2222 10.1L18.7777 15.7111V17.7778Z" fill="#3DC459"/>
</svg>
