<svg width="20" height="20" viewBox="0 0 20 20" fill="none" xmlns="http://www.w3.org/2000/svg">
<path d="M10 1C5.0567 1 1 5.0567 1 10C1 14.9433 5.0567 19 10 19C14.9433 19 19 14.9433 19 10C19 5.0567 14.9433 1 10 1ZM10 15.8008C6.80147 15.8008 4.19922 13.1985 4.19922 10C4.19922 6.80147 6.80147 4.19922 10 4.19922C13.1985 4.19922 15.8008 6.80147 15.8008 10C15.8008 13.1985 13.1985 15.8008 10 15.8008Z" fill="#3DC459"/>
<path d="M10 9C9.44818 9 9 9.44818 9 10C9 10.5518 9.44818 11 10 11C10.5518 11 11 10.5518 11 10C11 9.44818 10.5518 9 10 9Z" fill="#3DC459"/>
<path d="M12.6111 7.77654L13.5333 6.33644C12.9222 5.70265 12.1555 5.23042 11.3001 5L10.5556 6.54376H9.44444L8.70009 5C7.84447 5.23042 7.07784 5.70265 6.46672 6.33644L7.38903 7.77654L6.83348 8.76721L5.16681 8.66356C5.05556 9.08989 5 9.53917 5 10C5 10.4608 5.05556 10.9101 5.16667 11.3364L6.83333 11.2328L7.38889 12.2235L6.46672 13.6636C7.07784 14.2972 7.84447 14.7696 8.69994 15L9.44444 13.4562H10.5556L11.2999 15C12.1555 14.7696 12.9222 14.2972 13.5333 13.6636L12.611 12.2235L13.1665 11.2328L14.8332 11.3364C14.9444 10.9101 15 10.4608 15 10C15 9.53917 14.9444 9.08989 14.8333 8.66356L13.1667 8.76721L12.6111 7.77654ZM10 11.7281C9.08102 11.7281 8.33333 10.9529 8.33333 10C8.33333 9.04713 9.08102 8.27188 10 8.27188C10.919 8.27188 11.6667 9.04713 11.6667 10C11.6667 10.9529 10.919 11.7281 10 11.7281Z" fill="#3DC459"/>
</svg>
