<svg width="20" height="20" viewBox="0 0 20 20" fill="none" xmlns="http://www.w3.org/2000/svg">
<path d="M4.8019 19C3.6388 19 2.69253 18.0537 2.69253 16.8906V11.582H2.16519V10.5273H4.27456V5.2539H3.21988V1H6.38393V5.2539H5.32925V10.5273H7.43862V11.582H6.91128V16.8906C6.91128 18.0537 5.96501 19 4.8019 19Z" fill="#3DC459"/>
<path d="M17.8347 4.72653C17.8347 3.1688 16.8457 1.77264 15.3737 1.25236L14.6706 1.00385V4.19919H13.616V1.00385L12.9129 1.25236C11.4409 1.77264 10.4519 3.1688 10.4519 4.72653C10.4519 6.16055 11.2856 7.45726 12.5613 8.06268V11.9373C11.2856 12.5427 10.4519 13.8394 10.4519 15.2734C10.4519 16.0516 10.6921 16.7935 11.1464 17.419C12.036 18.6434 13.2142 18.7935 13.616 18.9828V15.8007H14.6706V18.9828C15.0751 18.7921 16.2511 18.6426 17.1402 17.4189C17.5945 16.7935 17.8347 16.0516 17.8347 15.2734C17.8347 13.8394 17.001 12.5427 15.7253 11.9372V8.06268C17.001 7.45726 17.8347 6.16055 17.8347 4.72653Z" fill="#3DC459"/>
</svg>
