<svg width="20" height="20" viewBox="0 0 20 20" fill="none" xmlns="http://www.w3.org/2000/svg">
<path d="M6.66667 13.5556C6.66667 13.1543 6.52006 12.8071 6.22685 12.5139C5.93364 12.2207 5.58642 12.0741 5.18518 12.0741C4.78395 12.0741 4.43673 12.2207 4.14352 12.5139C3.85031 12.8071 3.7037 13.1543 3.7037 13.5556C3.7037 13.9568 3.85031 14.304 4.14352 14.5972C4.43673 14.8904 4.78395 15.037 5.18518 15.037C5.58642 15.037 5.93364 14.8904 6.22685 14.5972C6.52006 14.304 6.66667 13.9568 6.66667 13.5556ZM2.22222 7.62963H6.66667V4.66666H4.83796C4.73765 4.66666 4.65278 4.70138 4.58333 4.77083L2.32639 7.02777C2.25694 7.09722 2.22222 7.1821 2.22222 7.2824V7.62963ZM17.037 13.5556C17.037 13.1543 16.8904 12.8071 16.5972 12.5139C16.304 12.2207 15.9568 12.0741 15.5556 12.0741C15.1543 12.0741 14.8071 12.2207 14.5139 12.5139C14.2207 12.8071 14.0741 13.1543 14.0741 13.5556C14.0741 13.9568 14.2207 14.304 14.5139 14.5972C14.8071 14.8904 15.1543 15.037 15.5556 15.037C15.9568 15.037 16.304 14.8904 16.5972 14.5972C16.8904 14.304 17.037 13.9568 17.037 13.5556ZM10 3.96296V9.99999H20V12.8148C20 12.9306 19.9846 13.0328 19.9537 13.1215C19.9228 13.2103 19.8708 13.2816 19.7975 13.3356C19.7241 13.3897 19.6605 13.434 19.6065 13.4687C19.5525 13.5035 19.4618 13.5266 19.3345 13.5382C19.2072 13.5498 19.1204 13.5575 19.0741 13.5613C19.0278 13.5652 18.9294 13.5652 18.7789 13.5613C18.6285 13.5575 18.5417 13.5556 18.5185 13.5556C18.5185 14.3735 18.2292 15.0718 17.6505 15.6505C17.0718 16.2292 16.3735 16.5185 15.5556 16.5185C14.7377 16.5185 14.0394 16.2292 13.4606 15.6505C12.8819 15.0718 12.5926 14.3735 12.5926 13.5556H8.14815C8.14815 14.3735 7.8588 15.0718 7.28009 15.6505C6.70139 16.2292 6.00309 16.5185 5.18518 16.5185C4.36728 16.5185 3.66898 16.2292 3.09028 15.6505C2.51157 15.0718 2.22222 14.3735 2.22222 13.5556H1.48148C1.45833 13.5556 1.37153 13.5575 1.22106 13.5613C1.0706 13.5652 0.972222 13.5652 0.925926 13.5613C0.87963 13.5575 0.792824 13.5498 0.665509 13.5382C0.538194 13.5266 0.447531 13.5035 0.393519 13.4687C0.339506 13.434 0.275849 13.3897 0.202546 13.3356C0.129244 13.2816 0.0771605 13.2103 0.0462963 13.1215C0.0154321 13.0328 0 12.9306 0 12.8148C0 12.6142 0.0733025 12.4406 0.219907 12.294C0.366512 12.1474 0.540123 12.0741 0.740741 12.0741V8.37037C0.740741 8.30864 0.738812 8.17361 0.734954 7.96527C0.731096 7.75694 0.731096 7.61034 0.734954 7.52546C0.738812 7.44058 0.748457 7.30748 0.763889 7.12615C0.779321 6.94483 0.804398 6.80208 0.83912 6.69791C0.873843 6.59374 0.927855 6.47607 1.00116 6.3449C1.07446 6.21373 1.16127 6.09799 1.26157 5.99768L3.55324 3.70601C3.69985 3.55941 3.89468 3.43595 4.13773 3.33564C4.38079 3.23533 4.60648 3.18518 4.81481 3.18518H6.66667L9.25926 3.22223C9.25926 3.22223 9.59555 3.22223 9.78009 3.44213C9.9267 3.58873 10 3.76234 10 3.96296Z" fill="#3DC459"/>
</svg>
