<svg width="20" height="20" viewBox="0 0 20 20" fill="none" xmlns="http://www.w3.org/2000/svg">
<path d="M14.05 15.3H14.9V17H3V15.3H3.85V1.7C3.85 0.765 4.615 0 5.55 0H12.35C12.8009 0 13.2333 0.179107 13.5521 0.497919C13.8709 0.81673 14.05 1.24913 14.05 1.7V15.3ZM5.55 1.7V6.8H12.35V1.7H5.55ZM14.05 8.5H14.9C15.3509 8.5 15.7833 8.67911 16.1021 8.99792C16.4209 9.31673 16.6 9.74913 16.6 10.2V12.75C16.6 12.9754 16.6896 13.1916 16.849 13.351C17.0084 13.5104 17.2246 13.6 17.45 13.6C17.6754 13.6 17.8916 13.5104 18.051 13.351C18.2104 13.1916 18.3 12.9754 18.3 12.75V8.5L16.6 6.8V5.1L14.9 3.4L15.75 2.55L20 6.8V12.75C20 13.4263 19.7313 14.0749 19.2531 14.5531C18.7749 15.0313 18.1263 15.3 17.45 15.3C16.7737 15.3 16.1251 15.0313 15.6469 14.5531C15.1687 14.0749 14.9 13.4263 14.9 12.75V10.2H14.05V8.5Z" fill="#3DC459"/>
</svg>
