<svg width="40" height="40" viewBox="0 0 40 40" fill="none" xmlns="http://www.w3.org/2000/svg">
<mask id="mask0" style="mask-type:alpha" maskUnits="userSpaceOnUse" x="0" y="0" width="40" height="40">
<circle cx="20" cy="20" r="20" fill="#DEEEE2"/>
</mask>
<g mask="url(#mask0)">
<path d="M19.5263 4.09326C19.5263 4.09326 22.5588 4.45483 22.7828 6.92259L19.8613 8.27173L16.5723 6.92252C16.5723 5.4958 17.5945 4.30788 18.9465 4.05127C19.1032 4.05694 19.3388 4.09326 19.5263 4.09326Z" fill="#4B4B4B"/>
<path d="M23.5129 6.9226L22.3155 7.68278L21.3209 6.9226C21.3209 5.49566 20.2988 4.3076 18.9463 4.05185C19.1239 4.01752 19.3066 4 19.4943 4H20.5903C22.2044 4 23.5129 5.30864 23.5129 6.9226Z" fill="#333333"/>
<path d="M9.26562 19.8789V26.1381C9.26562 27.3487 10.247 28.33 11.4576 28.33H28.628C29.8386 28.33 30.8199 27.3486 30.8199 26.1381V20.1102L9.26562 19.8789Z" fill="#333333"/>
<path d="M31.1116 37.9761V38.8528C31.1116 39.6602 30.4577 40.3142 29.6503 40.3142H8.46134C7.654 40.3142 7 39.6603 7 38.8528V37.9761C7 34.7481 9.6172 32.1309 12.8452 32.1309H14.2473L19.6768 34.2551L25.837 32.1309L26.2714 32.1609C29.6278 32.7137 31.1116 34.7481 31.1116 37.9761Z" fill="#019748"/>
<path d="M33.0842 37.9761V38.8528C33.0842 39.6602 32.4303 40.3142 31.6229 40.3142H29.431C30.2384 40.3142 30.8923 39.6603 30.8923 38.8528V37.9761C30.8923 34.9993 28.7142 32.4961 25.8369 32.1309H27.239C30.467 32.1309 33.0842 34.7481 33.0842 37.9761Z" fill="#019748"/>
<path d="M22.8391 35.1255L21.0753 36.8878C20.5046 37.4585 19.5796 37.4585 19.0089 36.8878L17.2451 35.1255H22.8391Z" fill="#FCF1F2"/>
<path d="M27.8975 22.4124H29.8337C31.0645 22.4124 32.0622 21.4147 32.0622 20.1839C32.0622 19.3074 31.5561 18.5491 30.8203 18.1852L29.9217 17.4419L27.8975 17.9555V22.4124Z" fill="#FFC3BD"/>
<path d="M29.8694 20.7317H27.8966C27.5939 20.7317 27.3486 20.4863 27.3486 20.1837C27.3486 19.881 27.594 19.6357 27.8966 19.6357H29.8694C30.1721 19.6357 30.4173 19.8811 30.4173 20.1837C30.4174 20.4864 30.1721 20.7317 29.8694 20.7317Z" fill="#CC9E99"/>
<path d="M12.1891 17.9558L10.2529 17.2251L9.26631 18.1855C8.53046 18.5494 8.02441 19.3077 8.02441 20.1842C8.02441 21.415 9.02211 22.4127 10.2529 22.4127H12.1891V17.9558Z" fill="#FFC3BD"/>
<path d="M12.1137 20.7317H10.214C9.91135 20.7317 9.66602 20.4863 9.66602 20.1837C9.66602 19.881 9.91135 19.6357 10.214 19.6357H12.1137C12.4163 19.6357 12.6617 19.8811 12.6617 20.1837C12.6617 20.4864 12.4163 20.7317 12.1137 20.7317Z" fill="#CC9E99"/>
<path d="M25.8377 32.1303L22.8398 35.126H17.2459L14.248 32.1303H16.4992C16.7008 32.1303 16.8645 31.9666 16.8645 31.765V28.4771H23.2213V31.765C23.2213 31.9666 23.3849 32.1303 23.5866 32.1303H25.8377Z" fill="#FFC3BD"/>
<path d="M27.8958 10.6489V20.9877C27.8958 22.5819 27.4613 24.0747 26.7042 25.3539C25.2096 27.8794 14.1423 27.8794 12.6477 25.3539C11.8906 24.0746 11.4561 22.5819 11.4561 20.9877V10.6489H27.8958Z" fill="#FFD5D0"/>
<path d="M28.6277 17.956V20.9883C28.6277 22.5824 28.1932 24.0751 27.436 25.3544C26.5454 25.6212 25.6965 24.8617 25.7409 24.3771C26.188 23.3375 26.4357 22.1918 26.4357 20.9883V16.4624L28.6277 17.956Z" fill="#FFC3BD"/>
<path d="M29.3587 14.2293L28.628 17.9556H27.0205C26.2943 17.9556 25.7054 17.3668 25.7054 16.6405C25.7054 16.2774 25.5578 15.9485 25.3203 15.7104C25.0822 15.4729 24.7534 15.3253 24.3902 15.3253H22.527C21.1548 15.3253 20.0428 14.2133 20.0428 12.8411C20.0428 13.5272 19.7651 14.1483 19.3151 14.5976C18.8657 15.0477 18.2447 15.3254 17.5585 15.3254H15.6953C14.9691 15.3254 14.3802 15.9143 14.3802 16.6406C14.3802 17.0037 14.2326 17.3325 13.9951 17.5707C13.7569 17.8081 13.4281 17.9557 13.065 17.9557H10.252C9.89764 17.9557 9.56294 18.0383 9.26562 18.1859V14.2294C9.26562 10.194 12.5368 6.92285 16.5722 6.92285H21.5406C25.5761 6.92278 29.3587 10.1939 29.3587 14.2293Z" fill="#4B4B4B"/>
<path d="M30.8207 14.2294V18.1859C30.5234 18.0383 30.1887 17.9557 29.8344 17.9557H28.6288V14.2294C28.6288 10.194 25.3577 6.92285 21.3223 6.92285H23.5142C27.5495 6.92285 30.8207 10.194 30.8207 14.2294Z" fill="#333333"/>
<path d="M26.6546 35.9292C26.0493 35.9292 25.5586 36.4199 25.5586 37.0252V38.1212L26.6546 38.6101L27.7506 38.1212V37.0252C27.7506 36.4199 27.2599 35.9292 26.6546 35.9292Z" fill="#F0F7F7"/>
<path d="M27.4573 38.1221H23.8771C23.6753 38.1221 23.5117 38.2856 23.5117 38.4874V40.314H27.8226V38.4873C27.8226 38.2856 27.6591 38.1221 27.4573 38.1221Z" fill="white"/>
<path d="M29.7955 38.4874V40.3141H27.6036V38.4874C27.6036 38.2858 27.4399 38.1221 27.2383 38.1221H29.4302C29.6319 38.1221 29.7955 38.2858 29.7955 38.4874Z" fill="#F0F7F7"/>
<path d="M25.1387 26.6487C23.5853 28.2028 22.3487 29.4801 19.9785 29.4801C19.6072 29.4801 18.9472 29.504 18.9472 29.504C16.2643 29.1621 13.9677 27.5817 12.6504 25.3538L14.5793 24.2418C15.5782 23.666 16.7106 23.3628 17.8637 23.3628H22.2228C23.3757 23.3628 24.5083 23.666 25.5071 24.2418L25.7416 24.3769C25.7416 24.3769 25.6479 26.1401 25.1387 26.6487Z" fill="#FCF1F2"/>
<path d="M27.4365 25.3529C27.0683 25.9761 26.6233 26.549 26.1141 27.0575C24.5607 28.6116 22.414 29.5724 20.0437 29.5724C19.6733 29.5724 19.308 29.549 18.9492 29.503C22.0092 29.1121 24.5658 27.1108 25.7421 24.376L27.4365 25.3529Z" fill="#F4E5E0"/>
<path d="M24.2433 21.8277C23.9406 21.8277 23.6953 21.5824 23.6953 21.2797V20.1837C23.6953 19.881 23.9406 19.6357 24.2433 19.6357C24.5459 19.6357 24.7913 19.8811 24.7913 20.1837V21.2797C24.7913 21.5824 24.546 21.8277 24.2433 21.8277Z" fill="#CC9E99"/>
<path d="M15.8409 21.8287C15.5383 21.8287 15.293 21.5833 15.293 21.2807V20.1847C15.293 19.882 15.5383 19.6367 15.8409 19.6367C16.1436 19.6367 16.3889 19.882 16.3889 20.1847V21.2807C16.3889 21.5833 16.1436 21.8287 15.8409 21.8287Z" fill="#CC9E99"/>
</g>
</svg>
