<svg width="16" height="14" viewBox="0 0 16 14" fill="none" xmlns="http://www.w3.org/2000/svg">
<path fill-rule="evenodd" clip-rule="evenodd" d="M12.5 0.5H3.5C1.84315 0.5 0.5 1.84315 0.5 3.5V10.25C0.5 11.9069 1.84315 13.25 3.5 13.25H12.5C14.1569 13.25 15.5 11.9069 15.5 10.25V3.5C15.5 1.84315 14.1569 0.5 12.5 0.5ZM3.50007 1.69254H12.5001C13.2994 1.69407 14.0019 2.22251 14.2251 2.99004L8.57007 7.18254C8.41509 7.33407 8.20495 7.41575 7.98832 7.40867C7.77168 7.40159 7.56733 7.30637 7.42257 7.14504L1.79007 2.99754C2.00888 2.23233 2.70425 1.70166 3.50007 1.69254ZM1.69254 10.25C1.69254 11.2482 2.50178 12.0575 3.50004 12.0575H12.5C13.4954 12.0533 14.3 11.2453 14.3 10.25V4.22746L9.20004 7.97746C8.8741 8.2809 8.44537 8.44971 8.00004 8.44996C7.5371 8.44258 7.0934 8.2635 6.75504 7.94746L1.69254 4.19746V10.25Z" fill="#717171"/>
</svg>
