<svg width="104" height="80" viewBox="0 0 104 80" fill="none" xmlns="http://www.w3.org/2000/svg">
<rect width="104" height="80" rx="8" fill="#FAFAFA"/>
<g clip-path="url(#clip0)">
<path d="M50.8422 30.1421C52.672 31.1927 54.1904 32.702 55.2448 34.5221C56.2992 36.3422 56.8572 38.4049 56.8543 40.5061V54.1789H49.6909C49.3355 55.1792 48.6776 56.0463 47.8053 56.6589C46.9359 57.2715 45.8933 57.6 44.8272 57.6C43.761 57.6 42.7213 57.2715 41.849 56.6589C40.9767 56.0463 40.3188 55.1792 39.9635 54.1789H32.8V40.5061C32.8 38.4049 33.3551 36.3422 34.4095 34.5221C35.4639 32.702 36.9853 31.1927 38.8121 30.1421C38.5302 29.639 38.3128 29.1004 38.1689 28.541H32.8V25.1228H38.1719C38.5537 23.6549 39.4142 22.3557 40.6184 21.4294C41.8226 20.5031 43.3028 20 44.8272 20C46.3515 20 47.8317 20.5031 49.0359 21.4294C50.2401 22.3557 51.1006 23.6549 51.4854 25.1228H56.8543V28.541H51.4825C51.3385 29.1063 51.1183 29.6449 50.8422 30.1421ZM48.3457 32.7079C47.3178 33.3205 46.1136 33.6698 44.8272 33.6698C43.5877 33.6727 42.3747 33.3383 41.3086 32.7079C39.796 33.3827 38.5126 34.4777 37.6138 35.8627C36.7122 37.2478 36.2334 38.8607 36.2364 40.5091V50.7636H39.6727V43.9273C39.6727 42.5659 40.216 41.2638 41.1823 40.3019C42.1486 39.3401 43.4585 38.8015 44.8272 38.8015C46.1958 38.8015 47.5057 39.3431 48.472 40.3019C49.4383 41.2638 49.9816 42.5689 49.9816 43.9273V50.7636H53.418V40.5061C53.418 38.8577 52.9392 37.2448 52.0405 35.8598C51.1388 34.4777 49.8553 33.3827 48.3457 32.7079ZM44.8272 42.2137C44.3719 42.2137 43.9343 42.3943 43.6112 42.7139C43.2882 43.0335 43.109 43.4686 43.109 43.9214V52.4683C43.109 52.9211 43.2911 53.3561 43.6112 53.6757C43.9343 53.9954 44.369 54.1759 44.8272 54.1759C45.2824 54.1759 45.72 53.9954 46.0431 53.6757C46.3662 53.3561 46.5453 52.9211 46.5453 52.4683V43.9243C46.5453 43.4715 46.3632 43.0365 46.0431 42.7169C45.72 42.3943 45.2824 42.2137 44.8272 42.2137ZM44.8272 30.2516C45.7376 30.2516 46.6129 29.8905 47.2561 29.2513C47.8993 28.6091 48.2635 27.742 48.2635 26.8334C48.2635 25.9278 47.9022 25.0577 47.2561 24.4155C46.6129 23.7733 45.7376 23.4152 44.8272 23.4152C43.9167 23.4152 43.0415 23.7763 42.3982 24.4155C41.755 25.0577 41.3908 25.9248 41.3908 26.8334C41.3908 27.739 41.7521 28.6091 42.3982 29.2513C43.0415 29.8905 43.9167 30.2516 44.8272 30.2516Z" fill="#333333"/>
<path d="M66.2792 37.0021L73.6952 38.6417C74.1064 38.7334 74.403 39.0974 74.403 39.5177V48.4819C74.403 50.2842 73.4984 51.9652 71.9917 52.9625L66.2792 56.7506L60.5696 52.9625C59.0629 51.9622 58.1583 50.2813 58.1583 48.4819V39.5147C58.1583 39.0945 58.452 38.7305 58.8661 38.6387L66.2792 37.0021ZM66.2792 38.84L59.9617 40.2368V48.4819C59.9617 49.6834 60.5637 50.8021 61.5682 51.471L66.2792 54.5962L70.9902 51.471C71.9946 50.8051 72.5967 49.6834 72.5967 48.4849V40.2368L66.2792 38.84ZM70.297 43.4834L71.5747 44.753L65.8298 50.4647L62 46.6589L63.2746 45.3893L65.8269 47.9285L70.297 43.4834Z" fill="#FF6B00"/>
</g>
<path d="M19.1666 51.6667L28.3333 55L25.8333 63.75L19.1666 69.1667V51.6667Z" fill="#3DC459" fill-opacity="0.2"/>
<path d="M28.2227 53.2695L20.7227 50.1445C20.4942 50.0498 20.2493 50.001 20.002 50.001C19.7546 50.001 19.5097 50.0498 19.2812 50.1445L11.7812 53.2695C11.082 53.5586 10.625 54.2422 10.625 55C10.625 62.7539 15.0977 68.1133 19.2773 69.8555C19.7383 70.0469 20.2578 70.0469 20.7188 69.8555C24.0664 68.4609 29.375 63.6445 29.375 55C29.375 54.2422 28.918 53.5586 28.2227 53.2695ZM20.0039 67.4336L20 52.5508L26.8711 55.4141C26.7422 61.3281 23.6641 65.6133 20.0039 67.4336Z" fill="#3DC459"/>
<rect x="0.5" y="0.5" width="103" height="79" rx="7.5" stroke="#888888" stroke-opacity="0.2"/>
<defs>
<clipPath id="clip0">
<rect width="41.6" height="37.6" fill="white" transform="translate(32.8 20)"/>
</clipPath>
</defs>
</svg>
