<svg width="235" height="167" viewBox="0 0 235 167" fill="none" xmlns="http://www.w3.org/2000/svg">
<path d="M97.824 95.2401L112.342 127.805C112.816 128.873 113.061 130.028 113.062 131.195V158.65C113.062 160.865 112.18 162.988 110.609 164.554C109.039 166.12 106.909 167 104.687 167H20.9375C18.1879 167 15.4653 166.46 12.925 165.411C10.3848 164.362 8.07667 162.824 6.13244 160.886C4.18822 158.947 2.64598 156.646 1.59377 154.114C0.541564 151.581 0 148.866 0 146.125V20.875C0 15.3386 2.20591 10.029 6.13244 6.11415C10.059 2.19932 15.3845 0 20.9375 0H87.9374C90.1585 0 92.2887 0.879731 93.8594 2.44566C95.43 4.01159 96.3123 6.13544 96.3123 8.35V26.6949C96.312 28.3443 96.8016 29.9569 97.7193 31.3292L110.504 50.4507C111.288 51.622 111.762 52.9719 111.882 54.3749C112.002 55.7778 111.764 57.1883 111.191 58.4751L97.824 88.4599C97.3484 89.5272 97.1027 90.6821 97.1027 91.85C97.1027 93.0179 97.3484 94.1728 97.824 95.2401Z" fill="#CCEADA"/>
<path d="M121.938 8.3454V26.6802C121.937 28.3287 122.426 29.9404 123.344 31.3119L136.121 50.4229C136.904 51.5936 137.378 52.9427 137.498 54.3449C137.618 55.7471 137.381 57.1568 136.807 58.4428L123.448 88.4111C122.973 89.4779 122.727 90.6321 122.727 91.7994C122.727 92.9666 122.973 94.1209 123.448 95.1876L137.958 127.735C138.432 128.802 138.677 129.956 138.678 131.123V158.563C138.678 160.776 139.56 162.899 141.13 164.464C142.7 166.029 144.829 166.908 147.049 166.908H214.012C216.76 166.908 219.481 166.368 222.02 165.32C224.558 164.271 226.865 162.735 228.808 160.797C230.752 158.86 232.293 156.56 233.345 154.029C234.396 151.497 234.938 148.784 234.938 146.044V20.8635C234.938 15.3302 232.733 10.0234 228.808 6.11078C224.884 2.19811 219.561 0 214.012 0H130.308C128.088 0 125.959 0.879246 124.389 2.44431C122.819 4.00938 121.938 6.13206 121.938 8.3454Z" fill="#CCEADA"/>
<path d="M155.437 116.9H151.25C150.139 116.9 149.074 116.46 148.289 115.677C147.504 114.894 147.062 113.832 147.062 112.725C147.062 111.618 147.504 110.556 148.289 109.773C149.074 108.99 150.139 108.55 151.25 108.55H155.437C156.548 108.55 157.613 108.99 158.398 109.773C159.184 110.556 159.625 111.618 159.625 112.725C159.625 113.832 159.184 114.894 158.398 115.677C157.613 116.46 156.548 116.9 155.437 116.9Z" fill="#F3F5F9"/>
<path d="M184.75 116.9H172.188C171.077 116.9 170.012 116.46 169.227 115.677C168.442 114.894 168 113.832 168 112.725C168 111.618 168.442 110.556 169.227 109.773C170.012 108.99 171.077 108.55 172.188 108.55H184.75C185.861 108.55 186.926 108.99 187.711 109.773C188.497 110.556 188.938 111.618 188.938 112.725C188.938 113.832 188.497 114.894 187.711 115.677C186.926 116.46 185.861 116.9 184.75 116.9Z" fill="#F3F5F9"/>
<path d="M214.062 116.9H201.5C200.389 116.9 199.324 116.46 198.539 115.677C197.754 114.894 197.312 113.832 197.312 112.725C197.312 111.618 197.754 110.556 198.539 109.773C199.324 108.99 200.389 108.55 201.5 108.55H214.062C215.173 108.55 216.238 108.99 217.023 109.773C217.809 110.556 218.25 111.618 218.25 112.725C218.25 113.832 217.809 114.894 217.023 115.677C216.238 116.46 215.173 116.9 214.062 116.9Z" fill="#F3F5F9"/>
<path d="M37.6875 125.25H16.75C15.6394 125.25 14.5743 124.81 13.789 124.027C13.0037 123.244 12.5625 122.182 12.5625 121.075C12.5625 119.968 13.0037 118.906 13.789 118.123C14.5743 117.34 15.6394 116.9 16.75 116.9H37.6875C38.7981 116.9 39.8632 117.34 40.6485 118.123C41.4338 118.906 41.875 119.968 41.875 121.075C41.875 122.182 41.4338 123.244 40.6485 124.027C39.8632 124.81 38.7981 125.25 37.6875 125.25Z" fill="#34AC6D"/>
<path d="M50.2499 104.375H16.75C15.6394 104.375 14.5743 103.935 13.789 103.152C13.0037 102.369 12.5625 101.307 12.5625 100.2C12.5625 99.0926 13.0037 98.0307 13.789 97.2477C14.5743 96.4648 15.6394 96.0249 16.75 96.0249H50.2499C51.3605 96.0249 52.4256 96.4648 53.2109 97.2477C53.9963 98.0307 54.4374 99.0926 54.4374 100.2C54.4374 101.307 53.9963 102.369 53.2109 103.152C52.4256 103.935 51.3605 104.375 50.2499 104.375Z" fill="#34AC6D"/>
<rect x="77" width="66" height="33" fill="#CCEADA"/>
<path fill-rule="evenodd" clip-rule="evenodd" d="M0 33H77H97.9309H126H143H235V66H143H134.28H106.206H77H0V33Z" fill="#99D5B6"/>
<rect x="77" y="66" width="70" height="101" fill="#CCEADA"/>
</svg>
